<svg width="564" height="421" viewBox="0 0 564 421" fill="none" xmlns="http://www.w3.org/2000/svg">
<path d="M196.004 59.9862C243.253 -39.5058 369.994 6.83874 427.458 42.4475C442.5 54.5 481.092 69.8716 536.002 147.68C590.913 225.487 561.542 374.088 478.538 383.654C372.654 401.193 140.775 430.53 60.3243 407.571C-40.2385 378.871 2.85982 287.989 60.3243 259.289C117.789 230.59 136.944 184.351 196.004 59.9862Z" fill="#FF5252" fill-opacity="0.36"/>
<path d="M279.038 421C297.644 421 312.726 417.168 312.726 412.441C312.726 407.714 297.644 403.882 279.038 403.882C260.433 403.882 245.35 407.714 245.35 412.441C245.35 417.168 260.433 421 279.038 421Z" fill="#F2F2F2"/>
<path d="M281.552 326.346C300.158 326.346 315.24 322.513 315.24 317.786C315.24 313.059 300.158 309.227 281.552 309.227C262.947 309.227 247.864 313.059 247.864 317.786C247.864 322.513 262.947 326.346 281.552 326.346Z" fill="#F2F2F2"/>
<path d="M126.688 330.373C145.293 330.373 160.376 326.541 160.376 321.814C160.376 317.087 145.293 313.255 126.688 313.255C108.083 313.255 93 317.087 93 321.814C93 326.541 108.083 330.373 126.688 330.373Z" fill="#F2F2F2"/>
<path d="M296.948 65.0139H104.373V72.3144H296.948V65.0139Z" fill="#F5F5F5"/>
<path d="M299.965 63H100.854V307.692H299.965V63Z" fill="url(#paint0_linear)"/>
<path d="M296.948 72.3144H104.373V303.664H296.948V72.3144Z" fill="white"/>
<path d="M108.336 70.5522C109.307 70.5522 110.095 69.7633 110.095 68.79C110.095 67.8168 109.307 67.0278 108.336 67.0278C107.364 67.0278 106.576 67.8168 106.576 68.79C106.576 69.7633 107.364 70.5522 108.336 70.5522Z" fill="#FF5252"/>
<path d="M113.173 70.5522C114.144 70.5522 114.932 69.7633 114.932 68.79C114.932 67.8168 114.144 67.0278 113.173 67.0278C112.201 67.0278 111.413 67.8168 111.413 68.79C111.413 69.7633 112.201 70.5522 113.173 70.5522Z" fill="#FFFF00"/>
<path d="M118.015 70.5522C118.987 70.5522 119.774 69.7633 119.774 68.79C119.774 67.8168 118.987 67.0278 118.015 67.0278C117.043 67.0278 116.255 67.8168 116.255 68.79C116.255 69.7633 117.043 70.5522 118.015 70.5522Z" fill="#69F0AE"/>
<g opacity="0.2">
<path opacity="0.2" d="M184.822 81.1253H109.904V85.6566H184.822V81.1253Z" fill="#F9A826"/>
</g>
<path d="M238.12 99.7541H163.202V104.285H238.12V99.7541Z" fill="#F5F5F5"/>
<path opacity="0.5" d="M184.822 245.764H109.904V250.295H184.822V245.764Z" fill="#F9A826"/>
<path d="M220.019 245.26H194.879V250.798H220.019V245.26Z" fill="url(#paint1_linear)"/>
<path d="M220.019 273.455H194.879V278.993H220.019V273.455Z" fill="url(#paint2_linear)"/>
<path d="M271.305 273.455H246.165V278.993H271.305V273.455Z" fill="url(#paint3_linear)"/>
<path d="M219.516 245.764H195.884V250.295H219.516V245.764Z" fill="#F9A826"/>
<path d="M219.516 273.958H195.884V278.49H219.516V273.958Z" fill="#F9A826"/>
<path d="M270.299 273.958H246.668V278.49H270.299V273.958Z" fill="#F9A826"/>
<path d="M184.822 259.861H109.904V264.392H184.822V259.861Z" fill="#F5F5F5"/>
<path opacity="0.5" d="M270.802 259.861H195.884V264.392H270.802V259.861Z" fill="#F9A826"/>
<path d="M270.802 288.056H195.884V292.587H270.802V288.056Z" fill="#F5F5F5"/>
<path opacity="0.5" d="M184.822 273.958H109.904V278.49H184.822V273.958Z" fill="#F9A826"/>
<path d="M184.822 288.056H109.904V292.587H184.822V288.056Z" fill="#F5F5F5"/>
<path d="M205.437 107.306H163.202V111.838H205.437V107.306Z" fill="#F5F5F5"/>
<path d="M227.561 107.306H212.98V111.838H227.561V107.306Z" fill="#F5F5F5"/>
<path d="M205.437 122.411H163.202V126.942H205.437V122.411Z" fill="#F5F5F5"/>
<path d="M227.561 122.411H212.98V126.942H227.561V122.411Z" fill="#F5F5F5"/>
<path d="M238.12 114.859H163.202V119.39H238.12V114.859Z" fill="#F5F5F5"/>
<g opacity="0.2">
<path opacity="0.2" d="M290.412 81.1253H215.494V85.6566H290.412V81.1253Z" fill="#F9A826"/>
</g>
<path d="M266.78 99.2506H257.729V104.789H266.78V99.2506Z" fill="url(#paint4_linear)"/>
<path d="M266.78 106.803H257.729V112.341H266.78V106.803Z" fill="url(#paint5_linear)"/>
<path d="M266.78 114.355H257.729V119.893H266.78V114.355Z" fill="url(#paint6_linear)"/>
<path d="M266.277 99.7541H258.232V104.285H266.277V99.7541Z" fill="#FF5252"/>
<path d="M266.277 107.306H258.232V111.838H266.277V107.306Z" fill="#FF9800"/>
<path d="M266.277 114.859H258.232V119.39H266.277V114.859Z" fill="#69F0AE"/>
<path d="M266.78 121.907H257.729V127.446H266.78V121.907Z" fill="url(#paint7_linear)"/>
<path d="M266.277 122.411H258.232V126.942H266.277V122.411Z" fill="#F9A826"/>
<path d="M292.926 154.634H108.396V230.156H292.926V154.634Z" fill="url(#paint8_linear)"/>
<path opacity="0.5" d="M290.412 156.144H109.904V227.638H290.412V156.144Z" fill="#F9A826"/>
<path opacity="0.5" d="M115.435 161.682H290.412V156.144H109.904V227.638H115.435V161.682Z" fill="white"/>
<path d="M294.603 149.889L109.33 166.773L116.257 242.987L301.529 226.103L294.603 149.889Z" fill="url(#paint9_linear)"/>
<path d="M292.279 152.117L112.515 168.499L118.986 239.699L298.75 223.317L292.279 152.117Z" fill="white"/>
<path opacity="0.5" d="M125.934 226.928L122.816 187.269C122.816 187.269 138.906 170.151 171.387 182.838C203.869 195.526 219.184 186.569 224.464 178C229.743 169.431 257.146 159.875 266.026 174.209C274.905 188.543 285.555 172.427 285.555 172.427L289.155 212.035L125.934 226.928Z" fill="#F9A826"/>
<path d="M142.29 178.629L142.562 181.64" stroke="#F9A826" stroke-miterlimit="10"/>
<path d="M143.09 187.41L145.976 219.16" stroke="#F9A826" stroke-miterlimit="10" stroke-dasharray="11.51 11.51"/>
<path d="M146.237 222.045L146.514 225.05" stroke="#F9A826" stroke-miterlimit="10"/>
<path d="M173.208 183.543L173.484 186.549" stroke="#F9A826" stroke-miterlimit="10"/>
<path d="M174.077 193.099L176.164 216.013" stroke="#F9A826" stroke-miterlimit="10" stroke-dasharray="13.06 13.06"/>
<path d="M176.461 219.285L176.732 222.296" stroke="#F9A826" stroke-miterlimit="10"/>
<path d="M204.754 188.921L205.055 191.926" stroke="#F9A826" stroke-miterlimit="10"/>
<path d="M205.543 196.835L207.243 214.004" stroke="#F9A826" stroke-miterlimit="10" stroke-dasharray="9.79 9.79"/>
<path d="M207.489 216.456L207.786 219.467" stroke="#F9A826" stroke-miterlimit="10"/>
<path d="M233.107 171.168L233.378 174.179" stroke="#F9A826" stroke-miterlimit="10"/>
<path d="M233.891 179.833L236.722 210.943" stroke="#F9A826" stroke-miterlimit="10" stroke-dasharray="11.28 11.28"/>
<path d="M236.978 213.767L237.255 216.778" stroke="#F9A826" stroke-miterlimit="10"/>
<path d="M253.571 167.014L253.843 170.02" stroke="#F9A826" stroke-miterlimit="10"/>
<path d="M254.386 176.001L257.377 208.894" stroke="#F9A826" stroke-miterlimit="10" stroke-dasharray="11.93 11.93"/>
<path d="M257.649 211.884L257.925 214.89" stroke="#F9A826" stroke-miterlimit="10"/>
<path d="M142.423 180.943C143.806 180.817 144.825 179.592 144.699 178.208C144.573 176.823 143.35 175.803 141.968 175.929C140.585 176.055 139.566 177.279 139.692 178.664C139.818 180.049 141.041 181.069 142.423 180.943Z" fill="#FF9800"/>
<path d="M173.195 186.229C174.578 186.103 175.597 184.879 175.471 183.494C175.345 182.11 174.122 181.089 172.739 181.215C171.356 181.341 170.338 182.566 170.463 183.951C170.589 185.335 171.812 186.356 173.195 186.229Z" fill="#FF5252"/>
<path d="M204.974 191.42C206.357 191.294 207.376 190.07 207.25 188.685C207.124 187.3 205.901 186.28 204.519 186.406C203.136 186.532 202.117 187.757 202.243 189.141C202.369 190.526 203.592 191.546 204.974 191.42Z" fill="#69F0AE"/>
<path d="M233.241 174.688C235.177 174.512 236.603 172.798 236.427 170.859C236.251 168.921 234.539 167.492 232.603 167.669C230.667 167.845 229.241 169.559 229.417 171.498C229.593 173.436 231.305 174.865 233.241 174.688Z" fill="url(#paint10_linear)"/>
<path d="M254.089 170.768C256.025 170.592 257.451 168.878 257.275 166.939C257.099 165.001 255.387 163.572 253.451 163.749C251.515 163.925 250.089 165.64 250.265 167.578C250.441 169.516 252.153 170.945 254.089 170.768Z" fill="url(#paint11_linear)"/>
<path d="M233.15 173.686C234.533 173.56 235.551 172.335 235.426 170.95C235.3 169.566 234.077 168.545 232.694 168.671C231.311 168.797 230.292 170.022 230.418 171.407C230.544 172.791 231.767 173.812 233.15 173.686Z" fill="#F9A826"/>
<path d="M253.998 169.766C255.381 169.64 256.4 168.415 256.274 167.03C256.148 165.646 254.925 164.626 253.542 164.752C252.159 164.878 251.14 166.102 251.266 167.487C251.392 168.871 252.615 169.892 253.998 169.766Z" fill="#F9A826"/>
<path d="M285.863 175.961C287.245 175.835 288.264 174.61 288.138 173.226C288.013 171.841 286.79 170.821 285.407 170.947C284.024 171.073 283.005 172.298 283.131 173.682C283.257 175.067 284.48 176.087 285.863 175.961Z" fill="#69F0AE"/>
<g opacity="0.2">
<path opacity="0.2" d="M290.733 223.469L290.769 223.586C291.157 223.368 290.733 223.469 290.733 223.469Z" fill="url(#paint12_linear)"/>
</g>
<g opacity="0.2">
<path opacity="0.2" d="M286.57 308.044L294.756 306.72L293.63 301.685V301.615H293.599L287.797 274.93V255.471C287.796 255.223 287.783 254.976 287.757 254.731C296.425 243.221 291.276 225.161 290.774 223.585C290.683 223.631 290.547 223.691 290.356 223.766C290.294 223.062 290.16 222.365 289.959 221.687C289.959 221.687 287.445 220.086 286.072 222.145C284.876 223.943 285.766 225.04 286.012 225.297L285.841 225.352C286.226 225.959 286.496 226.631 286.636 227.336C286.556 227.163 286.465 226.994 286.364 226.833C286.047 226.777 285.861 226.727 285.861 226.727L285.801 226.672L285.63 226.727C286.5 228.001 286.807 230.251 286.766 232.92C286.466 232.503 286.129 232.114 285.761 231.757C284.171 230.236 282.075 229.361 279.878 229.3H279.461C279.233 229.3 279.005 229.315 278.777 229.345H278.606L278.319 229.385L277.992 229.446L277.756 229.496L277.349 229.607L277.198 229.652C277.027 229.708 276.861 229.763 276.695 229.828C276.144 230.097 275.566 230.306 274.97 230.453C274.89 230.453 274.81 230.453 274.724 230.478C274.052 230.525 273.385 230.334 272.839 229.939L272.658 229.798C272.589 229.739 272.524 229.677 272.461 229.612C272.393 229.786 272.364 229.974 272.376 230.161C272.414 230.604 272.625 231.015 272.964 231.304C273.059 231.386 273.164 231.457 273.276 231.515C273.441 231.602 273.623 231.653 273.809 231.666H274H273.955C273.839 231.721 273.724 231.772 273.603 231.817H273.578C273.447 231.862 273.321 231.903 273.185 231.938C272.527 232.105 271.838 232.115 271.174 231.968L270.958 231.918C270.852 231.888 270.742 231.857 270.641 231.822C270.674 231.898 270.711 231.972 270.752 232.044L270.792 232.109L270.883 232.25L270.938 232.321L271.039 232.446L271.099 232.512L271.225 232.638L271.275 232.683L271.461 232.839L271.526 232.884L271.662 232.98L271.753 233.036L271.873 233.106L271.974 233.156L272.099 233.212L272.205 233.257L272.346 233.307L272.522 233.358L272.653 233.393H272.778H272.894H273.025H273.527C273.787 233.37 274.041 233.308 274.282 233.207L273.819 233.398L273.588 233.479L273.351 233.564L273.115 233.635L272.874 233.705L272.637 233.766L272.386 233.826L272.155 233.871L271.888 233.917L271.667 233.952L271.38 233.987H271.174H270.847H270.676H270.174C270.452 234.068 270.71 234.205 270.933 234.39C271.077 234.494 271.234 234.579 271.401 234.642C271.475 234.663 271.55 234.68 271.627 234.692H271.692H271.853H272.532H272.753C273.212 234.738 273.655 234.881 274.055 235.11C274.267 235.246 274.456 235.416 274.613 235.613C274.543 235.729 274.473 235.84 274.412 235.961C274.352 236.082 274.307 236.162 274.256 236.268C274.156 236.476 274.067 236.689 273.99 236.907C273.704 237.689 273.557 238.516 273.558 239.349C273.558 239.505 273.558 239.656 273.558 239.807C273.558 239.848 273.558 239.893 273.558 239.933C273.558 240.054 273.571 240.175 273.598 240.296V240.391C273.618 240.539 273.645 240.685 273.678 240.829V240.915C273.705 241.036 273.735 241.155 273.769 241.272L273.799 241.378C273.883 241.663 273.986 241.942 274.106 242.214L274.141 242.295C274.198 242.419 274.256 242.54 274.317 242.657V242.692C274.391 242.827 274.468 242.959 274.548 243.09V243.12C274.622 243.241 274.701 243.359 274.784 243.473L274.815 243.513C274.995 243.762 275.192 243.999 275.403 244.223V244.223C275.951 244.801 276.591 245.282 277.298 245.648C277.274 245.756 277.256 245.865 277.243 245.975V245.975C277.237 246.089 277.237 246.203 277.243 246.317V248.976C277.092 249.056 276.945 249.142 276.801 249.232C270.501 246.368 261.118 226.072 261.118 226.072H260.892C261.807 225.388 260.892 222.407 260.892 222.407C260.355 222.086 259.754 221.887 259.132 221.823H258.629H258.539H258.473H258.383H258.323L258.222 221.853H258.172L258.021 221.909L257.88 221.974L257.83 221.999L257.734 222.055L257.669 222.362L257.578 222.422L257.523 222.467L257.438 222.538L257.382 222.588L257.297 222.669L257.247 222.724L257.161 222.825L257.121 222.875L256.995 223.046C255.622 225.106 256.995 226.254 256.995 226.254C256.907 227.048 256.865 227.846 256.869 228.645C256.769 243.478 272.622 254.972 273.432 255.546C273.075 256.473 270.128 264.679 273.467 274.925C273.477 274.95 273.491 274.974 273.507 274.996C269.706 278.503 266.884 282.944 265.322 287.878C263.759 292.813 263.51 298.07 264.598 303.13L264.663 303.437H264.809C264.794 303.505 264.775 303.572 264.753 303.639C264.715 303.76 264.666 303.878 264.608 303.991C264.507 304.185 264.384 304.366 264.241 304.53V304.53C264.085 304.711 263.904 304.892 263.713 305.079L263.512 305.27C262.712 306.035 261.903 306.78 262.506 307.082H271.159V303.301H271.31C271.31 303.301 271.25 303.185 271.159 302.959V302.919H271.129C270.676 301.751 269.621 298.136 271.31 292.567C273.367 285.695 281.366 282.261 281.366 282.261L281.512 282.764H281.482L287.757 303.407C287.757 303.488 287.757 303.568 287.732 303.654C287.703 303.849 287.658 304.041 287.596 304.228C287.548 304.372 287.491 304.513 287.425 304.651C287.038 305.451 286.369 306.393 286.077 307.098C286.036 307.194 286 307.293 285.972 307.395C285.937 307.509 285.925 307.628 285.937 307.747C285.945 307.823 285.975 307.894 286.022 307.954C286.069 308.013 286.132 308.059 286.203 308.084V308.084H286.319L286.56 308.044H286.57ZM284.147 249.273C283.989 249.186 283.822 249.103 283.644 249.026V246.529C283.643 246.338 283.624 246.147 283.589 245.96C284.13 245.701 284.637 245.375 285.097 244.988C284.795 246.529 284.458 248.004 284.152 249.273H284.147Z" fill="url(#paint13_linear)"/>
</g>
<path d="M256.854 228.449C256.854 228.449 255.346 227.18 256.854 224.894C258.363 222.608 261.163 224.391 261.163 224.391C261.163 224.391 262.169 227.689 261.163 228.449C260.158 229.209 256.854 228.449 256.854 228.449Z" fill="#CA7070"/>
<path d="M272.522 313.366H265.538C265.564 313.695 265.518 314.026 265.404 314.337C265.291 314.647 265.112 314.929 264.879 315.163C263.939 316.251 262.048 317.565 262.938 318.013H272.522V313.366Z" fill="#00695C"/>
<path opacity="0.2" d="M265.387 315.163C265.619 314.929 265.799 314.647 265.912 314.337C266.026 314.026 266.072 313.695 266.046 313.366H265.543C265.569 313.695 265.523 314.026 265.41 314.337C265.296 314.647 265.117 314.929 264.884 315.163C263.944 316.251 262.053 317.565 262.943 318.013H263.446C262.556 317.565 264.447 316.256 265.387 315.163Z" fill="white"/>
<path d="M297.391 311.926L290.854 312.988C291.035 313.768 290.929 314.586 290.557 315.294C289.843 316.805 288.239 318.688 289.205 319.095L298.668 317.585L297.391 311.926Z" fill="#00695C"/>
<path d="M294.203 225.352C294.203 225.352 301.679 248.971 289.14 262.046L285.519 259.272C285.519 259.272 292.931 233.494 288.782 227.442C296.103 225 294.203 225.352 294.203 225.352Z" fill="#00695C"/>
<path d="M289.034 227.437C289.034 227.437 287.526 226.168 289.034 223.882C290.542 221.596 293.343 223.379 293.343 223.379C293.343 223.379 294.349 226.677 293.343 227.437C292.337 228.197 289.034 227.437 289.034 227.437Z" fill="#CA7070"/>
<path opacity="0.2" d="M291.06 315.299C291.434 314.59 291.539 313.769 291.357 312.988L297.391 311.981V311.901L290.854 312.988C291.035 313.768 290.929 314.586 290.557 315.294C289.843 316.805 288.239 318.688 289.205 319.095L289.602 319.03C288.883 318.527 290.376 316.719 291.06 315.299Z" fill="white"/>
<path d="M286.374 250.909C286.374 248.946 284.786 247.355 282.827 247.355C280.868 247.355 279.28 248.946 279.28 250.909V254.328C279.28 256.291 280.868 257.882 282.827 257.882C284.786 257.882 286.374 256.291 286.374 254.328V250.909Z" fill="#CA7070"/>
<path opacity="0.2" d="M286.027 260.792C286.027 260.792 293.348 235.331 289.361 229.073C289.009 229.008 288.783 228.957 288.783 228.957L288.717 228.897L288.531 228.957C292.679 234.999 285.268 260.787 285.268 260.787L288.888 263.562L289.205 263.219L286.027 260.792Z" fill="white"/>
<path d="M282.955 251.035C287.293 251.035 290.809 247.514 290.809 243.171C290.809 238.827 287.293 235.306 282.955 235.306C278.617 235.306 275.101 238.827 275.101 243.171C275.101 247.514 278.617 251.035 282.955 251.035Z" fill="#CA7070"/>
<path opacity="0.2" d="M280.164 254.333V250.909C280.165 250.659 280.192 250.409 280.245 250.164C278.711 249.375 277.479 248.103 276.739 246.543C275.999 244.984 275.792 243.224 276.15 241.535C276.508 239.846 277.411 238.322 278.72 237.198C280.029 236.075 281.671 235.413 283.392 235.316H282.95C281.188 235.316 279.478 235.908 278.093 236.999C276.708 238.089 275.729 239.614 275.315 241.329C274.9 243.043 275.073 244.848 275.805 246.452C276.538 248.056 277.788 249.367 279.355 250.174C279.302 250.419 279.275 250.669 279.274 250.919V254.343C279.27 254.848 279.374 255.349 279.58 255.811C279.785 256.272 280.088 256.684 280.466 257.018C280.845 257.353 281.291 257.602 281.774 257.748C282.258 257.894 282.766 257.935 283.267 257.867C282.409 257.756 281.621 257.336 281.05 256.685C280.48 256.035 280.165 255.199 280.164 254.333V254.333Z" fill="white"/>
<path d="M290.934 282.367C290.934 282.367 275.785 284.078 275.227 282.367C271.3 270.313 275.227 260.802 275.227 260.802C275.227 258.717 276.054 256.716 277.527 255.242C279 253.767 280.998 252.938 283.081 252.938V252.938C285.164 252.938 287.161 253.767 288.634 255.242C290.107 256.716 290.934 258.717 290.934 260.802V282.367Z" fill="#00695C"/>
<path d="M290.935 282.367L297.778 313.829H290.935L283.84 290.488C283.84 290.488 274.97 294.294 272.693 301.907C270.415 309.519 272.693 313.829 272.693 313.829H265.342L265.266 313.487C264.057 307.881 264.34 302.055 266.087 296.593C267.835 291.132 270.985 286.225 275.222 282.367" fill="#263238"/>
<path opacity="0.2" d="M276.112 282.367C272.185 270.313 276.112 260.802 276.112 260.802C276.111 258.805 276.871 256.881 278.235 255.423C279.599 253.966 281.467 253.082 283.458 252.953C283.292 252.953 283.121 252.953 282.955 252.953C280.872 252.953 278.874 253.782 277.402 255.257C275.929 256.732 275.101 258.732 275.101 260.818C275.101 260.818 271.174 270.333 275.101 282.382C275.302 282.996 277.374 283.167 279.948 283.142C277.857 283.097 276.273 282.895 276.112 282.367Z" fill="white"/>
<path d="M275.101 260.672C275.101 260.672 254.833 246.463 256.859 228.449H261.42C261.42 228.449 272.311 252.067 279.29 254.333C286.268 256.598 275.101 260.672 275.101 260.672Z" fill="#00695C"/>
<g opacity="0.2">
<path opacity="0.2" d="M283.971 291.042L290.935 313.955H291.94L284.846 290.614C284.846 290.614 284.519 290.755 283.971 291.042Z" fill="white"/>
<path opacity="0.2" d="M276.238 282.492H275.232C270.995 286.351 267.845 291.257 266.098 296.719C264.35 302.181 264.067 308.007 265.276 313.613L265.352 313.955H266.357L266.282 313.613C265.073 308.007 265.356 302.181 267.103 296.719C268.85 291.257 272 286.351 276.238 282.492V282.492Z" fill="white"/>
</g>
<path opacity="0.2" d="M257.619 228.706H256.859C254.848 246.72 275.101 260.928 275.101 260.928L275.604 260.737C273.256 259 255.723 245.522 257.619 228.706Z" fill="white"/>
<path d="M276.69 239.656C277.128 240.669 277.435 241.733 277.605 242.823C278.108 245.028 279.244 247.229 281.2 248.361C282.284 248.95 283.488 249.279 284.72 249.323C286.59 249.439 288.617 249.076 289.939 247.747C290.763 246.847 291.315 245.731 291.533 244.53C291.929 242.755 291.874 240.909 291.374 239.161C290.874 237.413 289.945 235.817 288.672 234.521C287.364 233.256 285.727 232.387 283.948 232.014C282.168 231.641 280.32 231.779 278.616 232.411C278.007 232.71 277.368 232.942 276.71 233.106C276.206 233.187 275.691 233.145 275.207 232.984C274.723 232.822 274.285 232.546 273.93 232.18C273.848 232.444 273.83 232.724 273.877 232.996C273.924 233.269 274.034 233.527 274.199 233.749C274.365 233.97 274.58 234.15 274.827 234.273C275.075 234.396 275.348 234.458 275.624 234.455C275.043 234.735 274.412 234.896 273.769 234.931C273.125 234.965 272.481 234.872 271.873 234.657C272.218 235.383 272.824 235.953 273.57 236.25C274.316 236.548 275.146 236.553 275.896 236.263C274.472 236.897 272.928 237.213 271.37 237.189C271.697 237.189 272.336 237.793 272.733 237.914C273.232 237.994 273.736 238.029 274.241 238.02C274.758 238.052 275.256 238.22 275.686 238.507C276.116 238.795 276.463 239.191 276.69 239.656V239.656Z" fill="#263238"/>
<g opacity="0.2">
<path opacity="0.2" d="M275.644 234.445C275.062 234.728 274.43 234.89 273.784 234.924C274.601 234.966 275.415 234.801 276.152 234.445C275.906 234.447 275.663 234.397 275.437 234.299C275.211 234.202 275.008 234.058 274.841 233.878C274.674 233.697 274.546 233.484 274.465 233.252C274.384 233.019 274.353 232.772 274.372 232.527C274.221 232.421 274.079 232.302 273.95 232.17C273.868 232.434 273.85 232.714 273.897 232.986C273.944 233.259 274.054 233.517 274.22 233.739C274.385 233.96 274.6 234.14 274.847 234.263C275.095 234.386 275.368 234.448 275.644 234.445Z" fill="white"/>
<path opacity="0.2" d="M277.233 233.111C277.891 232.947 278.53 232.715 279.139 232.416C280.1 232.036 281.122 231.83 282.156 231.807C280.953 231.768 279.755 231.975 278.636 232.416C278.027 232.715 277.388 232.947 276.73 233.111C276.64 233.111 276.549 233.111 276.459 233.141C276.717 233.165 276.977 233.154 277.233 233.111V233.111Z" fill="white"/>
<path opacity="0.2" d="M273.216 237.919C272.818 237.803 272.18 237.204 271.853 237.194C273.411 237.218 274.955 236.902 276.378 236.268C276.059 236.4 275.718 236.471 275.373 236.479C274.09 236.974 272.724 237.216 271.35 237.194C271.677 237.194 272.316 237.798 272.713 237.919C273.058 238.003 273.414 238.032 273.769 238.005C273.581 238 273.396 237.971 273.216 237.919Z" fill="white"/>
<path opacity="0.2" d="M285.238 249.328C284.006 249.284 282.801 248.955 281.718 248.367C279.762 247.224 278.646 245.023 278.123 242.828C277.953 241.738 277.646 240.674 277.208 239.661C276.977 239.194 276.625 238.797 276.189 238.511C275.753 238.225 275.249 238.061 274.729 238.035C274.478 238.016 274.226 238.016 273.975 238.035H274.221C274.742 238.061 275.246 238.225 275.681 238.511C276.117 238.797 276.469 239.194 276.7 239.661C277.138 240.674 277.445 241.738 277.615 242.828C278.118 245.033 279.254 247.234 281.21 248.367C282.294 248.955 283.498 249.284 284.73 249.328C285.022 249.328 285.313 249.328 285.61 249.328H285.238Z" fill="white"/>
<path opacity="0.2" d="M275.056 236.459C274.524 236.421 274.01 236.25 273.56 235.963C273.111 235.675 272.74 235.28 272.482 234.813C272.282 234.77 272.086 234.715 271.893 234.647C272.175 235.234 272.628 235.723 273.193 236.046C273.757 236.37 274.407 236.514 275.056 236.459V236.459Z" fill="white"/>
</g>
<path opacity="0.2" d="M257.362 228.449C257.362 228.449 255.854 227.18 257.362 224.894C257.563 224.567 257.837 224.292 258.164 224.092C258.491 223.891 258.861 223.771 259.243 223.741C258.777 223.686 258.305 223.766 257.883 223.97C257.461 224.174 257.106 224.495 256.859 224.894C255.351 227.18 256.859 228.449 256.859 228.449C257.838 228.668 258.838 228.78 259.841 228.781C259.007 228.74 258.178 228.628 257.362 228.449V228.449Z" fill="white"/>
<g opacity="0.2">
<path opacity="0.2" d="M111.589 228.57L111.629 228.434C111.629 228.434 111.116 228.333 111.589 228.57Z" fill="url(#paint14_linear)"/>
</g>
<g opacity="0.2">
<path opacity="0.2" d="M158.968 237.008C158.92 236.848 158.859 236.691 158.787 236.54C158.787 236.489 158.737 236.449 158.712 236.404C158.666 236.314 158.616 236.227 158.561 236.142L158.46 236.011C158.408 235.943 158.353 235.877 158.294 235.815L158.179 235.699C158.118 235.644 158.058 235.593 157.998 235.548L157.872 235.457L157.671 235.336L157.545 235.271L157.319 235.175L157.203 235.13C157.096 235.093 156.987 235.063 156.876 235.039C156.145 234.901 155.392 234.921 154.669 235.1C154.669 235.1 152.562 238.211 153.372 239.329L153.105 239.248C153.105 239.248 137.453 256.739 128.624 259.987C128.399 259.832 128.166 259.688 127.925 259.554V256.281C127.932 256.144 127.932 256.006 127.925 255.868V255.868C127.91 255.738 127.888 255.609 127.86 255.481L127.925 255.445L128.186 255.299L128.563 255.068L128.805 254.912C128.986 254.788 129.153 254.657 129.308 254.519L129.504 254.348C129.624 254.247 129.74 254.141 129.851 254.031L130.052 253.834C130.193 253.69 130.327 253.542 130.454 253.391L130.595 253.22C130.715 253.069 130.831 252.915 130.942 252.757L131.083 252.545C131.183 252.391 131.279 252.233 131.369 252.072L131.46 251.916C131.57 251.71 131.676 251.493 131.766 251.272L131.847 251.075C131.917 250.897 131.983 250.718 132.043 250.537C132.043 250.471 132.088 250.411 132.103 250.345C132.174 250.109 132.239 249.872 132.289 249.625C132.289 249.575 132.289 249.53 132.314 249.479C132.355 249.274 132.386 249.066 132.41 248.855C132.41 248.784 132.41 248.714 132.41 248.643C132.41 248.387 132.45 248.14 132.45 247.863C132.45 245.904 131.78 244.004 130.55 242.481C131.218 241.434 131.656 240.814 131.656 240.814C131.253 240.537 130.856 240.286 130.464 240.039L130.082 239.812C129.82 239.656 129.579 239.5 129.298 239.359L128.86 239.128C128.624 239.002 128.393 238.881 128.161 238.77L127.714 238.564L127.045 238.272L126.608 238.096C126.386 238.01 126.165 237.929 125.949 237.854L125.537 237.713C125.31 237.642 125.084 237.577 124.863 237.517L124.496 237.416C124.244 237.355 123.993 237.305 123.747 237.255L123.48 237.199C123.143 237.139 122.811 237.094 122.474 237.063C120.417 236.843 118.338 237.162 116.441 237.99C116.541 235.583 116.944 233.599 117.788 232.371L117.582 232.3L117.512 232.371C117.512 232.371 117.265 232.426 116.878 232.497C116.756 232.692 116.647 232.896 116.551 233.106C116.72 232.254 117.046 231.442 117.512 230.709L117.306 230.639C117.602 230.332 118.678 229.008 117.235 226.838C115.576 224.35 112.539 226.284 112.539 226.284C112.298 227.105 112.14 227.948 112.066 228.801C111.835 228.706 111.669 228.635 111.564 228.58C110.109 233.721 109.316 239.027 109.205 244.369C103.73 252.153 101.467 263.642 101.025 266.119L100.99 266.316C100.959 266.497 100.944 266.593 100.944 266.593L115.179 266.925C115.179 266.975 115.179 267.02 115.179 267.071V289.642L104.816 311.589C104.816 311.589 108.758 311.714 114.691 312.475L113.052 324.211L112.504 327.504H122.369C123.465 325.308 117.984 324.211 117.984 324.211H117.864L120.001 313.26C120.946 313.418 121.918 313.586 122.917 313.764C124.381 314.047 125.866 314.216 127.357 314.267C128.591 314.31 129.827 314.256 131.052 314.106C131.776 320.042 130.826 323.587 130.645 324.176H130.59L130.042 327.468H139.907C140.862 325.555 136.82 324.473 135.769 324.231L135.814 323.909C136.321 320.206 136.451 316.461 136.201 312.732C137.474 312.215 138.661 311.507 139.721 310.632V310.632L139.856 310.511L139.897 310.471L132.551 289.828C133.923 283.988 129.147 277.855 131.696 274.789C134.245 271.723 132.702 267.811 132.4 267.141C139.298 264.12 153.241 256.568 157.153 243.478C157.44 242.557 157.674 241.621 157.852 240.673C157.852 240.673 159.823 239.873 158.968 237.008Z" fill="url(#paint15_linear)"/>
</g>
<path d="M113.152 232.401C113.152 232.401 105.676 256.019 118.216 269.095L121.836 266.321C121.836 266.321 114.425 240.542 118.573 234.491C111.252 232.049 113.152 232.401 113.152 232.401Z" fill="#FF5252"/>
<path d="M118.321 234.486C118.321 234.486 119.83 233.217 118.321 230.931C116.813 228.645 114.012 230.427 114.012 230.427C114.012 230.427 113.007 233.725 114.012 234.486C115.018 235.246 118.321 234.486 118.321 234.486Z" fill="#F6B9AD"/>
<path d="M120.981 261.376C120.981 263.34 122.569 264.931 124.528 264.931C126.488 264.931 128.076 263.34 128.076 261.376V257.958C128.076 255.995 126.488 254.403 124.528 254.403C122.569 254.403 120.981 255.995 120.981 257.958V261.376Z" fill="#F6B9AD"/>
<path opacity="0.2" d="M121.328 267.841C121.328 267.841 114.007 242.38 117.994 236.122C118.346 236.056 118.573 236.006 118.573 236.006L118.638 235.946L118.824 236.006C114.676 242.048 122.087 267.836 122.087 267.836L118.467 270.61L118.15 270.268L121.328 267.841Z" fill="white"/>
<path d="M124.4 258.084C128.738 258.084 132.254 254.563 132.254 250.219C132.254 245.876 128.738 242.355 124.4 242.355C120.063 242.355 116.546 245.876 116.546 250.219C116.546 254.563 120.063 258.084 124.4 258.084Z" fill="#F6B9AD"/>
<path opacity="0.2" d="M127.191 261.381V257.958C127.19 257.707 127.164 257.457 127.11 257.213C128.644 256.424 129.876 255.152 130.616 253.592C131.356 252.033 131.563 250.273 131.205 248.584C130.847 246.895 129.944 245.371 128.635 244.247C127.326 243.123 125.684 242.462 123.963 242.365H124.405C126.167 242.364 127.878 242.957 129.263 244.048C130.647 245.138 131.626 246.663 132.041 248.378C132.456 250.092 132.283 251.896 131.55 253.501C130.817 255.105 129.567 256.416 128 257.223C128.053 257.468 128.08 257.717 128.081 257.968V261.392C128.085 261.897 127.981 262.398 127.776 262.859C127.57 263.321 127.267 263.733 126.889 264.067C126.51 264.401 126.064 264.65 125.581 264.797C125.098 264.943 124.589 264.984 124.088 264.916C124.946 264.805 125.734 264.385 126.305 263.734C126.876 263.084 127.191 262.247 127.191 261.381V261.381Z" fill="white"/>
<path d="M116.421 289.415C116.421 289.415 131.57 291.127 132.128 289.415C133.938 283.877 129.112 277.891 131.525 274.965C134.039 271.944 132.128 267.851 132.128 267.851C132.128 265.765 131.301 263.765 129.828 262.29C128.355 260.815 126.357 259.987 124.275 259.987C122.192 259.987 120.194 260.815 118.721 262.29C117.248 263.765 116.421 265.765 116.421 267.851V289.415Z" fill="#FF5252"/>
<path opacity="0.2" d="M131.545 274.965C134.059 271.944 132.148 267.851 132.148 267.851C132.148 265.765 131.321 263.765 129.848 262.29C128.375 260.815 126.378 259.987 124.295 259.987C124.124 259.987 123.958 259.987 123.792 260.012C125.783 260.139 127.65 261.02 129.016 262.476C130.381 263.932 131.142 265.854 131.143 267.851C131.143 267.851 133.054 271.944 130.539 274.965C128.106 277.891 132.953 283.872 131.143 289.415C130.972 289.944 129.408 290.145 127.332 290.176C129.891 290.201 131.952 290.03 132.148 289.415C133.979 283.867 129.112 277.891 131.545 274.965Z" fill="white"/>
<path d="M128.915 288.912C134.446 296.761 136.895 308.623 135.311 320.032L135.266 320.374H130.544C130.544 320.374 132.008 316.06 130.544 308.452C129.648 303.891 127.097 299.824 123.385 297.033L118.829 320.374H114.435L118.829 288.912H128.915Z" fill="#F6B9AD"/>
<path d="M155.544 243.664C155.544 243.664 157.369 242.899 156.585 240.266C155.8 237.632 152.613 238.518 152.613 238.518C152.613 238.518 150.677 241.373 151.426 242.4C152.175 243.427 155.544 243.664 155.544 243.664Z" fill="#F6B9AD"/>
<path d="M128.669 269.12C128.669 269.12 152.205 261.482 155.539 243.664L151.18 242.325C151.18 242.325 133.858 261.689 126.542 261.825C119.226 261.96 128.669 269.12 128.669 269.12Z" fill="#FF5252"/>
<path opacity="0.2" d="M154.74 243.684L155.469 243.906C152.135 261.724 128.599 269.362 128.599 269.362L128.181 269.034C130.962 268.068 151.632 260.304 154.74 243.684Z" fill="white"/>
<g opacity="0.2">
<path opacity="0.2" d="M122.374 297.033L117.819 320.374H118.824L123.249 297.718C122.969 297.475 122.677 297.246 122.374 297.033V297.033Z" fill="white"/>
<path opacity="0.2" d="M128.915 288.912H127.91C133.441 296.761 135.889 308.623 134.306 320.032L134.26 320.374H135.266L135.311 320.032C136.895 308.623 134.456 296.761 128.915 288.912Z" fill="white"/>
</g>
<path opacity="0.2" d="M155.056 243.508C155.056 243.508 156.881 242.743 156.097 240.109C156.002 239.738 155.82 239.394 155.567 239.106C155.313 238.818 154.995 238.594 154.639 238.453C155.1 238.537 155.528 238.752 155.872 239.071C156.215 239.39 156.461 239.801 156.58 240.255C157.364 242.884 155.539 243.654 155.539 243.654C154.54 243.577 153.552 243.392 152.593 243.1C153.401 243.304 154.225 243.441 155.056 243.508V243.508Z" fill="white"/>
<path d="M116.421 288.559L106.867 308.699C112.439 308.977 117.984 309.65 123.46 310.713C134.019 312.726 139.047 307.692 139.047 307.692L132.234 288.559H116.421Z" fill="#263238"/>
<path d="M118.955 320.279C118.955 320.279 123.983 321.286 122.977 323.3H113.927L114.43 320.279H118.955Z" fill="#FF5252"/>
<path d="M135.045 320.279C135.045 320.279 140.073 321.286 139.067 323.3H130.017L130.519 320.279H135.045Z" fill="#FF5252"/>
<path d="M131.525 243.75C131.525 243.75 119.458 260.868 124.989 267.917L103.368 267.413C103.368 267.413 109.402 228.645 131.525 243.75Z" fill="#FCCC63"/>
<path opacity="0.2" d="M131.525 243.75C128.408 241.62 125.612 240.563 123.103 240.316C125.212 240.979 127.206 241.968 129.011 243.246C129.011 243.246 116.944 260.364 122.474 267.413L103.443 266.97C103.393 267.257 103.368 267.413 103.368 267.413L124.989 267.917C119.458 260.868 131.525 243.75 131.525 243.75Z" fill="white"/>
<path opacity="0.2" d="M132.259 288.559H130.751L137.564 307.692C137.564 307.692 134.316 310.939 127.558 311.171C135.336 311.422 139.072 307.692 139.072 307.692L132.259 288.559Z" fill="white"/>
<path opacity="0.2" d="M118.955 320.279H117.949C117.949 320.279 122.977 321.286 121.972 323.3H122.977C123.983 321.286 118.955 320.279 118.955 320.279Z" fill="white"/>
<path opacity="0.2" d="M135.045 320.279H134.039C134.039 320.279 139.067 321.286 138.061 323.3H139.067C140.073 321.286 135.045 320.279 135.045 320.279Z" fill="white"/>
<path d="M537.289 147.424H344.715V154.724H537.289V147.424Z" fill="#F5F5F5"/>
<path d="M541 145.093H340.883V394.819H541V145.093Z" fill="url(#paint16_linear)"/>
<path d="M537.289 154.724H344.715V386.074H537.289V154.724Z" fill="white"/>
<path d="M349.18 152.962C350.151 152.962 350.939 152.173 350.939 151.2C350.939 150.227 350.151 149.438 349.18 149.438C348.208 149.438 347.42 150.227 347.42 151.2C347.42 152.173 348.208 152.962 349.18 152.962Z" fill="#FF5252"/>
<path d="M354.017 152.962C354.988 152.962 355.776 152.173 355.776 151.2C355.776 150.227 354.988 149.438 354.017 149.438C353.045 149.438 352.257 150.227 352.257 151.2C352.257 152.173 353.045 152.962 354.017 152.962Z" fill="#FFFF00"/>
<path d="M358.859 152.962C359.831 152.962 360.618 152.173 360.618 151.2C360.618 150.227 359.831 149.438 358.859 149.438C357.887 149.438 357.099 150.227 357.099 151.2C357.099 152.173 357.887 152.962 358.859 152.962Z" fill="#69F0AE"/>
<g opacity="0.2">
<path opacity="0.2" d="M525.725 165.045H356.782V169.577H525.725V165.045Z" fill="#F9A826"/>
</g>
<path d="M428.683 184.681H355.776V262.217H428.683V184.681Z" fill="url(#paint17_linear)"/>
<path d="M427.175 187.199H357.285V259.7H427.175V187.199Z" fill="white"/>
<path d="M525.725 223.449H452.818V300.985H525.725V223.449Z" fill="url(#paint18_linear)"/>
<path d="M524.216 225.967H454.326V298.468H524.216V225.967Z" fill="white"/>
<path d="M528.742 319.111H357.285V372.48H528.742V319.111Z" fill="url(#paint19_linear)"/>
<path opacity="0.5" d="M525.725 322.635H360.804V370.466H525.725V322.635Z" fill="#F9A826"/>
<path opacity="0.5" d="M364.827 327.166H525.725V322.635H360.804V370.466H364.827V327.166Z" fill="white"/>
<path d="M415.595 203.083C410.826 197.533 404.261 193.838 397.046 192.644C389.832 191.45 382.428 192.833 376.129 196.553C369.83 200.272 365.038 206.09 362.589 212.989C360.141 219.888 360.192 227.43 362.734 234.295C365.277 241.16 370.148 246.912 376.497 250.545C382.846 254.178 390.268 255.46 397.466 254.167C404.663 252.875 411.178 249.09 415.871 243.475C420.563 237.86 423.136 230.771 423.137 223.449C423.146 215.974 420.469 208.745 415.595 203.083V203.083ZM403.025 242.088C398.922 244.523 394.129 245.53 389.394 244.954C384.659 244.378 380.248 242.25 376.846 238.901C373.445 235.553 371.245 231.172 370.589 226.441C369.932 221.711 370.857 216.895 373.218 212.745C375.579 208.596 379.244 205.344 383.643 203.497C388.042 201.65 392.927 201.312 397.538 202.534C402.149 203.757 406.227 206.472 409.136 210.257C412.046 214.041 413.624 218.683 413.624 223.459C413.636 227.219 412.665 230.916 410.808 234.184C408.952 237.452 406.274 240.177 403.04 242.088H403.025Z" fill="url(#paint20_linear)"/>
<path d="M407.59 209.986L414.454 204.07C411.673 200.828 408.225 198.226 404.345 196.443C400.465 194.661 396.247 193.74 391.978 193.744V202.807C394.944 202.806 397.874 203.447 400.569 204.686C403.264 205.925 405.659 207.733 407.59 209.986V209.986Z" fill="#FF5252"/>
<path d="M391.978 244.087C389.043 244.088 386.142 243.458 383.471 242.239L379.735 250.501C384.086 252.477 388.849 253.372 393.619 253.109C398.389 252.846 403.025 251.433 407.133 248.991L402.507 241.192C399.324 243.093 395.685 244.094 391.978 244.087V244.087Z" fill="#69F0AE"/>
<path d="M421.644 223.444C421.653 216.329 419.1 209.449 414.454 204.065L407.591 209.981C409.561 212.263 411.008 214.949 411.828 217.852C412.648 220.754 412.822 223.802 412.337 226.779C411.852 229.756 410.721 232.591 409.022 235.082C407.324 237.573 405.1 239.661 402.507 241.197L407.133 248.996C411.557 246.363 415.222 242.623 417.766 238.143C420.31 233.663 421.647 228.598 421.644 223.444V223.444Z" fill="#FF9800"/>
<path d="M371.363 223.444C371.363 217.969 373.535 212.719 377.401 208.848C381.267 204.976 386.511 202.801 391.978 202.801V193.739C385.199 193.739 378.623 196.065 373.348 200.328C368.072 204.592 364.414 210.537 362.982 217.173C361.551 223.809 362.433 230.735 365.481 236.799C368.529 242.864 373.56 247.699 379.735 250.501L383.471 242.239C379.863 240.602 376.802 237.959 374.655 234.626C372.508 231.293 371.365 227.411 371.363 223.444V223.444Z" fill="#F9A826"/>
<path d="M517.177 236.54H463.88V245.602H517.177V236.54Z" fill="url(#paint21_linear)"/>
<path d="M516.674 237.043H464.382V245.099H516.674V237.043Z" fill="#F9A826"/>
<path d="M502.596 250.637H464.382V258.693H502.596V250.637Z" fill="#FF5252"/>
<path d="M490.528 264.231H464.382V272.287H490.528V264.231Z" fill="#69F0AE"/>
<path d="M511.646 277.825H464.382V285.881H511.646V277.825Z" fill="#FF9800"/>
<path d="M432.203 274.301H357.285V278.832H432.203V274.301Z" fill="#F5F5F5"/>
<path d="M399.521 281.853H357.285V286.384H399.521V281.853Z" fill="#F5F5F5"/>
<path d="M421.644 281.853H407.063V286.384H421.644V281.853Z" fill="#F5F5F5"/>
<path d="M421.644 298.468H407.063V302.999H421.644V298.468Z" fill="#F5F5F5"/>
<path d="M399.521 296.957H357.285V301.489H399.521V296.957Z" fill="#F5F5F5"/>
<path d="M432.203 289.405H357.285V293.937H432.203V289.405Z" fill="#F5F5F5"/>
<path d="M526.73 185.185H451.812V189.716H526.73V185.185Z" fill="#F5F5F5"/>
<path d="M494.048 192.737H451.812V197.268H494.048V192.737Z" fill="#F5F5F5"/>
<path d="M516.171 192.737H501.59V197.268H516.171V192.737Z" fill="#F5F5F5"/>
<path d="M516.171 209.352H501.59V213.883H516.171V209.352Z" fill="#F5F5F5"/>
<path d="M494.048 207.841H451.812V212.373H494.048V207.841Z" fill="#F5F5F5"/>
<path d="M526.73 200.289H451.812V204.82H526.73V200.289Z" fill="#F5F5F5"/>
<path d="M475.444 415.275C478.499 415.275 480.975 412.796 480.975 409.737C480.975 406.678 478.499 404.199 475.444 404.199C472.39 404.199 469.913 406.678 469.913 409.737C469.913 412.796 472.39 415.275 475.444 415.275Z" fill="url(#paint22_linear)"/>
<path d="M475.444 413.765C477.666 413.765 479.467 411.962 479.467 409.737C479.467 407.513 477.666 405.709 475.444 405.709C473.223 405.709 471.422 407.513 471.422 409.737C471.422 411.962 473.223 413.765 475.444 413.765Z" fill="#FF5252"/>
<path d="M484.998 348.312H312.032V409.234H484.998V348.312Z" fill="url(#paint23_linear)"/>
<path d="M481.981 350.83H317.06V398.661H481.981V350.83Z" fill="white"/>
<path d="M322.591 389.598H475.444" stroke="#F9A826" stroke-width="3" stroke-miterlimit="10"/>
<path d="M346.726 360.396H324.1V388.087H346.726V360.396Z" fill="url(#paint24_linear)"/>
<path d="M345.469 361.655H325.357V387.332H345.469V361.655Z" fill="#F9A826"/>
<path d="M471.422 380.032H451.309V388.087H471.422V380.032Z" fill="#69F0AE"/>
<path d="M433.711 369.459H413.599V387.584H433.711V369.459Z" fill="#FF9800"/>
<path d="M389.464 372.48H369.352V387.584H389.464V372.48Z" fill="#FF5252"/>
<path d="M481.981 398.661H317.06V405.709H481.981V398.661Z" fill="#FF5252"/>
<path d="M324.1 415.275C327.154 415.275 329.63 412.796 329.63 409.737C329.63 406.678 327.154 404.199 324.1 404.199C321.045 404.199 318.569 406.678 318.569 409.737C318.569 412.796 321.045 415.275 324.1 415.275Z" fill="url(#paint25_linear)"/>
<path d="M324.1 413.765C326.321 413.765 328.122 411.962 328.122 409.737C328.122 407.513 326.321 405.709 324.1 405.709C321.878 405.709 320.077 407.513 320.077 409.737C320.077 411.962 321.878 413.765 324.1 413.765Z" fill="#FF5252"/>
<path d="M317.06 352.844H313.038V405.709H317.06V352.844Z" fill="#FF5252"/>
<path opacity="0.2" d="M317.06 352.844H313.038V405.709H317.06V352.844Z" fill="black"/>
<path d="M317.327 358.463C317.327 358.407 317.327 358.357 317.327 358.302C317.327 358.246 317.327 358.135 317.327 358.055C317.327 357.974 317.327 357.949 317.297 357.899C317.267 357.848 317.261 357.748 317.236 357.677C317.211 357.607 317.206 357.582 317.186 357.531C317.166 357.481 317.126 357.39 317.096 357.32L317.035 357.194C316.995 357.123 316.95 357.053 316.904 356.987L316.839 356.892C316.773 356.801 316.703 356.714 316.628 356.63C316.227 356.202 315.752 355.851 315.225 355.593C315.637 355.15 315.945 354.62 316.125 354.042C316.177 353.888 316.218 353.729 316.246 353.569C316.246 353.518 316.246 353.468 316.246 353.423C316.259 353.326 316.268 353.229 316.271 353.131C316.271 353.075 316.271 353.025 316.271 352.97C316.271 352.914 316.271 352.804 316.271 352.723C316.271 352.642 316.271 352.617 316.241 352.567C316.211 352.517 316.206 352.416 316.18 352.345C316.155 352.275 316.15 352.25 316.13 352.199C316.11 352.149 316.07 352.058 316.04 351.988L315.979 351.862C315.939 351.792 315.894 351.721 315.849 351.656L315.783 351.56C315.717 351.469 315.647 351.382 315.572 351.298V351.298C315.071 350.772 314.462 350.36 313.787 350.09C313.787 350.09 310.594 351.273 310.383 352.572C308.04 353.075 294.384 355.92 285.006 355.694L284.936 355.507C284.937 353.988 284.524 352.498 283.741 351.196C282.959 349.895 281.837 348.832 280.496 348.121V344.959C280.503 344.825 280.503 344.691 280.496 344.557V344.557C280.483 344.428 280.463 344.3 280.436 344.174L280.496 344.139L280.753 343.998L281.125 343.771L281.361 343.615C281.535 343.494 281.703 343.367 281.864 343.232L282.055 343.066C282.171 342.966 282.281 342.865 282.392 342.759L282.588 342.568C282.725 342.427 282.856 342.282 282.98 342.135L283.116 341.964C283.233 341.816 283.346 341.665 283.453 341.51L283.589 341.304C283.686 341.153 283.78 340.999 283.87 340.841L283.956 340.69C284.066 340.488 284.167 340.277 284.257 340.066L284.333 339.874C284.403 339.703 284.467 339.535 284.524 339.371L284.584 339.184C284.655 338.953 284.715 338.721 284.765 338.485C284.765 338.439 284.765 338.389 284.79 338.344C284.827 338.142 284.857 337.939 284.881 337.734C284.881 337.664 284.881 337.598 284.881 337.528C284.881 337.276 284.921 337.024 284.921 336.768C284.921 335.337 284.552 333.931 283.85 332.684C284.388 332.554 284.715 332.448 284.675 332.397C284.468 332.121 284.262 331.859 284.046 331.607L283.84 331.37C283.689 331.199 283.543 331.038 283.392 330.867L283.151 330.62C283 330.469 282.849 330.328 282.699 330.192L282.462 329.981C282.271 329.82 282.08 329.664 281.889 329.513L281.763 329.412C281.532 329.241 281.301 329.08 281.064 328.908L280.803 328.747C280.652 328.652 280.496 328.561 280.34 328.48L280.029 328.319L279.596 328.113L279.28 327.972C279.129 327.906 278.973 327.851 278.817 327.796L278.53 327.69C278.299 327.614 278.068 327.544 277.836 327.483L277.479 327.403L277.092 327.322L276.705 327.262L276.348 327.222L275.951 327.186H275.609H275.212C274.994 327.186 274.776 327.197 274.558 327.217C269.414 327.64 264.909 332.136 264.909 339.3V345.211H272.954V347.9C271.508 348.568 270.283 349.636 269.425 350.979C268.566 352.322 268.109 353.882 268.107 355.477V378.39L261.279 409.803H261.189L259.846 415.799L269.48 417.36L269.897 417.425C270.903 416.992 269.218 414.963 268.459 413.397C268.382 413.234 268.314 413.066 268.258 412.894C268.152 412.578 268.088 412.25 268.067 411.917L275.468 387.604H275.433L275.609 387.035C275.609 387.035 285.032 391.063 287.455 399.164C289.421 405.709 288.199 409.969 287.666 411.348H287.631V411.429C287.526 411.691 287.45 411.837 287.45 411.837H287.631V416.282H297.818C298.763 415.804 296.757 414.409 295.756 413.261C295.429 412.898 295.2 412.456 295.093 411.978H295.264L295.344 411.615C296.625 405.659 296.331 399.471 294.491 393.663C292.652 387.856 289.33 382.63 284.856 378.501C284.874 378.475 284.889 378.446 284.901 378.416C285.862 375.469 286.455 372.415 286.666 369.323C294.454 370.068 304.817 369.534 312.565 363.523C313.305 362.963 314.012 362.361 314.682 361.72C315.351 361.67 316.522 361.297 317.171 359.404C317.223 359.25 317.263 359.091 317.292 358.931C317.292 358.881 317.292 358.83 317.292 358.785C317.31 358.678 317.321 358.571 317.327 358.463V358.463Z" fill="url(#paint26_linear)"/>
<path d="M276.519 367.334C276.519 367.334 300.101 374.841 313.164 362.299L310.393 358.669C310.393 358.669 285.052 364.323 279.013 360.18C272.974 356.036 276.519 367.334 276.519 367.334Z" fill="#F9A826"/>
<path opacity="0.2" d="M312.5 361.826L312.962 362.43C299.889 374.977 276.318 367.465 276.318 367.465C276.318 367.465 276.258 367.274 276.167 366.961C278.978 367.802 300.312 373.547 312.5 361.826Z" fill="white"/>
<path d="M312.661 362.294C312.661 362.294 314.592 362.732 315.482 360.139C316.371 357.546 313.269 356.403 313.269 356.403C313.269 356.403 310.036 357.597 310.046 358.865C310.056 360.134 312.661 362.294 312.661 362.294Z" fill="#985454"/>
<path opacity="0.2" d="M312.354 361.886C312.354 361.886 314.285 362.324 315.175 359.731C315.313 359.374 315.364 358.988 315.325 358.607C315.285 358.225 315.156 357.858 314.949 357.536C315.275 357.874 315.499 358.297 315.593 358.757C315.688 359.218 315.649 359.695 315.482 360.134C314.592 362.732 312.661 362.289 312.661 362.289C311.893 361.644 311.199 360.916 310.589 360.119C311.127 360.756 311.718 361.347 312.354 361.886V361.886Z" fill="white"/>
<path d="M287.686 409.027H294.67C294.645 409.357 294.69 409.688 294.804 409.998C294.917 410.308 295.097 410.59 295.329 410.825C296.269 411.912 298.16 413.226 297.27 413.674H287.686V409.027Z" fill="#F9A826"/>
<path opacity="0.2" d="M294.821 410.825C294.589 410.59 294.41 410.308 294.296 409.998C294.182 409.688 294.137 409.357 294.163 409.027H294.665C294.64 409.357 294.685 409.688 294.799 409.998C294.912 410.308 295.092 410.59 295.324 410.825C296.264 411.912 298.155 413.226 297.265 413.674H296.762C297.652 413.226 295.761 411.917 294.821 410.825Z" fill="white"/>
<path d="M262.813 407.587L269.349 408.66C269.168 409.439 269.274 410.258 269.646 410.966C270.36 412.476 271.964 414.359 270.998 414.767L261.536 413.256L262.813 407.587Z" fill="#F9A826"/>
<path opacity="0.2" d="M269.148 410.961C268.776 410.253 268.671 409.434 268.851 408.655L262.792 407.648V407.567L269.329 408.64C269.148 409.419 269.254 410.237 269.626 410.945C270.34 412.456 271.944 414.339 270.978 414.747L270.581 414.681C271.325 414.188 269.832 412.38 269.148 410.961Z" fill="white"/>
<path d="M273.834 349.989C273.834 351.952 275.422 353.544 277.381 353.544C279.341 353.544 280.929 351.952 280.929 349.989V346.57C280.929 344.607 279.341 343.016 277.381 343.016C275.422 343.016 273.834 344.607 273.834 346.57V349.989Z" fill="#985454"/>
<path d="M277.253 346.696C281.591 346.696 285.107 343.175 285.107 338.832C285.107 334.489 281.591 330.968 277.253 330.968C272.916 330.968 269.399 334.489 269.399 338.832C269.399 343.175 272.916 346.696 277.253 346.696Z" fill="#985454"/>
<path opacity="0.2" d="M280.044 349.994V346.57C280.044 346.32 280.017 346.07 279.963 345.825C281.497 345.036 282.729 343.764 283.469 342.205C284.209 340.645 284.416 338.885 284.058 337.197C283.7 335.508 282.797 333.984 281.488 332.86C280.179 331.736 278.537 331.074 276.816 330.978H277.258C279.02 330.977 280.731 331.57 282.116 332.66C283.5 333.751 284.479 335.276 284.894 336.99C285.309 338.705 285.136 340.509 284.403 342.113C283.67 343.717 282.42 345.028 280.853 345.835C280.907 346.08 280.933 346.33 280.934 346.58V350.004C280.938 350.51 280.834 351.01 280.629 351.472C280.423 351.934 280.121 352.345 279.742 352.68C279.363 353.014 278.917 353.263 278.434 353.409C277.951 353.556 277.442 353.596 276.941 353.529C277.799 353.417 278.587 352.997 279.158 352.347C279.729 351.696 280.044 350.86 280.044 349.994Z" fill="white"/>
<path d="M269.274 378.028C269.274 378.028 284.423 379.74 284.981 378.028C288.908 365.975 284.981 356.464 284.981 356.464C284.981 354.378 284.154 352.378 282.681 350.903C281.208 349.428 279.21 348.599 277.128 348.599V348.599C275.045 348.599 273.047 349.428 271.574 350.903C270.101 352.378 269.274 354.378 269.274 356.464V378.028Z" fill="#F9A826"/>
<path d="M269.274 378.028L262.43 409.49H269.274L276.368 386.149C276.368 386.149 285.238 389.955 287.515 397.568C289.793 405.181 287.515 409.49 287.515 409.49H294.877L294.952 409.148C296.161 403.542 295.878 397.716 294.131 392.255C292.384 386.793 289.234 381.887 284.996 378.028" fill="#263238"/>
<path opacity="0.2" d="M284.096 378.028C288.023 365.975 284.096 356.464 284.096 356.464C284.097 354.466 283.338 352.543 281.973 351.085C280.609 349.627 278.741 348.744 276.75 348.615C276.916 348.615 277.087 348.615 277.253 348.615C279.336 348.615 281.334 349.443 282.807 350.918C284.28 352.393 285.107 354.393 285.107 356.479C285.107 356.479 289.034 365.995 285.107 378.043C284.906 378.657 282.834 378.828 280.26 378.803C282.352 378.758 283.925 378.557 284.096 378.028Z" fill="white"/>
<g opacity="0.2">
<path opacity="0.2" d="M276.238 386.703L269.274 409.616H268.268L275.363 386.275C275.363 386.275 275.689 386.416 276.238 386.703Z" fill="white"/>
<path opacity="0.2" d="M283.971 378.154H284.976C289.213 382.013 292.363 386.919 294.111 392.381C295.858 397.842 296.141 403.668 294.932 409.274L294.856 409.616H293.851L293.926 409.274C295.136 403.668 294.852 397.842 293.105 392.381C291.358 386.919 288.208 382.013 283.971 378.154V378.154Z" fill="white"/>
</g>
<path d="M275.513 362.299C275.513 362.299 299.095 369.806 312.158 357.264L309.387 353.634C309.387 353.634 284.046 359.288 278.007 355.145C271.969 351.001 275.513 362.299 275.513 362.299Z" fill="#F9A826"/>
<path opacity="0.2" d="M311.494 356.791L311.957 357.395C298.884 369.942 275.312 362.43 275.312 362.43C275.312 362.43 275.252 362.239 275.161 361.927C277.972 362.767 299.306 368.512 311.494 356.791Z" fill="white"/>
<path d="M311.655 357.259C311.655 357.259 313.586 357.697 314.476 355.104C315.366 352.512 312.264 351.369 312.264 351.369C312.264 351.369 309.03 352.562 309.041 353.831C309.051 355.099 311.655 357.259 311.655 357.259Z" fill="#985454"/>
<path opacity="0.2" d="M311.348 356.852C311.348 356.852 313.279 357.29 314.169 354.697C314.307 354.339 314.358 353.953 314.319 353.572C314.28 353.19 314.151 352.824 313.943 352.501C314.27 352.839 314.493 353.262 314.588 353.723C314.682 354.183 314.643 354.661 314.476 355.099C313.586 357.697 311.655 357.254 311.655 357.254C310.888 356.609 310.193 355.881 309.584 355.084C310.122 355.721 310.712 356.313 311.348 356.852V356.852Z" fill="white"/>
<path d="M277.842 336.224L277.339 346.797H266.277V341.183C266.277 329.91 278.178 325.631 284.881 334.688C285.047 334.935 277.842 336.224 277.842 336.224Z" fill="#263238"/>
<path opacity="0.2" d="M275.358 329.85C278.178 330.081 281.08 331.622 283.372 334.719C283.538 334.94 276.333 336.229 276.333 336.229L275.83 346.802H277.339L277.841 336.229C277.841 336.229 285.047 334.94 284.881 334.719C282.181 331.063 278.631 329.603 275.358 329.85Z" fill="white"/>
<defs>
<linearGradient id="paint0_linear" x1="200.409" y1="307.692" x2="200.409" y2="63" gradientUnits="userSpaceOnUse">
<stop stop-color="#808080" stop-opacity="0.25"/>
<stop offset="0.54" stop-color="#808080" stop-opacity="0.12"/>
<stop offset="1" stop-color="#808080" stop-opacity="0.1"/>
</linearGradient>
<linearGradient id="paint1_linear" x1="5917.31" y1="2311.04" x2="5917.31" y2="2250.12" gradientUnits="userSpaceOnUse">
<stop stop-color="#808080" stop-opacity="0.25"/>
<stop offset="0.54" stop-color="#808080" stop-opacity="0.12"/>
<stop offset="1" stop-color="#808080" stop-opacity="0.1"/>
</linearGradient>
<linearGradient id="paint2_linear" x1="5917.31" y1="2649.38" x2="5917.31" y2="2588.46" gradientUnits="userSpaceOnUse">
<stop stop-color="#808080" stop-opacity="0.25"/>
<stop offset="0.54" stop-color="#808080" stop-opacity="0.12"/>
<stop offset="1" stop-color="#808080" stop-opacity="0.1"/>
</linearGradient>
<linearGradient id="paint3_linear" x1="8532.91" y1="2649.38" x2="8532.91" y2="2588.46" gradientUnits="userSpaceOnUse">
<stop stop-color="#808080" stop-opacity="0.25"/>
<stop offset="0.54" stop-color="#808080" stop-opacity="0.12"/>
<stop offset="1" stop-color="#808080" stop-opacity="0.1"/>
</linearGradient>
<linearGradient id="paint4_linear" x1="3304.31" y1="558.929" x2="3304.31" y2="498.007" gradientUnits="userSpaceOnUse">
<stop stop-color="#808080" stop-opacity="0.25"/>
<stop offset="0.54" stop-color="#808080" stop-opacity="0.12"/>
<stop offset="1" stop-color="#808080" stop-opacity="0.1"/>
</linearGradient>
<linearGradient id="paint5_linear" x1="3304.31" y1="649.555" x2="3304.31" y2="588.634" gradientUnits="userSpaceOnUse">
<stop stop-color="#808080" stop-opacity="0.25"/>
<stop offset="0.54" stop-color="#808080" stop-opacity="0.12"/>
<stop offset="1" stop-color="#808080" stop-opacity="0.1"/>
</linearGradient>
<linearGradient id="paint6_linear" x1="3304.31" y1="740.181" x2="3304.31" y2="679.26" gradientUnits="userSpaceOnUse">
<stop stop-color="#808080" stop-opacity="0.25"/>
<stop offset="0.54" stop-color="#808080" stop-opacity="0.12"/>
<stop offset="1" stop-color="#808080" stop-opacity="0.1"/>
</linearGradient>
<linearGradient id="paint7_linear" x1="3304.31" y1="830.808" x2="3304.31" y2="769.887" gradientUnits="userSpaceOnUse">
<stop stop-color="#808080" stop-opacity="0.25"/>
<stop offset="0.54" stop-color="#808080" stop-opacity="0.12"/>
<stop offset="1" stop-color="#808080" stop-opacity="0.1"/>
</linearGradient>
<linearGradient id="paint8_linear" x1="39619.9" y1="25228" x2="39619.9" y2="13899.7" gradientUnits="userSpaceOnUse">
<stop stop-color="#808080" stop-opacity="0.25"/>
<stop offset="0.54" stop-color="#808080" stop-opacity="0.12"/>
<stop offset="1" stop-color="#808080" stop-opacity="0.1"/>
</linearGradient>
<linearGradient id="paint9_linear" x1="74247.8" y1="26861.5" x2="73192.1" y2="15277.2" gradientUnits="userSpaceOnUse">
<stop stop-color="#808080" stop-opacity="0.25"/>
<stop offset="0.54" stop-color="#808080" stop-opacity="0.12"/>
<stop offset="1" stop-color="#808080" stop-opacity="0.1"/>
</linearGradient>
<linearGradient id="paint10_linear" x1="3533.66" y1="2138.44" x2="3524.71" y2="2040.17" gradientUnits="userSpaceOnUse">
<stop stop-color="#808080" stop-opacity="0.25"/>
<stop offset="0.54" stop-color="#808080" stop-opacity="0.12"/>
<stop offset="1" stop-color="#808080" stop-opacity="0.1"/>
</linearGradient>
<linearGradient id="paint11_linear" x1="3845.96" y1="2077.74" x2="3837" y2="1979.46" gradientUnits="userSpaceOnUse">
<stop stop-color="#808080" stop-opacity="0.25"/>
<stop offset="0.54" stop-color="#808080" stop-opacity="0.12"/>
<stop offset="1" stop-color="#808080" stop-opacity="0.1"/>
</linearGradient>
<linearGradient id="paint12_linear" x1="399.998" y1="281.135" x2="399.998" y2="281.099" gradientUnits="userSpaceOnUse">
<stop stop-color="#808080" stop-opacity="0.25"/>
<stop offset="0.54" stop-color="#808080" stop-opacity="0.12"/>
<stop offset="1" stop-color="#808080" stop-opacity="0.1"/>
</linearGradient>
<linearGradient id="paint13_linear" x1="20118.3" y1="50787.7" x2="20118.3" y2="35754.9" gradientUnits="userSpaceOnUse">
<stop stop-color="#808080" stop-opacity="0.25"/>
<stop offset="0.54" stop-color="#808080" stop-opacity="0.12"/>
<stop offset="1" stop-color="#808080" stop-opacity="0.1"/>
</linearGradient>
<linearGradient id="paint14_linear" x1="157.368" y1="294.958" x2="157.368" y2="294.909" gradientUnits="userSpaceOnUse">
<stop stop-color="#808080" stop-opacity="0.25"/>
<stop offset="0.54" stop-color="#808080" stop-opacity="0.12"/>
<stop offset="1" stop-color="#808080" stop-opacity="0.1"/>
</linearGradient>
<linearGradient id="paint15_linear" x1="13392.8" y1="63408.4" x2="13392.8" y2="42769.5" gradientUnits="userSpaceOnUse">
<stop stop-color="#808080" stop-opacity="0.25"/>
<stop offset="0.54" stop-color="#808080" stop-opacity="0.12"/>
<stop offset="1" stop-color="#808080" stop-opacity="0.1"/>
</linearGradient>
<linearGradient id="paint16_linear" x1="138822" y1="164727" x2="138822" y2="40863" gradientUnits="userSpaceOnUse">
<stop stop-color="#808080" stop-opacity="0.25"/>
<stop offset="0.54" stop-color="#808080" stop-opacity="0.12"/>
<stop offset="1" stop-color="#808080" stop-opacity="0.1"/>
</linearGradient>
<linearGradient id="paint17_linear" x1="43744.1" y1="30864.1" x2="43744.1" y2="18923.6" gradientUnits="userSpaceOnUse">
<stop stop-color="#808080" stop-opacity="0.25"/>
<stop offset="0.54" stop-color="#808080" stop-opacity="0.12"/>
<stop offset="1" stop-color="#808080" stop-opacity="0.1"/>
</linearGradient>
<linearGradient id="paint18_linear" x1="57912.2" y1="36873.2" x2="57912.2" y2="24932.6" gradientUnits="userSpaceOnUse">
<stop stop-color="#808080" stop-opacity="0.25"/>
<stop offset="0.54" stop-color="#808080" stop-opacity="0.12"/>
<stop offset="1" stop-color="#808080" stop-opacity="0.1"/>
</linearGradient>
<linearGradient id="paint19_linear" x1="119712" y1="33123.9" x2="119712" y2="27466.8" gradientUnits="userSpaceOnUse">
<stop stop-color="#808080" stop-opacity="0.25"/>
<stop offset="0.54" stop-color="#808080" stop-opacity="0.12"/>
<stop offset="1" stop-color="#808080" stop-opacity="0.1"/>
</linearGradient>
<linearGradient id="paint20_linear" x1="47066.9" y1="29856.7" x2="47066.9" y2="22115.1" gradientUnits="userSpaceOnUse">
<stop stop-color="#808080" stop-opacity="0.25"/>
<stop offset="0.54" stop-color="#808080" stop-opacity="0.12"/>
<stop offset="1" stop-color="#808080" stop-opacity="0.1"/>
</linearGradient>
<linearGradient id="paint21_linear" x1="42601.9" y1="3523.39" x2="42601.9" y2="3360.26" gradientUnits="userSpaceOnUse">
<stop stop-color="#808080" stop-opacity="0.25"/>
<stop offset="0.54" stop-color="#808080" stop-opacity="0.12"/>
<stop offset="1" stop-color="#808080" stop-opacity="0.1"/>
</linearGradient>
<linearGradient id="paint22_linear" x1="8883.67" y1="8154.25" x2="8883.67" y2="7910.57" gradientUnits="userSpaceOnUse">
<stop stop-color="#808080" stop-opacity="0.25"/>
<stop offset="0.54" stop-color="#808080" stop-opacity="0.12"/>
<stop offset="1" stop-color="#808080" stop-opacity="0.1"/>
</linearGradient>
<linearGradient id="paint23_linear" x1="105409" y1="42242.6" x2="105409" y2="34871.1" gradientUnits="userSpaceOnUse">
<stop stop-color="#808080" stop-opacity="0.25"/>
<stop offset="0.54" stop-color="#808080" stop-opacity="0.12"/>
<stop offset="1" stop-color="#808080" stop-opacity="0.1"/>
</linearGradient>
<linearGradient id="paint24_linear" x1="11232.7" y1="18240.2" x2="11232.7" y2="16717.2" gradientUnits="userSpaceOnUse">
<stop stop-color="#808080" stop-opacity="0.25"/>
<stop offset="0.54" stop-color="#808080" stop-opacity="0.12"/>
<stop offset="1" stop-color="#808080" stop-opacity="0.1"/>
</linearGradient>
<linearGradient id="paint25_linear" x1="5402.74" y1="8154.25" x2="5402.74" y2="7910.57" gradientUnits="userSpaceOnUse">
<stop stop-color="#808080" stop-opacity="0.25"/>
<stop offset="0.54" stop-color="#808080" stop-opacity="0.12"/>
<stop offset="1" stop-color="#808080" stop-opacity="0.1"/>
</linearGradient>
<linearGradient id="paint26_linear" x1="28215.6" y1="64287.6" x2="34785.7" y2="64287.6" gradientUnits="userSpaceOnUse">
<stop stop-color="#808080" stop-opacity="0.25"/>
<stop offset="0.54" stop-color="#808080" stop-opacity="0.12"/>
<stop offset="1" stop-color="#808080" stop-opacity="0.1"/>
</linearGradient>
</defs>
</svg>
