<svg width="180" height="180" viewBox="0 0 180 180" fill="none" xmlns="http://www.w3.org/2000/svg">
<g clip-path="url(#clip0)">
<path d="M63.2139 141.12L36.36 155.768C34.7841 156.627 33.3679 157.683 32.0502 158.835C47.7068 172.036 67.9177 180 90 180C111.919 180 132.001 172.155 147.614 159.134C146.174 157.918 144.611 156.824 142.879 155.962L114.123 141.585C110.408 139.728 108.061 135.931 108.061 131.777V120.495C108.869 119.574 109.793 118.392 110.781 116.997C114.701 111.461 117.666 105.371 119.72 98.983C123.409 97.8453 126.126 94.4389 126.126 90.3906V78.3475C126.126 75.6985 124.947 73.3313 123.117 71.674V54.2649C123.117 54.2649 126.693 27.1732 90.0034 27.1732C53.3139 27.1732 56.8902 54.2649 56.8902 54.2649V71.674C55.0562 73.3313 53.8811 75.6985 53.8811 78.3475V90.3906C53.8811 93.5626 55.5487 96.3543 58.0449 97.9675C61.0539 111.067 68.9332 120.495 68.9332 120.495V131.498C68.9298 135.506 66.7358 139.198 63.2139 141.12Z" fill="#EBEBEB"/>
<path d="M91.5383 0.0134555C41.8413 -0.835601 0.862468 38.7644 0.0134109 88.4614C-0.468853 116.64 12.0904 141.966 32.0874 158.807C33.3949 157.666 34.7976 156.62 36.3564 155.771L63.2104 141.123C66.7323 139.201 68.9262 135.509 68.9262 131.495V120.491C68.9262 120.491 61.0436 111.063 58.0379 97.964C55.5451 96.3508 53.8742 93.5625 53.8742 90.387V78.344C53.8742 75.695 55.0527 73.3278 56.8832 71.6704V54.2614C56.8832 54.2614 53.307 27.1697 89.9964 27.1697C126.686 27.1697 123.11 54.2614 123.11 54.2614V71.6704C124.944 73.3278 126.119 75.695 126.119 78.344V90.387C126.119 94.4353 123.402 97.8418 119.713 98.9795C117.659 105.368 114.694 111.457 110.775 116.993C109.786 118.389 108.862 119.571 108.054 120.491V131.773C108.054 135.927 110.401 139.727 114.116 141.582L142.872 155.958C144.598 156.821 146.156 157.911 147.593 159.123C166.985 142.95 179.514 118.769 179.979 91.5384C180.835 41.8414 141.239 0.862512 91.5383 0.0134555Z" fill="#4D4D4D"/>
</g>
<defs>
<clipPath id="clip0">
<rect width="180" height="180" fill="white"/>
</clipPath>
</defs>
</svg>
