<svg width="504" height="497" viewBox="0 0 504 497" fill="none" xmlns="http://www.w3.org/2000/svg">
<path d="M336.314 271.06C336.314 278.308 334.527 285.145 331.375 291.138C324.147 304.872 309.741 314.228 293.146 314.228H228.895V405.585H196.77L195.124 385.507L188.398 303.637C186.962 286.098 200.817 271.06 218.415 271.06H336.314Z" fill="#616161"/>
<path d="M336.314 271.06C336.314 278.308 334.527 285.145 331.375 291.138H264.032C252.943 291.138 243.954 282.149 243.954 271.06H336.314Z" fill="#424242"/>
<path d="M336.314 160.629V271.06H264.032V110.432H286.118C293.678 110.432 300.846 112.109 307.271 115.1C324.428 123.082 336.314 140.47 336.314 160.629Z" fill="#F4511E"/>
<path d="M0 435.703C0 397.446 31.013 366.432 69.271 366.432C107.529 366.432 138.542 397.445 138.542 435.703H0Z" fill="#B0BEC5"/>
<path d="M20.314 435.703C19.512 439.259 19.075 442.951 19.075 446.746C19.075 474.424 41.593 496.942 69.271 496.942C96.949 496.942 119.467 474.424 119.467 446.746C119.467 442.951 119.03 439.259 118.228 435.703H20.314Z" fill="#616161"/>
<path d="M52.52 435.703C50.423 438.874 49.193 442.668 49.193 446.746C49.193 457.817 58.2 466.824 69.271 466.824C80.342 466.824 89.349 457.817 89.349 446.746C89.349 442.667 88.119 438.874 86.022 435.703H52.52Z" fill="#D8D7DA"/>
<path d="M322.494 435.703C321.692 439.259 321.255 442.951 321.255 446.746C321.255 474.424 343.773 496.942 371.451 496.942C399.129 496.942 421.647 474.424 421.647 446.746C421.647 442.951 421.21 439.259 420.408 435.703H322.494Z" fill="#616161"/>
<path d="M354.7 435.703C352.603 438.874 351.373 442.668 351.373 446.746C351.373 457.817 360.38 466.824 371.451 466.824C382.522 466.824 391.529 457.817 391.529 446.746C391.529 442.667 390.299 438.874 388.202 435.703H354.7Z" fill="#D8D7DA"/>
<path d="M175.546 187.604L123.011 364.374L116.787 385.316C105.503 374.674 90.655 367.788 74.211 366.623L80.124 347.016L123.071 204.51C127.448 188.467 144.003 179 160.045 183.377L175.546 187.604Z" fill="#21B3A9"/>
<path d="M81.318 194.762C99.06 194.762 113.443 209.145 113.443 226.887C113.443 244.629 99.06 259.013 81.318 259.013V194.762Z" fill="#FDD844"/>
<path d="M228.895 385.507V405.585H196.769L195.123 385.507H228.895Z" fill="#424242"/>
<path d="M287.122 405.585V435.703H173.679L132.287 403.638L129.476 401.459C126.063 395.466 121.776 390.024 116.786 385.316L124.607 358.993L141.734 371.843L186.73 405.585H287.122Z" fill="#B0BEC5"/>
<path d="M450.761 374.464V435.703H287.122V314.229H390.526C407.051 314.229 422.029 320.885 432.902 331.657C439.287 337.982 444.266 345.722 447.328 354.386C449.557 360.67 450.761 367.426 450.761 374.464Z" fill="#21B3A9"/>
<path d="M432.952 335.441C432.239 357.688 414.992 374.463 392.835 374.463H327.279C311.869 374.463 297.784 368.64 287.122 359.073V314.228H390.526C407.051 314.228 422.029 320.884 432.902 331.656C432.982 332.901 432.992 334.166 432.952 335.441Z" fill="#1A9A91"/>
<path d="M392.833 354.385H327.279C305.101 354.385 287.122 336.406 287.122 314.228H390.526C391.837 314.228 393.139 314.27 394.43 314.352C420.063 315.991 418.518 354.385 392.833 354.385Z" fill="#B0BEC5"/>
<path d="M496.942 223.877H366.432V314.23H496.942V223.877Z" fill="#029BC5"/>
<path d="M291.626 125.241C297.31 122.692 302.608 119.276 307.271 115.1C300.846 112.108 293.678 110.432 286.118 110.432H264.032V116.686V130.43V262.014C286.921 257.356 304.189 237.067 304.189 212.832V152.597C304.189 141.673 299.31 131.873 291.626 125.241Z" fill="#D84315"/>
<path d="M295.836 98.2548C289.812 104.459 281.801 108.726 272.826 110.021C270.939 110.292 269.011 110.433 267.043 110.433C246.563 110.433 229.667 95.1028 227.197 75.2958C226.996 73.6498 226.886 71.9728 226.886 70.2758C226.886 64.9448 227.93 59.8648 229.817 55.2168H271.058V68.6188C271.059 83.4268 281.751 95.7348 295.836 98.2548Z" fill="#FDD8A8"/>
<path d="M295.836 98.2547C289.812 104.459 281.801 108.726 272.826 110.021C261.381 102.16 253.34 89.6817 251.422 75.2947H227.197C226.996 73.6487 226.886 71.9717 226.886 70.2747C226.886 64.9437 227.93 59.8637 229.817 55.2157H271.058V68.6177C271.059 83.4267 281.751 95.7347 295.836 98.2547Z" fill="#FFC477"/>
<path d="M331.295 98.7337C335.539 89.1927 337.716 78.5377 337.258 67.3397C335.78 31.2307 306.624 1.83874 270.528 0.0847426C235.425 -1.62026 212.957 22.5967 205.804 55.2157H271.059V68.6147C271.059 85.2487 284.543 98.7327 301.177 98.7327H331.295V98.7337Z" fill="#F4511E"/>
<path d="M196.769 242.95H253.993C270.627 242.95 284.111 229.466 284.111 212.832V152.597C284.111 143.725 276.92 136.534 268.048 136.534C259.176 136.534 251.985 143.725 251.985 152.597V210.824H196.769V242.95Z" fill="#F4511E"/>
<path d="M196.769 210.825H166.651C157.779 210.825 150.588 218.016 150.588 226.888C150.588 235.76 157.779 242.951 166.651 242.951H196.769V210.825Z" fill="#FDD8A8"/>
<path d="M496.942 223.877H366.432V243.955H496.942V223.877Z" fill="#0687AB"/>
<path d="M496.942 198.778C496.942 190.462 490.2 183.719 481.883 183.719H381.491C373.175 183.719 366.432 190.461 366.432 198.778V223.876H496.942V198.778V198.778Z" fill="#029BC5"/>
<path d="M123.011 364.374L116.787 385.316C105.503 374.674 90.655 367.788 74.211 366.623L80.124 347.016C96.096 348.954 110.773 355.128 123.011 364.374Z" fill="#21B3A9"/>
<path d="M141.734 371.844L132.287 403.638L129.476 401.459C126.063 395.466 121.776 390.024 116.786 385.316L124.607 358.993L141.734 371.844Z" fill="#90A4AE"/>
<path d="M503.969 352.881H474.855V367.94H503.969V352.881Z" fill="black"/>
<path d="M503.969 390.528H474.855V405.587H503.969V390.528Z" fill="black"/>
<path d="M503.969 428.175H474.855V443.234H503.969V428.175Z" fill="black"/>
</svg>
