<svg width="180" height="180" viewBox="0 0 180 180" fill="none" xmlns="http://www.w3.org/2000/svg">
<path d="M39.0123 151.611L69.9621 138.338C71.6398 137.5 73.0051 134.789 73.9662 132.857C74.8323 131.111 73.5383 129.057 71.5889 129.057H49.7002C49.7002 129.057 41.787 128.282 35.684 125.66C32.1077 124.125 30.8783 122.098 33.113 118.915C39.6508 109.61 53.1643 87.6974 53.6025 65.0683C53.6025 65.0683 54.353 30.2332 88.7194 29.9513C108.767 30.1177 118.236 41.9162 122.648 51.7211C125.107 57.1925 126.163 63.1562 126.557 69.1404C127.983 90.7098 138.967 110.438 144.085 118.868C145.82 121.728 144.981 125.535 142.112 127.253C137.404 130.069 131.641 129.057 131.641 129.057H109.606C107.453 129.057 106.502 132.066 108.193 133.4C109.572 134.487 110.887 135.469 111.596 135.856L137.34 151.434C141.055 153.462 144.02 156.471 146.038 160.023C130.588 172.511 110.934 180 89.5209 180C67.1942 180 46.7794 171.852 31.0515 158.39C33.1062 155.588 35.7859 153.224 39.0123 151.611Z" fill="#EBEBEB"/>
<path d="M90 0C40.2928 0 0 40.2962 0 90C0 117.245 12.1245 141.643 31.2521 158.149C33.283 155.455 35.8845 153.177 39.0158 151.611L69.9657 138.338C71.6434 137.5 73.0087 134.789 73.9698 132.857C74.8359 131.111 73.5419 129.057 71.5925 129.057H49.7038C49.7038 129.057 41.7906 128.282 35.6875 125.66C32.1113 124.125 30.8819 122.098 33.1166 118.915C39.6543 109.61 53.1679 87.6974 53.606 65.0683C53.606 65.0683 54.3566 30.2332 88.723 29.9513C108.771 30.1177 118.24 41.9162 122.651 51.7211C125.11 57.1925 126.166 63.1562 126.56 69.1404C127.987 90.7098 138.97 110.438 144.088 118.868C145.824 121.728 144.985 125.535 142.115 127.253C137.405 130.069 131.641 129.057 131.641 129.057H109.606C107.453 129.057 106.502 132.066 108.194 133.4C109.572 134.487 110.887 135.469 111.597 135.856L137.34 151.434C141.028 153.445 143.969 156.423 145.983 159.942C146.072 160.027 146.17 160.105 146.255 160.197C166.812 143.705 180 118.406 180 90C180 40.2962 139.707 0 90 0Z" fill="#4D4D4D"/>
</svg>
