<svg width="32" height="32" viewBox="0 0 32 32" fill="none" xmlns="http://www.w3.org/2000/svg">
<mask id="mask0" mask-type="alpha" maskUnits="userSpaceOnUse" x="3" y="2" width="26" height="28">
<path d="M19.76 5.33334L19.4074 5.461L19.497 5.70834H19.76V5.33334ZM12.24 5.33334V5.70834H12.503L12.5926 5.461L12.24 5.33334ZM18.6667 24V24.375H19.0417V24H18.6667ZM9.33333 24H8.95833V24.375H9.33333V24ZM18.6667 21.3333H19.0417V20.9583H18.6667V21.3333ZM9.33333 21.3333V20.9583H8.95833V21.3333H9.33333ZM9.33333 18.6667H8.95833V19.0417H9.33333V18.6667ZM22.6667 18.6667V19.0417H23.0417V18.6667H22.6667ZM9.33333 16V15.625H8.95833V16H9.33333ZM22.6667 16H23.0417V15.625H22.6667V16ZM22.6667 13.3333V13.7083H23.0417V13.3333H22.6667ZM9.33333 13.3333H8.95833V13.7083H9.33333V13.3333ZM22.6667 10.6667H23.0417V10.2917H22.6667V10.6667ZM9.33333 10.6667V10.2917H8.95833V10.6667H9.33333ZM19.76 5.70834H25.3333V4.95834H19.76V5.70834ZM16 3.04167C17.5662 3.04167 18.8979 4.05392 19.4074 5.461L20.1126 5.20567C19.5021 3.51942 17.9004 2.29167 16 2.29167V3.04167ZM12.5926 5.461C13.1021 4.05392 14.4338 3.04167 16 3.04167V2.29167C14.0996 2.29167 12.4979 3.51942 11.8874 5.20567L12.5926 5.461ZM6.66667 5.70834H12.24V4.95834H6.66667V5.70834ZM4.375 8.00001C4.375 6.74045 5.40711 5.70834 6.66667 5.70834V4.95834C4.99289 4.95834 3.625 6.32623 3.625 8.00001H4.375ZM4.375 26.6667V8.00001H3.625V26.6667H4.375ZM6.66667 28.9583C5.40711 28.9583 4.375 27.9262 4.375 26.6667H3.625C3.625 28.3404 4.99289 29.7083 6.66667 29.7083V28.9583ZM25.3333 28.9583H6.66667V29.7083H25.3333V28.9583ZM27.625 26.6667C27.625 27.9262 26.5929 28.9583 25.3333 28.9583V29.7083C27.0071 29.7083 28.375 28.3404 28.375 26.6667H27.625ZM27.625 8.00001V26.6667H28.375V8.00001H27.625ZM25.3333 5.70834C26.5929 5.70834 27.625 6.74045 27.625 8.00001H28.375C28.375 6.32623 27.0071 4.95834 25.3333 4.95834V5.70834ZM17.7083 6.66667C17.7083 5.72623 16.9404 4.95834 16 4.95834V5.70834C16.5262 5.70834 16.9583 6.14045 16.9583 6.66667H17.7083ZM16 8.375C16.9404 8.375 17.7083 7.60711 17.7083 6.66667H16.9583C16.9583 7.1929 16.5262 7.625 16 7.625V8.375ZM14.2917 6.66667C14.2917 7.60711 15.0596 8.375 16 8.375V7.625C15.4738 7.625 15.0417 7.1929 15.0417 6.66667H14.2917ZM16 4.95834C15.0596 4.95834 14.2917 5.72623 14.2917 6.66667H15.0417C15.0417 6.14045 15.4738 5.70834 16 5.70834V4.95834ZM18.6667 23.625H9.33333V24.375H18.6667V23.625ZM18.2917 21.3333V24H19.0417V21.3333H18.2917ZM9.33333 21.7083H18.6667V20.9583H9.33333V21.7083ZM9.70833 24V21.3333H8.95833V24H9.70833ZM9.33333 19.0417H22.6667V18.2917H9.33333V19.0417ZM8.95833 16V18.6667H9.70833V16H8.95833ZM22.6667 15.625H9.33333V16.375H22.6667V15.625ZM23.0417 18.6667V16H22.2917V18.6667H23.0417ZM22.6667 12.9583H9.33333V13.7083H22.6667V12.9583ZM22.2917 10.6667V13.3333H23.0417V10.6667H22.2917ZM9.33333 11.0417H22.6667V10.2917H9.33333V11.0417ZM9.70833 13.3333V10.6667H8.95833V13.3333H9.70833Z" fill="white"/>
</mask>
<g mask="url(#mask0)">
<rect width="32" height="32" fill="white"/>
</g>
</svg>
