<svg width="24" height="24" viewBox="0 0 24 24" fill="none" xmlns="http://www.w3.org/2000/svg">
<mask id="mask0" mask-type="alpha" maskUnits="userSpaceOnUse" x="2" y="1" width="20" height="22">
<path d="M14.82 4L14.4674 4.12767L14.557 4.375H14.82V4ZM9.18 4V4.375H9.44305L9.5326 4.12767L9.18 4ZM14 18V18.375H14.375V18H14ZM7 18H6.625V18.375H7V18ZM14 16H14.375V15.625H14V16ZM7 16V15.625H6.625V16H7ZM7 14H6.625V14.375H7V14ZM17 14V14.375H17.375V14H17ZM7 12V11.625H6.625V12H7ZM17 12H17.375V11.625H17V12ZM17 10V10.375H17.375V10H17ZM7 10H6.625V10.375H7V10ZM17 8H17.375V7.625H17V8ZM7 8V7.625H6.625V8H7ZM14.82 4.375H19V3.625H14.82V4.375ZM12 2.375C13.1329 2.375 14.0979 3.10725 14.4674 4.12767L15.1726 3.87233C14.7021 2.57275 13.4671 1.625 12 1.625V2.375ZM9.5326 4.12767C9.90206 3.10725 10.8671 2.375 12 2.375V1.625C10.5329 1.625 9.29794 2.57275 8.8274 3.87233L9.5326 4.12767ZM5 4.375H9.18V3.625H5V4.375ZM3.375 6C3.375 5.10711 4.10711 4.375 5 4.375V3.625C3.69289 3.625 2.625 4.69289 2.625 6H3.375ZM3.375 20V6H2.625V20H3.375ZM5 21.625C4.10711 21.625 3.375 20.8929 3.375 20H2.625C2.625 21.3071 3.69289 22.375 5 22.375V21.625ZM19 21.625H5V22.375H19V21.625ZM20.625 20C20.625 20.8929 19.8929 21.625 19 21.625V22.375C20.3071 22.375 21.375 21.3071 21.375 20H20.625ZM20.625 6V20H21.375V6H20.625ZM19 4.375C19.8929 4.375 20.625 5.10711 20.625 6H21.375C21.375 4.69289 20.3071 3.625 19 3.625V4.375ZM13.375 5C13.375 4.24289 12.7571 3.625 12 3.625V4.375C12.3429 4.375 12.625 4.65711 12.625 5H13.375ZM12 6.375C12.7571 6.375 13.375 5.75711 13.375 5H12.625C12.625 5.34289 12.3429 5.625 12 5.625V6.375ZM10.625 5C10.625 5.75711 11.2429 6.375 12 6.375V5.625C11.6571 5.625 11.375 5.34289 11.375 5H10.625ZM12 3.625C11.2429 3.625 10.625 4.24289 10.625 5H11.375C11.375 4.65711 11.6571 4.375 12 4.375V3.625ZM14 17.625H7V18.375H14V17.625ZM13.625 16V18H14.375V16H13.625ZM7 16.375H14V15.625H7V16.375ZM7.375 18V16H6.625V18H7.375ZM7 14.375H17V13.625H7V14.375ZM6.625 12V14H7.375V12H6.625ZM17 11.625H7V12.375H17V11.625ZM17.375 14V12H16.625V14H17.375ZM17 9.625H7V10.375H17V9.625ZM16.625 8V10H17.375V8H16.625ZM7 8.375H17V7.625H7V8.375ZM7.375 10V8H6.625V10H7.375Z" fill="white"/>
</mask>
<g mask="url(#mask0)">
<rect width="24" height="24" fill="#4D4D4D"/>
</g>
</svg>
