<svg width="80" height="80" viewBox="0 0 80 80" fill="none" xmlns="http://www.w3.org/2000/svg">
<path d="M72.4049 12.4003L72.405 12.4004C77.0213 16.9758 79.4249 22.185 79.4249 27.4597C79.4249 33.0442 76.7466 38.5221 71.5967 43.296C68.2989 46.3533 64.4276 48.7373 60.0872 50.3808C55.8069 52.0015 51.2783 52.824 46.6284 52.824H46.6284H46.6284H46.6283H46.6283H46.6283H46.6282H46.6282H46.6282H46.6281H46.6281H46.6281H46.6281H46.628H46.628H46.628H46.6279H46.6279H46.6279H46.6278H46.6278H46.6278H46.6277H46.6277H46.6277H46.6277H46.6276H46.6276H46.6276H46.6275H46.6275H46.6275H46.6274H46.6274H46.6274H46.6273H46.6273H46.6273H46.6273H46.6272H46.6272H46.6272H46.6271H46.6271H46.6271H46.627H46.627H46.627H46.6269H46.6269H46.6269H46.6269H46.6268H46.6268H46.6268H46.6267H46.6267H46.6267H46.6266L33.4497 52.8234C28.7992 52.8234 24.2719 52.0009 19.9909 50.3796C15.6511 48.736 11.7798 46.3521 8.48262 43.2954C3.33402 38.5215 0.65625 33.0442 0.65625 27.4597C0.65625 22.1844 3.05989 16.9759 7.67681 12.3998C8.16424 11.917 8.82205 11.6462 9.50867 11.6462H70.5731C71.2592 11.6462 71.9176 11.9171 72.4049 12.4003ZM10.3276 17.1573C7.38657 20.4204 5.86047 23.8816 5.86047 27.4597C5.86047 31.6831 7.97347 35.7271 12.0209 39.4792C17.6073 44.6581 25.4178 47.6191 33.4503 47.6191L46.6272 47.6198H46.6284C54.661 47.6198 62.472 44.6587 68.059 39.4799L67.7191 39.1132L68.059 39.4798C72.107 35.7272 74.2213 31.6825 74.2213 27.4597C74.2213 23.8288 72.6498 20.3182 69.6229 17.0122L69.4743 16.8499H69.2542H10.8276H10.3276V17.1573Z" fill="white" stroke="#808080"/>
<path d="M41.577 68.9622L41.5763 68.9624C41.0934 69.1175 40.5767 69.2009 40.0404 69.2009C37.255 69.2009 34.9959 66.9419 34.9959 64.1565C34.9959 61.3711 37.255 59.1121 40.0404 59.1121C40.5767 59.1121 41.0934 59.1955 41.5763 59.3506L41.577 59.3508C43.6127 60.0012 45.0842 61.9077 45.0842 64.1565C45.0842 66.4053 43.6127 68.3118 41.577 68.9622Z" fill="white" stroke="#808080"/>
<path d="M18.5357 9.70719L18.5358 9.70702C18.8531 8.95949 19.1931 8.22311 19.5557 7.5H60.4456C60.8087 8.22349 61.1501 8.95983 61.4672 9.70689C63.419 14.3088 64.5 19.372 64.5 24.6915C64.5 41.004 54.3309 54.9329 39.9997 60.4646C25.6703 54.9329 15.5 41.004 15.5 24.6915C15.5 19.372 16.5804 14.3089 18.5357 9.70719Z" fill="white" stroke="#808080"/>
<path d="M25.051 77.907L25.0503 77.9063C24.0648 76.9236 23.4571 75.5646 23.4571 74.063C23.4571 71.0591 25.8914 68.6243 28.8958 68.6243H51.1853C52.6867 68.6243 54.0458 69.233 55.0288 70.2176L55.0294 70.2182C56.0151 71.2022 56.6222 72.5601 56.6222 74.063C56.6222 77.0657 54.1879 79.4999 51.1853 79.4999H28.8958C27.3942 79.4999 26.0351 78.8922 25.051 77.907Z" fill="white" stroke="#808080"/>
<path d="M41.6162 19.9325L41.6162 19.9325L43.866 24.4913L43.8661 24.4915C44.2678 25.3046 45.0438 25.869 45.9423 25.9995C45.9423 25.9995 45.9423 25.9995 45.9423 25.9995L50.9728 26.7307L50.9729 26.7308C52.4142 26.9398 52.9901 28.7115 51.9469 29.7286C51.9469 29.7286 51.9469 29.7286 51.9469 29.7286L48.3068 33.2766L48.3068 33.2766C47.6568 33.9102 47.36 34.8227 47.5136 35.7175L48.3729 40.7278C48.3729 40.7278 48.3729 40.7278 48.3729 40.7278C48.619 42.1631 47.1125 43.2581 45.8227 42.5805C45.8226 42.5805 45.8226 42.5804 45.8225 42.5804L41.3232 40.2148L41.3231 40.2147C40.5201 39.7927 39.56 39.7927 38.757 40.2147L38.757 40.2148L34.2575 42.5805C32.9683 43.2581 31.4611 42.1631 31.7072 40.7278C31.7072 40.7278 31.7072 40.7278 31.7072 40.7278L32.5665 35.7175C32.7201 34.8227 32.4233 33.9102 31.7733 33.2766L31.7733 33.2766L28.1332 29.7286C28.1332 29.7286 28.1332 29.7286 28.1332 29.7286C27.0902 28.7116 27.6664 26.9398 29.1072 26.7308L29.1073 26.7307L34.1378 25.9995C34.1378 25.9995 34.1378 25.9995 34.1379 25.9995C35.0363 25.869 35.8123 25.3046 36.214 24.4915L36.2141 24.4913L38.4639 19.9326C39.1088 18.6262 40.972 18.6265 41.6162 19.9325Z" fill="white" stroke="#808080"/>
<path d="M64.18 1.31614L64.1805 1.31669C64.687 1.82316 64.9978 2.51843 64.9978 3.28796C64.9978 4.82756 63.7502 6.07471 62.2111 6.07471H17.8697C17.1001 6.07471 16.4047 5.76385 15.8982 5.25784C15.394 4.75357 15.0835 4.05851 15.0835 3.28796C15.0835 1.74856 16.331 0.5 17.8697 0.5H62.2111C62.9809 0.5 63.6764 0.811025 64.18 1.31614Z" fill="white" stroke="#808080"/>
</svg>
