<svg width="16" height="20" viewBox="0 0 16 20" fill="none" xmlns="http://www.w3.org/2000/svg">
<mask id="path-1-inside-1" fill="white">
<path fill-rule="evenodd" clip-rule="evenodd" d="M9.49771 2.22081C9.51488 2.11801 9.52381 2.01243 9.52381 1.90476C9.52381 0.852791 8.67102 0 7.61905 0C6.56708 0 5.71429 0.852791 5.71429 1.90476C5.71429 2.01242 5.72322 2.11799 5.74038 2.22077C3.50728 2.99779 1.90464 5.1213 1.90464 7.61914V14.3571C0.811364 14.6242 0 15.6102 0 16.7858V17.1429H15.2381V16.7858C15.2381 15.6102 14.4267 14.6241 13.3333 14.357V7.61914C13.3333 5.12135 11.7308 2.99786 9.49771 2.22081Z"/>
</mask>
<path d="M9.49771 2.22081L8.51137 2.0561L8.37244 2.88805L9.16906 3.16526L9.49771 2.22081ZM5.74038 2.22077L6.06901 3.16523L6.86563 2.88804L6.72672 2.05608L5.74038 2.22077ZM1.90464 14.3571L2.14195 15.3285L2.90464 15.1422V14.3571H1.90464ZM0 17.1429H-1V18.1429H0V17.1429ZM15.2381 17.1429V18.1429H16.2381V17.1429H15.2381ZM13.3333 14.357H12.3333V15.1422L13.0961 15.3285L13.3333 14.357ZM10.4841 2.38552C10.5103 2.22851 10.5238 2.06784 10.5238 1.90476H8.52381C8.52381 1.95702 8.51948 2.00752 8.51137 2.0561L10.4841 2.38552ZM10.5238 1.90476C10.5238 0.300505 9.2233 -1 7.61905 -1V1C8.11874 1 8.52381 1.40508 8.52381 1.90476H10.5238ZM7.61905 -1C6.01479 -1 4.71429 0.300506 4.71429 1.90476H6.71429C6.71429 1.40508 7.11936 1 7.61905 1V-1ZM4.71429 1.90476C4.71429 2.06782 4.72782 2.22847 4.75403 2.38546L6.72672 2.05608C6.71861 2.0075 6.71429 1.95701 6.71429 1.90476H4.71429ZM5.41175 1.27631C2.78915 2.18886 0.904637 4.68263 0.904637 7.61914H2.90464C2.90464 5.55997 4.2254 3.80672 6.06901 3.16523L5.41175 1.27631ZM0.904637 7.61914V14.3571H2.90464V7.61914H0.904637ZM1.66732 13.3856C0.136793 13.7596 -1 15.1387 -1 16.7858H1C1 16.0818 1.48594 15.4888 2.14195 15.3285L1.66732 13.3856ZM-1 16.7858V17.1429H1V16.7858H-1ZM0 18.1429H15.2381V16.1429H0V18.1429ZM16.2381 17.1429V16.7858H14.2381V17.1429H16.2381ZM16.2381 16.7858C16.2381 15.1386 15.1012 13.7594 13.5706 13.3856L13.0961 15.3285C13.7521 15.4887 14.2381 16.0817 14.2381 16.7858H16.2381ZM14.3333 14.357V7.61914H12.3333V14.357H14.3333ZM14.3333 7.61914C14.3333 4.68268 12.4489 2.18895 9.82636 1.27636L9.16906 3.16526C11.0126 3.80678 12.3333 5.56001 12.3333 7.61914H14.3333Z" fill="#4D4D4D" mask="url(#path-1-inside-1)"/>
<path fill-rule="evenodd" clip-rule="evenodd" d="M8.09524 20C9.4102 20 10.4762 17.619 10.4762 17.619H5.71429C5.71429 17.619 6.78028 20 8.09524 20Z" fill="#4D4D4D"/>
</svg>
