<svg width="19" height="24" viewBox="0 0 19 24" fill="none" xmlns="http://www.w3.org/2000/svg">
<mask id="path-1-inside-1" fill="white">
<path fill-rule="evenodd" clip-rule="evenodd" d="M11.3973 2.66497C11.4179 2.54162 11.4286 2.41492 11.4286 2.28571C11.4286 1.02335 10.4052 0 9.14286 0C7.88049 0 6.85715 1.02335 6.85715 2.28571C6.85715 2.4149 6.86786 2.54158 6.88846 2.66492C4.20874 3.59735 2.28557 6.14557 2.28557 9.14297V17.152C1.00524 17.2607 0 18.3344 0 19.6429V20.5715H18.2857V19.6429C18.2857 18.3344 17.2804 17.2607 16 17.152V9.14297C16 6.14562 14.0769 3.59743 11.3973 2.66497Z"/>
</mask>
<path d="M11.3973 2.66497L10.4109 2.50026L10.272 3.33221L11.0686 3.60942L11.3973 2.66497ZM6.88846 2.66492L7.21709 3.60938L8.01371 3.33219L7.8748 2.50023L6.88846 2.66492ZM2.28557 17.152L2.37021 18.1484L3.28557 18.0706V17.152H2.28557ZM0 20.5715H-1V21.5715H0V20.5715ZM18.2857 20.5715V21.5715H19.2857V20.5715H18.2857ZM16 17.152H15V18.0707L15.9154 18.1484L16 17.152ZM12.3836 2.82968C12.4133 2.65212 12.4286 2.47033 12.4286 2.28571H10.4286C10.4286 2.35951 10.4225 2.43112 10.4109 2.50026L12.3836 2.82968ZM12.4286 2.28571C12.4286 0.471064 10.9575 -1 9.14286 -1V1C9.85294 1 10.4286 1.57563 10.4286 2.28571H12.4286ZM9.14286 -1C7.32821 -1 5.85715 0.471064 5.85715 2.28571H7.85715C7.85715 1.57563 8.43278 1 9.14286 1V-1ZM5.85715 2.28571C5.85715 2.4703 5.87247 2.65207 5.90211 2.82961L7.8748 2.50023C7.86326 2.4311 7.85715 2.3595 7.85715 2.28571H5.85715ZM6.55983 1.72046C3.49061 2.78842 1.28557 5.70689 1.28557 9.14297H3.28557C3.28557 6.58424 4.92686 4.40628 7.21709 3.60938L6.55983 1.72046ZM1.28557 9.14297V17.152H3.28557V9.14297H1.28557ZM2.20092 16.1556C0.407414 16.3079 -1 17.8105 -1 19.6429H1C1 18.8583 1.60306 18.2136 2.37021 18.1484L2.20092 16.1556ZM-1 19.6429V20.5715H1V19.6429H-1ZM0 21.5715H18.2857V19.5715H0V21.5715ZM19.2857 20.5715V19.6429H17.2857V20.5715H19.2857ZM19.2857 19.6429C19.2857 17.8104 17.8782 16.3078 16.0846 16.1555L15.9154 18.1484C16.6826 18.2135 17.2857 18.8583 17.2857 19.6429H19.2857ZM17 17.152V9.14297H15V17.152H17ZM17 9.14297C17 5.70695 14.795 2.78852 11.7259 1.72052L11.0686 3.60942C13.3588 4.40635 15 6.58428 15 9.14297H17Z" fill="#4D4D4D" mask="url(#path-1-inside-1)"/>
<path fill-rule="evenodd" clip-rule="evenodd" d="M9.71429 24C11.2922 24 12.5714 21.1429 12.5714 21.1429H6.85715C6.85715 21.1429 8.13633 24 9.71429 24Z" fill="#4D4D4D"/>
</svg>
