<svg width="32" height="31" viewBox="0 0 32 31" fill="none" xmlns="http://www.w3.org/2000/svg">
<mask id="mask0" mask-type="alpha" maskUnits="userSpaceOnUse" x="5" y="2" width="22" height="27">
<path d="M8.34582 5.11373V4.73873H7.97082V5.11373H8.34582ZM14.8667 5.11373H15.2417V4.73873H14.8667V5.11373ZM8.34582 15.3411H7.97082V15.9967L8.53593 15.6643L8.34582 15.3411ZM11.6062 13.4235L11.7964 13.1002L11.6062 12.9884L11.4161 13.1002L11.6062 13.4235ZM14.8667 15.3411L14.6765 15.6643L15.2417 15.9967V15.3411H14.8667ZM23.9958 2.18188H8.34582V2.93188H23.9958V2.18188ZM26.9792 5.11373C26.9792 3.49334 25.6304 2.18188 23.9958 2.18188V2.93188C25.2304 2.93188 26.2292 3.92158 26.2292 5.11373H26.9792ZM26.9792 25.5685V5.11373H26.2292V25.5685H26.9792ZM23.9958 28.5003C25.6304 28.5003 26.9792 27.1889 26.9792 25.5685H26.2292C26.2292 26.7606 25.2304 27.7503 23.9958 27.7503V28.5003ZM8.34582 28.5003H23.9958V27.7503H8.34582V28.5003ZM5.36249 25.5685C5.36249 27.1889 6.71121 28.5003 8.34582 28.5003V27.7503C7.11126 27.7503 6.11249 26.7606 6.11249 25.5685H5.36249ZM5.36249 5.11373V25.5685H6.11249V5.11373H5.36249ZM8.34582 2.18188C6.71121 2.18188 5.36249 3.49334 5.36249 5.11373H6.11249C6.11249 3.92158 7.11126 2.93188 8.34582 2.93188V2.18188ZM8.34582 5.48873H14.8667V4.73873H8.34582V5.48873ZM8.72082 15.3411V5.11373H7.97082V15.3411H8.72082ZM11.4161 13.1002L8.15571 15.0179L8.53593 15.6643L11.7964 13.7467L11.4161 13.1002ZM15.0568 15.0179L11.7964 13.1002L11.4161 13.7467L14.6765 15.6643L15.0568 15.0179ZM14.4917 5.11373V15.3411H15.2417V5.11373H14.4917Z" fill="white"/>
</mask>
<g mask="url(#mask0)">
<rect x="0.520813" width="31.3" height="30.6821" fill="#808080"/>
</g>
</svg>
