<svg width="24" height="24" viewBox="0 0 24 24" fill="none" xmlns="http://www.w3.org/2000/svg">
<mask id="mask0" mask-type="alpha" maskUnits="userSpaceOnUse" x="1" y="1" width="22" height="22">
<path d="M2 4H1.625V4.375H2V4ZM2 2V1.625H1.625V2H2ZM4 4L4.33882 3.83929L4.23718 3.625H4V4ZM7.6 11.59L7.92844 11.771L8.02111 11.6028L7.93882 11.4293L7.6 11.59ZM6.25 14.04L6.57563 14.2261L6.57844 14.221L6.25 14.04ZM20 17V17.375H20.375V17H20ZM20 15H20.375V14.625H20V15ZM8.17 14.75L7.8062 14.659L7.795 14.7038V14.75H8.17ZM8.2 14.63L7.87172 14.4487L7.84806 14.4916L7.8362 14.5391L8.2 14.63ZM9.1 13V12.625H8.87869L8.77172 12.8187L9.1 13ZM18.3 11.97L17.9716 11.7889L17.9712 11.7897L18.3 11.97ZM21.88 5.48L21.5544 5.29393L21.5516 5.29887L21.88 5.48ZM6.21 4L5.87062 4.15951L5.9719 4.375H6.21V4ZM5.27 2L5.60938 1.84049L5.5081 1.625H5.27V2ZM2.375 4V2H1.625V4H2.375ZM4 3.625H2V4.375H4V3.625ZM7.93882 11.4293L4.33882 3.83929L3.66118 4.16071L7.26118 11.7507L7.93882 11.4293ZM6.57844 14.221L7.92844 11.771L7.27156 11.409L5.92156 13.859L6.57844 14.221ZM6.375 15C6.375 14.7143 6.44845 14.4486 6.57559 14.2261L5.92441 13.8539C5.73155 14.1914 5.625 14.5857 5.625 15H6.375ZM8 16.625C7.10711 16.625 6.375 15.8929 6.375 15H5.625C5.625 16.3071 6.69289 17.375 8 17.375V16.625ZM20 16.625H8V17.375H20V16.625ZM19.625 15V17H20.375V15H19.625ZM8.42 15.375H20V14.625H8.42V15.375ZM7.795 14.75C7.795 15.0971 8.07289 15.375 8.42 15.375V14.625C8.48711 14.625 8.545 14.6829 8.545 14.75H7.795ZM7.8362 14.5391L7.8062 14.659L8.5338 14.841L8.5638 14.721L7.8362 14.5391ZM8.77172 12.8187L7.87172 14.4487L8.52828 14.8113L9.42828 13.1813L8.77172 12.8187ZM16.55 12.625H9.1V13.375H16.55V12.625ZM17.9712 11.7897C17.6959 12.2917 17.1608 12.625 16.55 12.625V13.375C17.4392 13.375 18.2241 12.8883 18.6288 12.1503L17.9712 11.7897ZM21.5516 5.29887L17.9716 11.7889L18.6284 12.1511L22.2084 5.66113L21.5516 5.29887ZM21.625 5C21.625 5.11449 21.5975 5.21851 21.5544 5.29395L22.2056 5.66605C22.3225 5.46149 22.375 5.22551 22.375 5H21.625ZM21 4.375C21.3429 4.375 21.625 4.65711 21.625 5H22.375C22.375 4.24289 21.7571 3.625 21 3.625V4.375ZM6.21 4.375H21V3.625H6.21V4.375ZM4.93062 2.15951L5.87062 4.15951L6.54938 3.84049L5.60938 1.84049L4.93062 2.15951ZM2 2.375H5.27V1.625H2V2.375ZM6.385 20C6.385 19.1047 7.10955 18.375 8 18.375V17.625C6.69045 17.625 5.635 18.6953 5.635 20H6.385ZM8 21.625C7.10955 21.625 6.385 20.8953 6.385 20H5.635C5.635 21.3047 6.69045 22.375 8 22.375V21.625ZM9.625 20C9.625 20.8929 8.89289 21.625 8 21.625V22.375C9.30711 22.375 10.375 21.3071 10.375 20H9.625ZM8 18.375C8.89289 18.375 9.625 19.1071 9.625 20H10.375C10.375 18.6929 9.30711 17.625 8 17.625V18.375ZM18 17.625C16.6905 17.625 15.635 18.6953 15.635 20H16.385C16.385 19.1047 17.1095 18.375 18 18.375V17.625ZM20.375 20C20.375 18.6929 19.3071 17.625 18 17.625V18.375C18.8929 18.375 19.625 19.1071 19.625 20H20.375ZM18 22.375C19.3071 22.375 20.375 21.3071 20.375 20H19.625C19.625 20.8929 18.8929 21.625 18 21.625V22.375ZM15.635 20C15.635 21.3047 16.6905 22.375 18 22.375V21.625C17.1095 21.625 16.385 20.8953 16.385 20H15.635Z" fill="white"/>
</mask>
<g mask="url(#mask0)">
<rect width="24" height="24" fill="#4D4D4D" stroke="#808080" stroke-width="0.75"/>
</g>
</svg>
