<svg width="32" height="32" viewBox="0 0 32 32" fill="none" xmlns="http://www.w3.org/2000/svg">
<path d="M6.57143 4.375H25.4286C26.6415 4.375 27.625 5.30258 27.625 6.25V25.75C27.625 26.6974 26.6415 27.625 25.4286 27.625H6.57143C5.3585 27.625 4.375 26.6974 4.375 25.75V6.25C4.375 5.30258 5.3585 4.375 6.57143 4.375ZM10.1714 25.375C10.4482 25.375 10.7046 25.2567 10.8898 25.0947C11.0715 24.9358 11.2321 24.6908 11.2321 24.4V22.6C11.2321 22.3092 11.0715 22.0642 10.8898 21.9053C10.7046 21.7433 10.4482 21.625 10.1714 21.625H8.11429C7.8375 21.625 7.58107 21.7433 7.39592 21.9053C7.21425 22.0642 7.05357 22.3092 7.05357 22.6V24.4C7.05357 24.6908 7.21425 24.9358 7.39592 25.0947C7.58107 25.2567 7.8375 25.375 8.11429 25.375H10.1714ZM10.1714 19.375C10.4482 19.375 10.7046 19.2567 10.8898 19.0947C11.0715 18.9358 11.2321 18.6908 11.2321 18.4V16.6C11.2321 16.3092 11.0715 16.0642 10.8898 15.9053C10.7046 15.7433 10.4482 15.625 10.1714 15.625H8.11429C7.8375 15.625 7.58107 15.7433 7.39592 15.9053C7.21425 16.0642 7.05357 16.3092 7.05357 16.6V18.4C7.05357 18.6908 7.21425 18.9358 7.39592 19.0947C7.58107 19.2567 7.8375 19.375 8.11429 19.375H10.1714ZM17.0286 25.375C17.3054 25.375 17.5618 25.2567 17.7469 25.0947C17.9286 24.9358 18.0893 24.6908 18.0893 24.4V22.6C18.0893 22.3092 17.9286 22.0642 17.7469 21.9053C17.5618 21.7433 17.3054 21.625 17.0286 21.625H14.9714C14.6946 21.625 14.4382 21.7433 14.2531 21.9053C14.0714 22.0642 13.9107 22.3092 13.9107 22.6V24.4C13.9107 24.6908 14.0714 24.9358 14.2531 25.0947C14.4382 25.2567 14.6946 25.375 14.9714 25.375H17.0286ZM17.0286 19.375C17.3054 19.375 17.5618 19.2567 17.7469 19.0947C17.9286 18.9358 18.0893 18.6908 18.0893 18.4V16.6C18.0893 16.3092 17.9286 16.0642 17.7469 15.9053C17.5618 15.7433 17.3054 15.625 17.0286 15.625H14.9714C14.6946 15.625 14.4382 15.7433 14.2531 15.9053C14.0714 16.0642 13.9107 16.3092 13.9107 16.6V18.4C13.9107 18.6908 14.0714 18.9358 14.2531 19.0947C14.4382 19.2567 14.6946 19.375 14.9714 19.375H17.0286ZM23.8857 25.375C24.1625 25.375 24.4189 25.2567 24.6041 25.0947C24.7858 24.9358 24.9464 24.6908 24.9464 24.4V16.6C24.9464 16.3092 24.7858 16.0642 24.6041 15.9053C24.4189 15.7433 24.1625 15.625 23.8857 15.625H21.8286C21.5518 15.625 21.2954 15.7433 21.1102 15.9053C20.9285 16.0642 20.7679 16.3092 20.7679 16.6V24.4C20.7679 24.6908 20.9285 24.9358 21.1102 25.0947C21.2954 25.2567 21.5518 25.375 21.8286 25.375H23.8857ZM23.8857 13.375C24.1625 13.375 24.4189 13.2567 24.6041 13.0947C24.7858 12.9358 24.9464 12.6908 24.9464 12.4V7.6C24.9464 7.30924 24.7858 7.06425 24.6041 6.90528C24.4189 6.74328 24.1625 6.625 23.8857 6.625H8.11429C7.8375 6.625 7.58107 6.74328 7.39592 6.90528C7.21425 7.06425 7.05357 7.30924 7.05357 7.6V12.4C7.05357 12.6908 7.21425 12.9358 7.39592 13.0947C7.58107 13.2567 7.8375 13.375 8.11429 13.375H23.8857Z" stroke="#808080" stroke-width="0.75"/>
</svg>
