<svg width="24" height="24" viewBox="0 0 24 24" fill="none" xmlns="http://www.w3.org/2000/svg">
<mask id="mask0" mask-type="alpha" maskUnits="userSpaceOnUse" x="1" y="0" width="22" height="24">
<path d="M19 3H18.625V3.375H19V3ZM5 3V3.375H5.375V3H5ZM5 1V0.625H4.625V1H5ZM7 1H7.375V0.625H7V1ZM7 3H6.625V3.375H7V3ZM17 3V3.375H17.375V3H17ZM17 1V0.625H16.625V1H17ZM19 1H19.375V0.625H19V1ZM20 21V21.375H20.375V21H20ZM4 21H3.625V21.375H4V21ZM20 8H20.375V7.625H20V8ZM4 8V7.625H3.625V8H4ZM20 2.625H19V3.375H20V2.625ZM22.375 5C22.375 3.69289 21.3071 2.625 20 2.625V3.375C20.8929 3.375 21.625 4.10711 21.625 5H22.375ZM22.375 21V5H21.625V21H22.375ZM20 23.375C21.3071 23.375 22.375 22.3071 22.375 21H21.625C21.625 21.8929 20.8929 22.625 20 22.625V23.375ZM4 23.375H20V22.625H4V23.375ZM1.625 21C1.625 22.3071 2.69289 23.375 4 23.375V22.625C3.10711 22.625 2.375 21.8929 2.375 21H1.625ZM1.625 5V21H2.375V5H1.625ZM4 2.625C2.69289 2.625 1.625 3.69289 1.625 5H2.375C2.375 4.10711 3.10711 3.375 4 3.375V2.625ZM5 2.625H4V3.375H5V2.625ZM4.625 1V3H5.375V1H4.625ZM7 0.625H5V1.375H7V0.625ZM7.375 3V1H6.625V3H7.375ZM17 2.625H7V3.375H17V2.625ZM16.625 1V3H17.375V1H16.625ZM19 0.625H17V1.375H19V0.625ZM19.375 3V1H18.625V3H19.375ZM20 20.625H4V21.375H20V20.625ZM19.625 8V21H20.375V8H19.625ZM4 8.375H20V7.625H4V8.375ZM4.375 21V8H3.625V21H4.375Z" fill="white"/>
</mask>
<g mask="url(#mask0)">
<rect width="24" height="24" fill="#808080"/>
</g>
</svg>
