<svg width="24" height="24" viewBox="0 0 24 24" fill="none" xmlns="http://www.w3.org/2000/svg">
<mask id="mask0" mask-type="alpha" maskUnits="userSpaceOnUse" x="1" y="2" width="22" height="20">
<path d="M7.17 5V5.375H7.33517L7.44666 5.25315L7.17 5ZM9 3V2.625H8.83483L8.72334 2.74685L9 3ZM16.83 5L16.5533 5.25315L16.6648 5.375H16.83V5ZM15 3L15.2767 2.74685L15.1652 2.625H15V3ZM7.44666 5.25315L9.27666 3.25315L8.72334 2.74685L6.89334 4.74685L7.44666 5.25315ZM4 5.375H7.17V4.625H4V5.375ZM2.375 7C2.375 6.10711 3.10711 5.375 4 5.375V4.625C2.69289 4.625 1.625 5.69289 1.625 7H2.375ZM2.375 19V7H1.625V19H2.375ZM4 20.625C3.10711 20.625 2.375 19.8929 2.375 19H1.625C1.625 20.3071 2.69289 21.375 4 21.375V20.625ZM20 20.625H4V21.375H20V20.625ZM21.625 19C21.625 19.8929 20.8929 20.625 20 20.625V21.375C21.3071 21.375 22.375 20.3071 22.375 19H21.625ZM21.625 7V19H22.375V7H21.625ZM20 5.375C20.8929 5.375 21.625 6.10711 21.625 7H22.375C22.375 5.69289 21.3071 4.625 20 4.625V5.375ZM16.83 5.375H20V4.625H16.83V5.375ZM14.7233 3.25315L16.5533 5.25315L17.1067 4.74685L15.2767 2.74685L14.7233 3.25315ZM9 3.375H15V2.625H9V3.375ZM6.625 13C6.625 15.9671 9.03289 18.375 12 18.375V17.625C9.44711 17.625 7.375 15.5529 7.375 13H6.625ZM12 7.625C9.03289 7.625 6.625 10.0329 6.625 13H7.375C7.375 10.4471 9.44711 8.375 12 8.375V7.625ZM17.375 13C17.375 10.0329 14.9671 7.625 12 7.625V8.375C14.5529 8.375 16.625 10.4471 16.625 13H17.375ZM12 18.375C14.9671 18.375 17.375 15.9671 17.375 13H16.625C16.625 15.5529 14.5529 17.625 12 17.625V18.375Z" fill="white"/>
</mask>
<g mask="url(#mask0)">
<rect width="24" height="24" fill="#FF8300"/>
<rect width="24" height="24" fill="white" fill-opacity="0.3"/>
</g>
</svg>
