<svg width="30" height="30" viewBox="0 0 30 30" fill="none" xmlns="http://www.w3.org/2000/svg">
<mask id="mask0" mask-type="alpha" maskUnits="userSpaceOnUse" x="2" y="3" width="26" height="24">
<path d="M8.9625 6.25V6.625H9.12767L9.23916 6.50315L8.9625 6.25ZM11.25 3.75V3.375H11.0848L10.9733 3.49685L11.25 3.75ZM21.0375 6.25L20.7608 6.50315L20.8723 6.625H21.0375V6.25ZM18.75 3.75L19.0267 3.49685L18.9152 3.375H18.75V3.75ZM9.23916 6.50315L11.5267 4.00315L10.9733 3.49685L8.68584 5.99685L9.23916 6.50315ZM5 6.625H8.9625V5.875H5V6.625ZM2.875 8.75C2.875 7.58211 3.83211 6.625 5 6.625V5.875C3.41789 5.875 2.125 7.16789 2.125 8.75H2.875ZM2.875 23.75V8.75H2.125V23.75H2.875ZM5 25.875C3.83211 25.875 2.875 24.9179 2.875 23.75H2.125C2.125 25.3321 3.41789 26.625 5 26.625V25.875ZM25 25.875H5V26.625H25V25.875ZM27.125 23.75C27.125 24.9179 26.1679 25.875 25 25.875V26.625C26.5821 26.625 27.875 25.3321 27.875 23.75H27.125ZM27.125 8.75V23.75H27.875V8.75H27.125ZM25 6.625C26.1679 6.625 27.125 7.58211 27.125 8.75H27.875C27.875 7.16789 26.5821 5.875 25 5.875V6.625ZM21.0375 6.625H25V5.875H21.0375V6.625ZM18.4733 4.00315L20.7608 6.50315L21.3142 5.99685L19.0267 3.49685L18.4733 4.00315ZM11.25 4.125H18.75V3.375H11.25V4.125ZM8.37501 16.25C8.37501 19.9071 11.3429 22.875 15 22.875V22.125C11.7571 22.125 9.12501 19.4929 9.12501 16.25H8.37501ZM15 9.62501C11.3429 9.62501 8.37501 12.5929 8.37501 16.25H9.12501C9.12501 13.0071 11.7571 10.375 15 10.375V9.62501ZM21.625 16.25C21.625 12.5929 18.6571 9.62501 15 9.62501V10.375C18.2429 10.375 20.875 13.0071 20.875 16.25H21.625ZM15 22.875C18.6571 22.875 21.625 19.9071 21.625 16.25H20.875C20.875 19.4929 18.2429 22.125 15 22.125V22.875Z" fill="#FF8300"/>
</mask>
<g mask="url(#mask0)">
<rect x="-0.5" y="-0.5" width="31" height="31" fill="white" stroke="white"/>
</g>
</svg>
