<svg width="143" height="120" viewBox="0 0 143 120" fill="none" xmlns="http://www.w3.org/2000/svg">
<g clip-path="url(#clip0)">
<g opacity="0.4">
<g opacity="0.4">
<g opacity="0.4">
<path opacity="0.4" d="M62.1512 110.984L58.168 114.806L59.3453 115.936L63.3286 112.113L62.1512 110.984Z" fill="#299991"/>
</g>
</g>
<g opacity="0.4">
<g opacity="0.4">
<path opacity="0.4" d="M49.9415 110.975L48.7642 112.104L52.7474 115.927L53.9247 114.797L49.9415 110.975Z" fill="#299991"/>
</g>
</g>
</g>
<g opacity="0.4">
<g opacity="0.4">
<g opacity="0.4">
<path opacity="0.4" d="M25.5463 54.1635L21.563 57.9863L22.7403 59.1162L26.7236 55.2934L25.5463 54.1635Z" fill="#299991"/>
</g>
<g opacity="0.4">
<path opacity="0.4" d="M16.1366 63.2175L12.1533 67.0403L13.3306 68.1702L17.3139 64.3474L16.1366 63.2175Z" fill="#299991"/>
</g>
</g>
<g opacity="0.4">
<g opacity="0.4">
<path opacity="0.4" d="M13.335 54.1636L12.1577 55.2935L16.141 59.1163L17.3183 57.9864L13.335 54.1636Z" fill="#299991"/>
</g>
<g opacity="0.4">
<path opacity="0.4" d="M22.7403 63.2141L21.563 64.344L25.5462 68.1668L26.7236 67.0369L22.7403 63.2141Z" fill="#299991"/>
</g>
</g>
</g>
<g opacity="0.4">
<g opacity="0.4">
<g opacity="0.4">
<path opacity="0.4" d="M84.2689 11.9638L80.2856 15.7866L81.463 16.9165L85.4462 13.0937L84.2689 11.9638Z" fill="#299991"/>
</g>
<g opacity="0.4">
<path opacity="0.4" d="M74.8573 21.0141L70.874 24.8369L72.0513 25.9668L76.0346 22.144L74.8573 21.0141Z" fill="#299991"/>
</g>
</g>
<g opacity="0.4">
<g opacity="0.4">
<path opacity="0.4" d="M72.0479 11.9548L70.8706 13.0847L74.8539 16.9075L76.0312 15.7776L72.0479 11.9548Z" fill="#299991"/>
</g>
<g opacity="0.4">
<path opacity="0.4" d="M81.4571 21.0093L80.2798 22.1392L84.263 25.9619L85.4404 24.8321L81.4571 21.0093Z" fill="#299991"/>
</g>
</g>
</g>
<g opacity="0.4">
<path opacity="0.4" d="M107.527 75.0506C106.574 75.0506 105.643 74.7788 104.851 74.2695C104.059 73.7603 103.442 73.0364 103.077 72.1895C102.713 71.3427 102.617 70.4108 102.803 69.5117C102.989 68.6127 103.448 67.7869 104.121 67.1387C104.795 66.4905 105.653 66.0491 106.587 65.8703C107.522 65.6915 108.49 65.7833 109.37 66.134C110.25 66.4848 111.003 67.0789 111.532 67.841C112.061 68.6032 112.344 69.4993 112.344 70.4159C112.342 71.6447 111.834 72.8227 110.931 73.6916C110.028 74.5604 108.804 75.0492 107.527 75.0506ZM107.527 67.3813C106.903 67.3813 106.293 67.5592 105.775 67.8927C105.256 68.2261 104.852 68.7001 104.613 69.2546C104.375 69.8091 104.312 70.4193 104.434 71.008C104.556 71.5966 104.856 72.1374 105.297 72.5618C105.738 72.9862 106.3 73.2752 106.912 73.3923C107.524 73.5094 108.158 73.4493 108.734 73.2196C109.31 72.9899 109.803 72.6009 110.149 72.1019C110.496 71.6028 110.681 71.0161 110.681 70.4159C110.681 69.6111 110.348 68.8392 109.757 68.2701C109.166 67.701 108.363 67.3813 107.527 67.3813Z" fill="#299991"/>
</g>
<g opacity="0.4">
<path opacity="0.4" d="M95.331 108.416L89.1787 102.475L95.3532 96.5332L101.528 102.475L95.331 108.416ZM91.5066 102.475L95.331 106.155L99.1555 102.475L95.331 98.7945L91.5066 102.475Z" fill="#299991"/>
</g>
<g opacity="0.4">
<path opacity="0.4" d="M30.1523 102.877L24 96.9413L30.1523 91L36.3268 96.9413L30.1523 102.877ZM26.3279 96.936L30.1523 100.616L33.9768 96.936L30.1523 93.256L26.3279 96.936Z" fill="#299991"/>
</g>
<path d="M24.7094 53.5891L20.7354 57.4184" stroke="white" stroke-width="3" stroke-miterlimit="10"/>
<path d="M15.3033 62.6399L11.3237 66.4692" stroke="white" stroke-width="3" stroke-miterlimit="10"/>
<path d="M11.3237 53.5891L15.3033 57.4184" stroke="white" stroke-width="3" stroke-miterlimit="10"/>
<path d="M20.7354 62.6399L24.7094 66.4692" stroke="white" stroke-width="3" stroke-miterlimit="10"/>
<path d="M83.4277 11.3865L79.4536 15.2105" stroke="white" stroke-width="3" stroke-miterlimit="10"/>
<path d="M74.0219 20.437L70.0479 24.2663" stroke="white" stroke-width="3" stroke-miterlimit="10"/>
<path d="M70.0479 11.3865L74.0219 15.2105" stroke="white" stroke-width="3" stroke-miterlimit="10"/>
<path d="M79.4536 20.437L83.4277 24.2663" stroke="white" stroke-width="3" stroke-miterlimit="10"/>
<path d="M112.854 38.4983L108.88 42.3223" stroke="white" stroke-width="3" stroke-miterlimit="10"/>
<path d="M103.448 47.5488L99.4741 51.3782" stroke="white" stroke-width="3" stroke-miterlimit="10"/>
<path d="M99.4741 38.4983L103.448 42.3223" stroke="white" stroke-width="3" stroke-miterlimit="10"/>
<path d="M108.88 47.5488L112.854 51.3782" stroke="white" stroke-width="3" stroke-miterlimit="10"/>
<path d="M106.103 73.1144C108.304 73.1144 110.088 71.3976 110.088 69.2797C110.088 67.1619 108.304 65.4451 106.103 65.4451C103.902 65.4451 102.118 67.1619 102.118 69.2797C102.118 71.3976 103.902 73.1144 106.103 73.1144Z" stroke="white" stroke-width="3" stroke-miterlimit="10"/>
<path d="M98.9096 101.333L93.9126 96.5249L88.9156 101.333L93.9126 106.142L98.9096 101.333Z" stroke="white" stroke-width="3" stroke-miterlimit="10"/>
<path d="M33.9941 95.8083L28.9971 91L24 95.8083L28.9971 100.617L33.9941 95.8083Z" stroke="white" stroke-width="3" stroke-miterlimit="10"/>
<path opacity="0.4" d="M59.3674 23.4666L53.2095 17.5466L47.0239 23.4666L53.2095 29.4293L59.3674 23.4666ZM53.2095 19.808L57.0339 23.488L53.2095 27.168L49.374 23.4666L53.2095 19.808Z" fill="#299991"/>
<path d="M56.5288 22.9511L51.5317 18.1428L46.5347 22.9511L51.5317 27.7595L56.5288 22.9511Z" stroke="white" stroke-width="3" stroke-miterlimit="10"/>
<path d="M60.2867 36.4337L68.938 36.5855C70.0072 36.6043 71.0077 37.0449 71.7192 37.8104C72.4308 38.5759 72.7952 39.6036 72.7323 40.6674L72.3236 47.5785L55.6149 47.2852L56.0239 40.3687C56.0881 39.3068 56.5729 38.2962 57.3721 37.5586C58.1712 36.8209 59.2193 36.4164 60.2867 36.4337V36.4337Z" stroke="#9DCAC7" stroke-width="3" stroke-miterlimit="10"/>
<path d="M81.2082 77.8376L83.4118 40.5681L72.7501 40.3786L72.3275 47.5742L55.6131 47.2811L56.039 40.0897L45.3806 39.9044L42.6207 86.6321L80.6476 87.2991L80.9112 82.8512" stroke="#9DCAC7" stroke-width="3" stroke-miterlimit="10"/>
<path d="M58.5729 36.8341L67.2242 36.9859C68.2934 37.0047 69.2938 37.4453 70.0054 38.2108C70.7169 38.9763 71.0813 40.004 71.0184 41.0678L70.6098 47.9788L53.901 47.6856L54.31 40.7691C54.3742 39.7072 54.8591 38.6966 55.6582 37.959C56.4573 37.2213 57.5055 36.8168 58.5729 36.8341V36.8341Z" stroke="white" stroke-width="3" stroke-miterlimit="10"/>
<path d="M79.4943 78.238L81.6979 40.9685L71.0362 40.779L70.6136 47.9746L53.8993 47.6815L54.3251 40.4901L43.6667 40.3048L40.9068 87.0324L78.9337 87.6995L79.1973 83.2516" stroke="white" stroke-width="3" stroke-miterlimit="10"/>
</g>
<defs>
<clipPath id="clip0">
<rect width="143" height="120" fill="white"/>
</clipPath>
</defs>
</svg>
