<svg width="30" height="31" viewBox="0 0 30 31" fill="none" xmlns="http://www.w3.org/2000/svg">
<path fill-rule="evenodd" clip-rule="evenodd" d="M16.9507 6.48059L14.0583 6.42983C13.8329 6.42625 13.6122 6.51177 13.4446 6.6665C13.2771 6.82111 13.1761 7.03214 13.1627 7.25312L13.0556 9.06381L17.6416 9.1443L17.7486 7.33504C17.7617 7.11355 17.6859 6.89884 17.5367 6.73832C17.3873 6.57768 17.1767 6.48455 16.9507 6.48059ZM14.0876 5.92823L14.1166 5.4265C13.6283 5.41859 13.1481 5.6036 12.7814 5.94211C12.4145 6.28074 12.1913 6.74542 12.1617 7.23449L11.9952 10.0495L18.5833 10.1652L18.7497 7.35261C18.7786 6.86267 18.6107 6.3901 18.2841 6.03868C17.9575 5.68739 17.4992 5.48587 17.0101 5.47728L14.1173 5.42651L14.0876 5.92823Z" fill="white"/>
<path fill-rule="evenodd" clip-rule="evenodd" d="M8.63172 6.57795L13.1977 6.65733L13.0553 9.06206L17.642 9.14248L17.7834 6.7363L22.3505 6.81749L21.5828 19.802L20.5833 19.7435L21.2892 7.80381L18.7263 7.75825L18.585 10.1642L11.9939 10.0486L12.1363 7.64406L9.57434 7.59951L8.71081 22.2201L20.4243 22.4256L20.484 21.4198L21.4834 21.4785L21.3668 23.4473L7.64959 23.2067L8.63172 6.57795Z" fill="white"/>
</svg>
