<svg width="20" height="20" viewBox="0 0 20 20" fill="none" xmlns="http://www.w3.org/2000/svg">
<mask id="mask0" mask-type="alpha" maskUnits="userSpaceOnUse" x="1" y="1" width="18" height="19">
<path fill-rule="evenodd" clip-rule="evenodd" d="M3.33331 1.29167C2.20716 1.29167 1.30009 2.2119 1.29997 3.33313L1.29997 3.33334L1.29164 18.3331L1.29114 19.2392L1.93181 18.5985L5.1553 15.375H16.6666C17.7904 15.375 18.7083 14.4571 18.7083 13.3333V3.33334C18.7083 2.20956 17.7904 1.29167 16.6666 1.29167H3.33331ZM2.04997 3.33334C2.04997 2.62133 2.62619 2.04167 3.33331 2.04167H16.6666C17.3762 2.04167 17.9583 2.62378 17.9583 3.33334V13.3333C17.9583 14.0429 17.3762 14.625 16.6666 14.625H4.99997H4.84464L4.73481 14.7348L2.04214 17.4275L2.04997 3.33355L2.04997 3.33334ZM15 7.5H4.99997V9.16667H15V7.5ZM11.6666 11.6667H4.99997V10H11.6666V11.6667ZM4.99997 6.66667H15V5.00001H4.99997V6.66667Z" fill="white"/>
</mask>
<g mask="url(#mask0)">
<rect width="20" height="20" fill="#4D4D4D"/>
</g>
</svg>
