<svg width="24" height="24" viewBox="0 0 24 24" fill="none" xmlns="http://www.w3.org/2000/svg">
<mask id="mask0" mask-type="alpha" maskUnits="userSpaceOnUse" x="3" y="2" width="20" height="20">
<path d="M4 3V2.625H3.625V3H4ZM18 10V9.625H17.625V10H18ZM18 8H17.625V8.375H18V8ZM20 8V8.375H20.375V8H20ZM18 5V4.625H17.625V5H18ZM20 5H20.375V4.625H20V5ZM4 3.375H20V2.625H4V3.375ZM4.375 13V3H3.625V13H4.375ZM8 16.625C5.99711 16.625 4.375 15.0029 4.375 13H3.625C3.625 15.4171 5.58289 17.375 8 17.375V16.625ZM14 16.625H8V17.375H14V16.625ZM17.625 13C17.625 15.0029 16.0029 16.625 14 16.625V17.375C16.4171 17.375 18.375 15.4171 18.375 13H17.625ZM17.625 10V13H18.375V10H17.625ZM20 9.625H18V10.375H20V9.625ZM21.625 8C21.625 8.89412 20.9017 9.625 20 9.625V10.375C21.3183 10.375 22.375 9.30588 22.375 8H21.625ZM21.625 5V8H22.375V5H21.625ZM20 3.375C20.9029 3.375 21.625 4.09711 21.625 5H22.375C22.375 3.68289 21.3171 2.625 20 2.625V3.375ZM18 8.375H20V7.625H18V8.375ZM17.625 5V8H18.375V5H17.625ZM20 4.625H18V5.375H20V4.625ZM20.375 8V5H19.625V8H20.375ZM4.375 20C4.375 19.6548 4.65482 19.375 5 19.375V18.625C4.24061 18.625 3.625 19.2406 3.625 20H4.375ZM5 20.625C4.65482 20.625 4.375 20.3452 4.375 20H3.625C3.625 20.7594 4.24061 21.375 5 21.375V20.625ZM19 20.625H5V21.375H19V20.625ZM19.625 20C19.625 20.3452 19.3452 20.625 19 20.625V21.375C19.7594 21.375 20.375 20.7594 20.375 20H19.625ZM19 19.375C19.3452 19.375 19.625 19.6548 19.625 20H20.375C20.375 19.2406 19.7594 18.625 19 18.625V19.375ZM5 19.375H19V18.625H5V19.375Z" fill="white"/>
</mask>
<g mask="url(#mask0)">
<rect width="24" height="24" fill="#4D4D4D"/>
</g>
</svg>
