<svg width="258" height="216" viewBox="0 0 258 216" fill="none" xmlns="http://www.w3.org/2000/svg">
<g opacity="0.4">
<g opacity="0.4">
<g opacity="0.4">
<path opacity="0.4" d="M111.8 198.9L104.6 205.8L106.7 207.8L113.9 200.9L111.8 198.9Z" fill="#299991"/>
</g>
</g>
<g opacity="0.4">
<g opacity="0.4">
<path opacity="0.4" d="M89.9 198.9L87.8 200.9L95 207.8L97.1 205.8L89.9 198.9Z" fill="#299991"/>
</g>
</g>
</g>
<g opacity="0.4">
<g opacity="0.4">
<g opacity="0.4">
<path opacity="0.4" d="M46 97.1L38.8 104L40.9 106L48.1 99.1L46 97.1Z" fill="#299991"/>
</g>
<g opacity="0.4">
<path opacity="0.4" d="M29 113.3L21.8 120.2L23.9 122.2L31.1 115.3L29 113.3Z" fill="#299991"/>
</g>
</g>
<g opacity="0.4">
<g opacity="0.4">
<path opacity="0.4" d="M24 97.1L21.9 99.1L29 106L31.1 104L24 97.1Z" fill="#299991"/>
</g>
<g opacity="0.4">
<path opacity="0.4" d="M40.9 113.3L38.8 115.3L46 122.2L48.1 120.2L40.9 113.3Z" fill="#299991"/>
</g>
</g>
</g>
<g opacity="0.4">
<g opacity="0.4">
<g opacity="0.4">
<path opacity="0.4" d="M151.6 21.4L144.4 28.3L146.5 30.3L153.7 23.4L151.6 21.4Z" fill="#299991"/>
</g>
<g opacity="0.4">
<path opacity="0.4" d="M134.7 37.7L127.5 44.6L129.6 46.6L136.8 39.7L134.7 37.7Z" fill="#299991"/>
</g>
</g>
<g opacity="0.4">
<g opacity="0.4">
<path opacity="0.4" d="M129.6 21.4L127.5 23.4L134.7 30.3L136.8 28.3L129.6 21.4Z" fill="#299991"/>
</g>
<g opacity="0.4">
<path opacity="0.4" d="M146.6 37.7L144.5 39.7L151.7 46.6L153.8 44.6L146.6 37.7Z" fill="#299991"/>
</g>
</g>
</g>
<g opacity="0.4">
<path opacity="0.4" d="M193.5 134.5C191.8 134.5 190.1 134 188.7 133.1C187.3 132.2 186.2 130.9 185.5 129.4C184.8 127.9 184.7 126.2 185 124.6C185.3 123 186.2 121.5 187.4 120.3C188.6 119.1 190.2 118.3 191.8 118C193.5 117.7 195.2 117.8 196.8 118.5C198.4 119.1 199.7 120.2 200.7 121.6C201.7 123 202.2 124.6 202.2 126.2C202.2 128.4 201.3 130.5 199.7 132.1C198 133.6 195.8 134.5 193.5 134.5ZM193.5 120.8C192.4 120.8 191.3 121.1 190.3 121.7C189.4 122.3 188.6 123.1 188.2 124.1C187.8 125.1 187.7 126.2 187.9 127.2C188.1 128.3 188.7 129.2 189.5 130C190.3 130.8 191.3 131.3 192.4 131.5C193.5 131.7 194.6 131.6 195.7 131.2C196.7 130.8 197.6 130.1 198.2 129.2C198.8 128.3 199.2 127.3 199.2 126.2C199.2 124.8 198.6 123.4 197.5 122.4C196.4 121.3 195 120.8 193.5 120.8Z" fill="#299991"/>
</g>
<g opacity="0.4">
<path opacity="0.4" d="M219.5 196.8L208.4 186.2L219.5 175.6L230.6 186.2L219.5 196.8ZM212.6 186.2L219.5 192.8L226.4 186.2L219.5 179.6L212.6 186.2Z" fill="#299991"/>
</g>
<g opacity="0.4">
<path opacity="0.4" d="M227.5 39.9L216.4 29.3L227.5 18.7L238.6 29.3L227.5 39.9ZM220.6 29.3L227.5 35.9L234.4 29.3L227.5 22.7L220.6 29.3Z" fill="#299991"/>
</g>
<g opacity="0.4">
<g opacity="0.4">
<g opacity="0.4">
<path opacity="0.4" d="M152.6 184.5L147.8 172.8L211.2 149.1L216 160.8L207.2 164.1L206.1 161.4L212.1 159.2L209.5 152.9L151.7 174.5L154.3 180.8L197.3 164.7L198.4 167.4L152.6 184.5Z" fill="#299991"/>
</g>
<g opacity="0.4">
<path opacity="0.4" d="M175.1 164.2L172.3 165.2L176 174.2L178.8 173.2L175.1 164.2Z" fill="#299991"/>
</g>
</g>
<g opacity="0.4">
<path opacity="0.4" d="M153.4 184.1H135.7L148.7 172.6L150.7 174.7L143.3 181.2H153.3V184.1H153.4Z" fill="#299991"/>
</g>
</g>
<path d="M44.5 96L37.3 102.9" stroke="white" stroke-width="3" stroke-miterlimit="10"/>
<path d="M27.5 112.3L20.3 119.2" stroke="white" stroke-width="3" stroke-miterlimit="10"/>
<path d="M20.4 96L27.6 102.9" stroke="white" stroke-width="3" stroke-miterlimit="10"/>
<path d="M37.3 112.3L44.5 119.2" stroke="white" stroke-width="3" stroke-miterlimit="10"/>
<path d="M150.1 20.4L142.9 27.3" stroke="white" stroke-width="3" stroke-miterlimit="10"/>
<path d="M133.2 36.6L126 43.5" stroke="white" stroke-width="3" stroke-miterlimit="10"/>
<path d="M126 20.4L133.2 27.3" stroke="white" stroke-width="3" stroke-miterlimit="10"/>
<path d="M143 36.6L150.2 43.5" stroke="white" stroke-width="3" stroke-miterlimit="10"/>
<path d="M190.9 131C194.9 131 198.1 127.9 198.1 124.1C198.1 120.3 194.9 117.2 190.9 117.2C186.9 117.2 183.7 120.3 183.7 124.1C183.7 127.9 187 131 190.9 131Z" stroke="white" stroke-width="3" stroke-miterlimit="10"/>
<path d="M226 184.1L217 175.5L208 184.1L217 192.7L226 184.1Z" stroke="white" stroke-width="3" stroke-miterlimit="10"/>
<path d="M233.9 27.3L224.9 18.7L215.9 27.3L224.9 35.9L233.9 27.3Z" stroke="white" stroke-width="3" stroke-miterlimit="10"/>
<path d="M195.3 164L150.9 180.6L147.2 171.6L207.8 148.9L211.5 157.9L204.1 160.7" stroke="white" stroke-width="3" stroke-miterlimit="10"/>
<path d="M171.1 162.7L174.8 171.7" stroke="white" stroke-width="3" stroke-miterlimit="10"/>
<path d="M147.2 171.6L137 180.6H150.9" stroke="white" stroke-width="3" stroke-miterlimit="10"/>
<path opacity="0.4" d="M224.4 98.9C225.3 100.2 225.7 101.8 225.4 103.3C225.1 104.8 224.2 106.2 222.9 107.1L213.8 113.2C213.1 113.6 212.4 114 211.6 114.1C210.8 114.3 210 114.3 209.2 114.1C208.4 114 207.6 113.7 207 113.3C206.3 112.9 205.7 112.3 205.3 111.7L198.8 102.7C202.2 100.4 211.4 94.3 218 89.9L221.1 94.1L223.6 92.4L217 83.4C214.9 80.6 211.8 78.5 208.3 77.7C204.8 76.9 201.1 77.4 197.9 79.1L195.2 75.2C193.1 72.1 192.2 68.4 192.6 64.8C193 61.1 194.7 57.7 197.5 55.1C201.1 51.7 203.2 47.2 203.4 42.3C203.6 37.5 201.8 32.8 198.4 29.2L188.6 18.8L186.4 20.7L196.2 31.1C199.1 34.1 200.6 38.1 200.4 42.2C200.3 46.3 198.5 50.2 195.4 53C192.2 56 190.1 60.1 189.6 64.4C189.1 68.7 190.2 73.1 192.7 76.7L195.5 80.7C192.7 83 191 86.1 190.5 89.6C190 93.1 190.9 96.6 193 99.4L203.1 113.2C204.3 114.8 205.9 116 207.8 116.5C209.7 117.1 211.8 117 213.7 116.4C214.4 116.1 215.1 115.8 215.8 115.4L224.9 109.3C226.9 108 228.2 105.9 228.7 103.7C229.1 101.4 228.6 99.1 227.2 97.2L224.4 98.9ZM193.3 89.4C193.8 87 195 84.8 196.9 83.1L203.3 91.9L205.8 90.3L199.4 81.5C201.9 80.2 204.8 79.9 207.6 80.6C210.4 81.2 212.8 82.8 214.4 85.1L216.2 87.6C209.3 92.2 200.2 98.3 197.1 100.4L195.3 97.9C194.4 96.7 193.8 95.3 193.5 93.9C193.2 92.5 193 90.9 193.3 89.4Z" fill="#299991"/>
<path opacity="0.4" d="M106.8 42.1L95.7 31.4L84.6 42.1L95.7 52.8L106.8 42.1ZM95.7 35.5L102.6 42.1L95.7 48.7L88.8 42.1L95.7 35.5Z" fill="#299991"/>
<path opacity="0.4" d="M118.9 162.6L116.6 160.8L112.3 165.7L61.2 124.7L114.5 63.7L127.2 73.9L124.6 76.9L117.6 71.3L72.6 122.8L104.7 148.6L121.6 147.1L158.9 104.4L150.4 97.6L153 94.6L165.6 104.7L122.6 153.9L124.9 155.7L169.9 104.2L154.8 92.1C155.7 90.4 156 88.4 155.6 86.5C155.2 84.6 154.1 82.9 152.6 81.7L140.3 72C138.8 70.8 136.8 70.1 134.8 70C132.8 70 130.8 70.6 129.2 71.7L114.1 59.6L57 125L112.7 169.7L118.9 162.6ZM108.6 145.2L112.5 140.8L117.1 144.5L108.6 145.2ZM148.4 99.7L154.6 104.7L120.6 143.6L112.1 136.8L104.9 145L76.8 122.4L118 75.2L122.7 79L118.7 83.6L144.4 104.2L148.4 99.7ZM134.1 72.9C134.9 72.8 135.6 72.9 136.4 73.1C137.1 73.3 137.8 73.7 138.4 74.2L150.5 84C151.7 85 152.4 86.3 152.6 87.8C152.7 89.3 152.3 90.8 151.3 91.9L144.1 100.1L122.9 83.1L125 80.7L139.2 92.1L141.1 89.9L126.9 78.5L130.1 74.8C130.6 74.2 131.2 73.8 131.9 73.4C132.6 73.2 133.3 73 134.1 72.9Z" fill="#299991"/>
<path opacity="0.4" d="M118.1 86.5L116.2 88.7L139.7 107.5L141.6 105.3L118.1 86.5Z" fill="#299991"/>
<path opacity="0.4" d="M111.1 94.5L109.2 96.7L132.6 115.5L134.5 113.3L111.1 94.5Z" fill="#299991"/>
<path opacity="0.4" d="M104.1 102.5L102.2 104.7L125.7 123.5L127.6 121.3L104.1 102.5Z" fill="#299991"/>
<path d="M219 93.3L212.5 84.3C210.5 81.6 207.4 79.8 204 79.2C200.6 78.6 197.1 79.4 194.2 81.3C191.3 83.2 189.4 86.1 188.8 89.4C188.2 92.7 188.9 96 190.9 98.8L201 112.7C201.6 113.5 202.3 114.2 203.1 114.7C203.9 115.2 204.9 115.6 205.9 115.7C206.9 115.9 207.9 115.9 208.9 115.6C209.9 115.4 210.8 115 211.6 114.5L220.7 108.4C221.5 107.9 222.2 107.2 222.8 106.3C223.3 105.5 223.7 104.6 223.9 103.6C224.1 102.7 224.1 101.7 223.8 100.7C223.6 99.8 223.2 98.9 222.6 98.1" stroke="white" stroke-width="3" stroke-miterlimit="10"/>
<path d="M201.4 91.2L194.1 81.1L190.6 76C188.3 72.6 187.3 68.6 187.7 64.6C188.1 60.6 190 56.9 193 54.1C196.3 51 198.3 46.8 198.4 42.3C198.6 37.8 196.9 33.5 193.8 30.2L184 19.8" stroke="white" stroke-width="3" stroke-miterlimit="10"/>
<path d="M193.5 102.4C193.9 102.2 215.1 88 215.1 88" stroke="white" stroke-width="3" stroke-miterlimit="10"/>
<path d="M101.7 41.1L92.7 32.5L83.7 41.1L92.7 49.7L101.7 41.1Z" stroke="white" stroke-width="3" stroke-miterlimit="10"/>
<path d="M136.3 72.2L148.4 81.9C149.9 83.1 150.8 84.8 151 86.7C151.2 88.6 150.6 90.4 149.3 91.9L141.1 101.2L117.6 82.4L125.8 73C127.1 71.6 128.9 70.7 130.8 70.5C132.9 70.4 134.8 71 136.3 72.2Z" stroke="white" stroke-width="3" stroke-miterlimit="10"/>
<path d="M120.7 153.9L164.7 103.5L149.7 91.5L141.2 101.2L117.7 82.4L126.2 72.7L111.2 60.7L56 123.9L109.4 166.7L114.7 160.7" stroke="white" stroke-width="3" stroke-miterlimit="10"/>
<path d="M114.1 86.6L137.6 105.4" stroke="white" stroke-width="3" stroke-miterlimit="10"/>
<path d="M107.1 94.6L130.6 113.4" stroke="white" stroke-width="3" stroke-miterlimit="10"/>
<path d="M100.1 102.7L123.5 121.5" stroke="white" stroke-width="3" stroke-miterlimit="10"/>
<path d="M145.2 96.7L144.6 97.4L141.2 101.3L117.7 82.5L121.1 78.6L121.7 77.9L114.7 72.3L71.6 121.6L102.1 146.1L117.7 144.7L153.7 103.6L145.2 96.7Z" stroke="white" stroke-width="3" stroke-miterlimit="10"/>
<path d="M102.2 146L109.3 137.9L117.8 144.7" stroke="white" stroke-width="3" stroke-miterlimit="10"/>
<path d="M121.8 77.9L137.2 90.2" stroke="white" stroke-width="3" stroke-miterlimit="10"/>
</svg>
