<svg width="20" height="20" viewBox="0 0 20 20" fill="none" xmlns="http://www.w3.org/2000/svg">
<mask id="mask0" mask-type="alpha" maskUnits="userSpaceOnUse" x="3" y="2" width="14" height="16">
<path d="M15.8333 3.33333H16.2083V2.95833H15.8333V3.33333ZM12.9166 3.33333L12.6515 3.5985L12.7613 3.70833H12.9166V3.33333ZM15.8333 5V5.375H16.2083V5H15.8333ZM4.16663 5H3.79163V5.375H4.16663V5ZM4.16663 3.33333V2.95833H3.79163V3.33333H4.16663ZM7.08329 3.33333V3.70833H7.23862L7.34846 3.5985L7.08329 3.33333ZM7.91663 2.5V2.125H7.7613L7.65146 2.23483L7.91663 2.5ZM12.0833 2.5L12.3485 2.23483L12.2386 2.125H12.0833V2.5ZM4.99996 5.83333V5.45833H4.62496V5.83333H4.99996ZM15 5.83333H15.375V5.45833H15V5.83333ZM15.8333 2.95833H12.9166V3.70833H15.8333V2.95833ZM16.2083 5V3.33333H15.4583V5H16.2083ZM4.16663 5.375H15.8333V4.625H4.16663V5.375ZM3.79163 3.33333V5H4.54163V3.33333H3.79163ZM7.08329 2.95833H4.16663V3.70833H7.08329V2.95833ZM7.65146 2.23483L6.81813 3.06817L7.34846 3.5985L8.18179 2.76517L7.65146 2.23483ZM12.0833 2.125H7.91663V2.875H12.0833V2.125ZM13.1818 3.06817L12.3485 2.23483L11.8181 2.76517L12.6515 3.5985L13.1818 3.06817ZM4.62496 15.8333C4.62496 16.9571 5.54285 17.875 6.66663 17.875V17.125C5.95707 17.125 5.37496 16.5429 5.37496 15.8333H4.62496ZM4.62496 5.83333V15.8333H5.37496V5.83333H4.62496ZM15 5.45833H4.99996V6.20833H15V5.45833ZM15.375 15.8333V5.83333H14.625V15.8333H15.375ZM13.3333 17.875C14.4571 17.875 15.375 16.9571 15.375 15.8333H14.625C14.625 16.5429 14.0429 17.125 13.3333 17.125V17.875ZM6.66663 17.875H13.3333V17.125H6.66663V17.875Z" fill="white"/>
</mask>
<g mask="url(#mask0)">
<rect width="20" height="20" fill="#4D4D4D"/>
</g>
</svg>
