<svg width="21" height="20" viewBox="0 0 21 20" fill="none" xmlns="http://www.w3.org/2000/svg">
<mask id="mask0" mask-type="alpha" maskUnits="userSpaceOnUse" x="2" y="1" width="18" height="18">
<path d="M9.9242 1.66666H10.2992V1.25187L9.88651 1.29356L9.9242 1.66666ZM9.9242 7.63332L10.0677 7.97978L10.2992 7.8839V7.63332H9.9242ZM9.9242 18.3333L9.88651 18.7064L10.2992 18.7481V18.3333H9.9242ZM9.9242 12.3667H10.2992V12.1161L10.0677 12.0202L9.9242 12.3667ZM18.9989 9.16666V9.54166H19.4133L19.372 9.12933L18.9989 9.16666ZM13.1086 9.16666L12.7594 9.30333L12.8527 9.54166H13.1086V9.16666ZM11.5741 1.66666L11.6096 1.29334L11.1991 1.25436V1.66666H11.5741ZM11.5741 7.63332H11.1991V7.91152L11.4654 7.99221L11.5741 7.63332ZM11.5741 12.3667L11.4654 12.0078L11.1991 12.0885V12.3667H11.5741ZM11.5741 18.3333H11.1991V18.7456L11.6096 18.7066L11.5741 18.3333ZM13.1086 10.8333V10.4583H12.8527L12.7594 10.6966L13.1086 10.8333ZM18.9989 10.8333L19.372 10.8707L19.4133 10.4583H18.9989V10.8333ZM9.5492 1.66666V7.63332H10.2992V1.66666H9.5492ZM2.87445 9.99999C2.87445 5.84954 6.02985 2.43695 9.96189 2.03976L9.88651 1.29356C5.56883 1.7297 2.12445 5.4671 2.12445 9.99999H2.87445ZM9.96189 17.9602C6.02985 17.563 2.87445 14.1504 2.87445 9.99999H2.12445C2.12445 14.5329 5.56883 18.2703 9.88651 18.7064L9.96189 17.9602ZM9.5492 12.3667V18.3333H10.2992V12.3667H9.5492ZM7.89926 9.99999C7.89926 11.2837 8.84778 12.3267 9.78071 12.7131L10.0677 12.0202C9.35068 11.7232 8.64926 10.9163 8.64926 9.99999H7.89926ZM9.78071 7.28686C8.84778 7.67324 7.89926 8.71627 7.89926 9.99999H8.64926C8.64926 9.08371 9.35068 8.27674 10.0677 7.97978L9.78071 7.28686ZM18.9989 8.79166H13.1086V9.54166H18.9989V8.79166ZM11.5387 2.03998C15.4738 2.41363 18.2464 5.41233 18.6258 9.20398L19.372 9.12933C18.9594 5.00432 15.9242 1.70302 11.6096 1.29334L11.5387 2.03998ZM11.9491 7.63332V1.66666H11.1991V7.63332H11.9491ZM13.4578 9.02998C13.1513 8.24691 12.6537 7.56863 11.6829 7.27444L11.4654 7.99221C12.1445 8.19801 12.5049 8.65307 12.7594 9.30333L13.4578 9.02998ZM11.1991 12.3667V18.3333H11.9491V12.3667H11.1991ZM12.7594 10.6966C12.5049 11.3469 12.1445 11.802 11.4654 12.0078L11.6829 12.7255C12.6537 12.4313 13.1513 11.7531 13.4578 10.97L12.7594 10.6966ZM18.9989 10.4583H13.1086V11.2083H18.9989V10.4583ZM11.6096 18.7066C15.9242 18.297 18.9594 14.9957 19.372 10.8707L18.6258 10.796C18.2464 14.5876 15.4738 17.5864 11.5387 17.96L11.6096 18.7066Z" fill="white"/>
</mask>
<g mask="url(#mask0)">
<rect x="0.849487" width="19.7993" height="20" fill="#4D4D4D"/>
</g>
</svg>
