<svg width="20" height="20" viewBox="0 0 20 20" fill="none" xmlns="http://www.w3.org/2000/svg">
<mask id="mask0" mask-type="alpha" maskUnits="userSpaceOnUse" x="2" y="2" width="16" height="16">
<path d="M17.2583 5.86664L17.5235 6.13181L17.2583 5.86664ZM17.2583 4.69164L17.5235 4.42648V4.42648L17.2583 4.69164ZM15.7333 7.39164L15.4682 7.65681L15.7333 7.92197L15.9985 7.65681L15.7333 7.39164ZM12.6083 4.26664L12.3432 4.00148L12.078 4.26664L12.3432 4.53181L12.6083 4.26664ZM14.1333 2.74164L14.3985 3.00681V3.00681L14.1333 2.74164ZM15.3083 2.74164L15.0432 3.00681V3.00681L15.3083 2.74164ZM2.5 14.375L2.23483 14.1098L2.125 14.2196V14.375H2.5ZM2.5 17.5H2.125V17.875H2.5V17.5ZM11.7167 5.15831L11.9818 4.89315L11.7167 4.62798L11.4515 4.89315L11.7167 5.15831ZM14.8417 8.28331L15.1068 8.54847L15.372 8.28331L15.1068 8.01814L14.8417 8.28331ZM5.625 17.5V17.875H5.78033L5.89016 17.7651L5.625 17.5ZM17.5235 6.13181C17.9949 5.66036 17.9949 4.89793 17.5235 4.42648L16.9932 4.95681C17.1717 5.13536 17.1717 5.42293 16.9932 5.60148L17.5235 6.13181ZM15.9985 7.65681L17.5235 6.13181L16.9932 5.60148L15.4682 7.12648L15.9985 7.65681ZM12.3432 4.53181L15.4682 7.65681L15.9985 7.12648L12.8735 4.00148L12.3432 4.53181ZM13.8682 2.47648L12.3432 4.00148L12.8735 4.53181L14.3985 3.00681L13.8682 2.47648ZM15.5735 2.47648C15.1021 2.00503 14.3396 2.00503 13.8682 2.47648L14.3985 3.00681C14.5771 2.82826 14.8646 2.82826 15.0432 3.00681L15.5735 2.47648ZM17.5235 4.42648L15.5735 2.47648L15.0432 3.00681L16.9932 4.95681L17.5235 4.42648ZM2.125 14.375V17.5H2.875V14.375H2.125ZM11.4515 4.89315L2.23483 14.1098L2.76517 14.6401L11.9818 5.42348L11.4515 4.89315ZM15.1068 8.01814L11.9818 4.89315L11.4515 5.42348L14.5765 8.54847L15.1068 8.01814ZM5.89016 17.7651L15.1068 8.54847L14.5765 8.01814L5.35983 17.2348L5.89016 17.7651ZM2.5 17.875H5.625V17.125H2.5V17.875Z" fill="white"/>
</mask>
<g mask="url(#mask0)">
<rect width="20" height="20" fill="#4D4D4D" stroke="#4D4D4D" stroke-width="0.75"/>
</g>
</svg>
