<svg width="20" height="20" viewBox="0 0 20 20" fill="none" xmlns="http://www.w3.org/2000/svg">
<mask id="mask0" mask-type="alpha" maskUnits="userSpaceOnUse" x="3" y="2" width="14" height="16">
<path d="M15.8332 7.5L16.0983 7.76516L16.7385 7.125H15.8332V7.5ZM12.4998 7.5H12.1248V7.875H12.4998V7.5ZM9.99984 13.3333L9.73467 13.5985L9.99984 13.8637L10.265 13.5985L9.99984 13.3333ZM4.1665 7.5V7.125H3.26117L3.90134 7.76516L4.1665 7.5ZM7.49984 7.5V7.875H7.87484V7.5H7.49984ZM7.49984 2.5V2.125H7.12484V2.5H7.49984ZM12.4998 2.5H12.8748V2.125H12.4998V2.5ZM4.1665 15V14.625H3.7915V15H4.1665ZM4.1665 16.6667H3.7915V17.0417H4.1665V16.6667ZM15.8332 15H16.2082V14.625H15.8332V15ZM15.8332 16.6667V17.0417H16.2082V16.6667H15.8332ZM15.8332 7.125H12.4998V7.875H15.8332V7.125ZM10.265 13.5985L16.0983 7.76516L15.568 7.23484L9.73467 13.0682L10.265 13.5985ZM3.90134 7.76516L9.73467 13.5985L10.265 13.0682L4.43167 7.23484L3.90134 7.76516ZM7.49984 7.125H4.1665V7.875H7.49984V7.125ZM7.12484 2.5V7.5H7.87484V2.5H7.12484ZM12.4998 2.125H7.49984V2.875H12.4998V2.125ZM12.8748 7.5V2.5H12.1248V7.5H12.8748ZM3.7915 15V16.6667H4.5415V15H3.7915ZM15.8332 14.625H4.1665V15.375H15.8332V14.625ZM16.2082 16.6667V15H15.4582V16.6667H16.2082ZM4.1665 17.0417H15.8332V16.2917H4.1665V17.0417Z" fill="white"/>
</mask>
<g mask="url(#mask0)">
<rect width="20" height="20" fill="#AC162C"/>
</g>
</svg>
