<svg width="40" height="32" viewBox="0 0 40 32" fill="none" xmlns="http://www.w3.org/2000/svg">
<path d="M29.3389 6.27181L29.3323 6.2785L29.3261 6.28551L24.744 11.4445C20.7969 12.5055 17.8795 16.1598 17.8795 20.5C17.8795 23.0431 18.884 25.3482 20.5044 27.0382C20.0412 27.6459 19.1583 27.8399 18.4816 27.3232L14.8004 24.5109C14.4309 24.2283 14.2113 23.7835 14.2113 23.3088V16V15.8575L14.1167 15.751L5.71017 6.28551L5.70394 6.2785L5.69737 6.27181C5.00211 5.56367 5.50859 4.375 6.4607 4.375H28.5755C29.5277 4.375 30.0341 5.56367 29.3389 6.27181ZM24.6829 24.0022L24.683 24.0023C25.0659 24.295 25.5119 24.4887 25.9795 24.5706V25C25.9795 25.4078 26.3057 25.75 26.7227 25.75H27.459C27.876 25.75 28.2022 25.4078 28.2022 25V24.5805C29.3284 24.3694 30.166 23.3421 30.166 22.1317C30.166 21.0412 29.4702 20.0519 28.4472 19.7392L28.4472 19.7392L26.3762 19.1064L26.3756 19.1062C26.3211 19.0896 26.238 19.0097 26.238 18.8683C26.238 18.7869 26.2671 18.7209 26.304 18.6789C26.3404 18.6375 26.3775 18.625 26.406 18.625H27.6997C27.836 18.625 27.9683 18.6639 28.0877 18.7403L28.088 18.7405C28.3613 18.9149 28.7468 18.9216 29.0171 18.6592L29.0173 18.6591L29.5581 18.1336L29.5581 18.1335C29.8752 17.8252 29.8699 17.2822 29.4984 16.9979C29.1154 16.7046 28.6692 16.5111 28.2017 16.4294V16C28.2017 15.5922 27.8756 15.25 27.4586 15.25H26.7222C26.3052 15.25 25.979 15.5922 25.979 16V16.4196C24.8531 16.6307 24.0152 17.6583 24.0152 18.8683C24.0152 19.9588 24.711 20.9481 25.734 21.2608L25.734 21.2608L27.8051 21.8936L27.8056 21.8938C27.8602 21.9104 27.9433 21.9903 27.9433 22.1317C27.9433 22.2131 27.9141 22.2791 27.8772 22.3211C27.8408 22.3625 27.8037 22.375 27.7752 22.375H26.4815C26.3457 22.375 26.2132 22.3359 26.0929 22.2593C25.8197 22.0851 25.4343 22.0785 25.1641 22.3408L25.1639 22.3409L24.6232 22.8664L24.6231 22.8665C24.306 23.1748 24.3113 23.7179 24.6829 24.0022ZM20.1022 20.5C20.1022 16.5582 23.2374 13.375 27.0908 13.375C30.9443 13.375 34.0795 16.5582 34.0795 20.5C34.0795 24.4418 30.9443 27.625 27.0908 27.625C23.2374 27.625 20.1022 24.4418 20.1022 20.5Z" stroke="#808080" stroke-width="0.75"/>
</svg>
