<svg width="24" height="24" viewBox="0 0 24 24" fill="none" xmlns="http://www.w3.org/2000/svg">
<mask id="mask0" mask-type="alpha" maskUnits="userSpaceOnUse" x="1" y="3" width="22" height="18">
<path d="M2 18L1.625 17.9997V18H2ZM2.01 6L2.385 6.00031V6H2.01ZM20 8L20.1987 8.318L20.375 8.20784V8H20ZM12 13L11.8013 13.318L12 13.4422L12.1987 13.318L12 13ZM20 6H20.375V5.32341L19.8013 5.682L20 6ZM12 11L11.8013 11.318L12 11.4422L12.1987 11.318L12 11ZM4 6L4.19875 5.682L3.625 5.32341V6H4ZM4 8H3.625V8.20784L3.80125 8.318L4 8ZM20 3.625H4V4.375H20V3.625ZM22.375 6C22.375 4.69289 21.3071 3.625 20 3.625V4.375C20.8929 4.375 21.625 5.10711 21.625 6H22.375ZM22.375 18V6H21.625V18H22.375ZM20 20.375C21.3071 20.375 22.375 19.3071 22.375 18H21.625C21.625 18.8929 20.8929 19.625 20 19.625V20.375ZM4 20.375H20V19.625H4V20.375ZM1.625 18C1.625 19.3071 2.69289 20.375 4 20.375V19.625C3.10711 19.625 2.375 18.8929 2.375 18H1.625ZM1.635 5.99969L1.625 17.9997L2.375 18.0003L2.385 6.00031L1.635 5.99969ZM4 3.625C2.69045 3.625 1.635 4.69534 1.635 6H2.385C2.385 5.10466 3.10955 4.375 4 4.375V3.625ZM19.8013 7.682L11.8013 12.682L12.1987 13.318L20.1987 8.318L19.8013 7.682ZM19.625 6V8H20.375V6H19.625ZM12.1987 11.318L20.1987 6.318L19.8013 5.682L11.8013 10.682L12.1987 11.318ZM3.80125 6.318L11.8013 11.318L12.1987 10.682L4.19875 5.682L3.80125 6.318ZM4.375 8V6H3.625V8H4.375ZM12.1987 12.682L4.19875 7.682L3.80125 8.318L11.8013 13.318L12.1987 12.682Z" fill="white"/>
</mask>
<g mask="url(#mask0)">
<rect width="24" height="24" fill="#4D4D4D"/>
</g>
</svg>
