<svg width="234" height="211" viewBox="0 0 234 211" fill="none" xmlns="http://www.w3.org/2000/svg">
<g clip-path="url(#clip0)">
<g opacity="0.4">
<g opacity="0.4">
<path opacity="0.4" d="M90.58 173.36L60.12 107.21L70.02 82.44L91.69 73.27L92.9 75.89L72.36 84.58L63.36 107.13L92.12 169.58L151.42 144.5L115.42 66.37L104.74 70.89L103.53 68.26L116.94 62.59L155.34 146L90.58 173.36Z" fill="#AC162C"/>
</g>
<g opacity="0.4">
<path opacity="0.4" d="M61.61 108.65C61.3733 108.646 61.1407 108.588 60.93 108.48C60.7238 108.363 60.5488 108.199 60.42 108C60.2828 107.815 60.1934 107.598 60.16 107.37C60.1276 107.144 60.1517 106.914 60.23 106.7L69.79 83C69.8898 82.7255 70.0713 82.4882 70.31 82.32C70.5531 82.1503 70.8399 82.0544 71.1362 82.0438C71.4324 82.0331 71.7254 82.1082 71.98 82.26C72.2314 82.4095 72.4304 82.633 72.55 82.9L80.12 99.34C80.1968 99.5149 80.2365 99.7039 80.2365 99.895C80.2365 100.086 80.1968 100.275 80.12 100.45C80.047 100.63 79.9382 100.793 79.8 100.93C79.6591 101.068 79.4926 101.176 79.31 101.25L62.16 108.49C61.9706 108.573 61.7666 108.617 61.56 108.62L61.61 108.65ZM71.28 87.26L64.28 104.47L76.77 99.18L71.28 87.26Z" fill="#AC162C"/>
</g>
<g opacity="0.4">
<path opacity="0.4" d="M118.82 97.29L78.18 114.43L79.42 117.05L120.06 99.91L118.82 97.29Z" fill="#AC162C"/>
</g>
<g opacity="0.4">
<path opacity="0.4" d="M126.42 113.79L85.78 130.93L86.99 133.55L127.63 116.41L126.42 113.79Z" fill="#AC162C"/>
</g>
<g opacity="0.4">
<path opacity="0.4" d="M134 130.27L93.36 147.41L94.57 150.03L135.21 132.89L134 130.27Z" fill="#AC162C"/>
</g>
<g opacity="0.4">
<path opacity="0.4" d="M91.35 172.9C91.0099 172.9 90.6794 172.788 90.41 172.58C90.1463 172.376 89.9624 172.086 89.89 171.76C89.8184 171.438 89.8645 171.101 90.02 170.81C90.1778 170.514 90.4318 170.281 90.74 170.15L151.42 144.5L122.71 82.2C122.612 81.9874 122.571 81.7532 122.59 81.52C122.608 81.2883 122.683 81.0649 122.81 80.87C122.939 80.6712 123.114 80.5066 123.32 80.39C123.531 80.2699 123.767 80.2013 124.01 80.19L154.63 78.79C154.827 78.7801 155.023 78.8072 155.21 78.87C155.394 78.9338 155.563 79.0322 155.71 79.16C155.856 79.285 155.975 79.438 156.06 79.61C156.143 79.7786 156.191 79.9623 156.2 80.15L160.58 168.31C160.588 168.498 160.557 168.685 160.49 168.86C160.423 169.039 160.321 169.202 160.19 169.34C160.056 169.479 159.897 169.592 159.72 169.67C159.54 169.749 159.346 169.793 159.15 169.8L91.42 172.91L91.35 172.9ZM126.35 82.9L154.78 144.61C154.857 144.785 154.897 144.974 154.897 145.165C154.897 145.356 154.857 145.545 154.78 145.72C154.708 145.9 154.599 146.064 154.46 146.2C154.32 146.338 154.153 146.447 153.97 146.52L99.29 169.64L157.49 166.99L153.26 81.7L126.35 82.9Z" fill="#AC162C"/>
</g>
</g>
<g opacity="0.4">
<g opacity="0.4">
<g opacity="0.4">
<path opacity="0.4" d="M58.57 4.08002L51.42 10.93L53.54 12.93L60.71 6.08002L58.57 4.08002Z" fill="#AC162C"/>
</g>
<g opacity="0.4">
<path opacity="0.4" d="M41.65 20.31L34.48 27.16L36.6 29.16L43.77 22.31L41.65 20.31Z" fill="#AC162C"/>
</g>
</g>
<g opacity="0.4">
<g opacity="0.4">
<path opacity="0.4" d="M36.59 4.08002L34.47 6.08002L41.64 13L43.76 11L36.59 4.08002Z" fill="#AC162C"/>
</g>
<g opacity="0.4">
<path opacity="0.4" d="M53.52 20.3L51.4 22.3L58.57 29.15L60.69 27.15L53.52 20.3Z" fill="#AC162C"/>
</g>
</g>
</g>
<g opacity="0.4">
<g opacity="0.4">
<g opacity="0.4">
<path opacity="0.4" d="M209.19 90.86L202.02 97.71L204.14 99.71L211.31 92.86L209.19 90.86Z" fill="#AC162C"/>
</g>
<g opacity="0.4">
<path opacity="0.4" d="M192.26 107.09L185.09 113.94L187.21 115.94L194.38 109.09L192.26 107.09Z" fill="#AC162C"/>
</g>
</g>
<g opacity="0.4">
<g opacity="0.4">
<path opacity="0.4" d="M187.21 90.84L185.09 92.84L192.26 99.69L194.38 97.69L187.21 90.84Z" fill="#AC162C"/>
</g>
<g opacity="0.4">
<path opacity="0.4" d="M204.15 107.09L202.03 109.09L209.2 115.94L211.32 113.94L204.15 107.09Z" fill="#AC162C"/>
</g>
</g>
</g>
<g opacity="0.4">
<path opacity="0.4" d="M13.47 81.75L2.36 71.08L13.47 60.43L24.58 71.08L13.47 81.75ZM6.59 71.1L13.47 77.7L20.35 71.1L13.47 64.5L6.59 71.1Z" fill="#AC162C"/>
</g>
<g opacity="0.4">
<path opacity="0.4" d="M102.1 210.53L90.99 199.88L102.1 189.24L113.21 199.89L102.1 210.53ZM95.22 199.88L102.1 206.48L108.98 199.88L102.1 193.28L95.22 199.88Z" fill="#AC162C"/>
</g>
<g opacity="0.4">
<path opacity="0.4" d="M224.87 81.75C219.87 81.75 215.87 78.75 215.87 75.06C215.87 71.37 219.87 68.37 224.87 68.37C229.87 68.37 233.87 71.37 233.87 75.06C233.87 78.75 229.82 81.75 224.87 81.75ZM224.87 70.61C221.62 70.61 218.98 72.61 218.98 75.02C218.98 77.43 221.62 79.43 224.87 79.43C228.12 79.43 230.76 77.43 230.76 75.02C230.76 72.61 228.12 70.59 224.87 70.59V70.61Z" fill="#AC162C"/>
</g>
<g opacity="0.4">
<path opacity="0.4" d="M119.42 19.47C117.711 19.4811 116.035 19.0022 114.59 18.09C113.189 17.1943 112.086 15.9031 111.42 14.38C110.76 12.8707 110.582 11.1943 110.91 9.58C111.245 7.95019 112.068 6.46092 113.27 5.31C114.481 4.13448 116.005 3.33254 117.66 3C119.337 2.67589 121.071 2.83543 122.66 3.45999C124.232 4.07509 125.589 5.13931 126.56 6.52C127.509 7.87381 128.019 9.4867 128.02 11.14C128.017 12.2353 127.793 13.3187 127.362 14.3256C126.93 15.3324 126.301 16.242 125.51 17C123.871 18.5727 121.691 19.4568 119.42 19.47V19.47ZM119.42 5.72C118.3 5.70705 117.2 6.01595 116.25 6.61C115.32 7.19151 114.585 8.03774 114.14 9.04C113.704 10.0296 113.585 11.1301 113.8 12.19C114.017 13.258 114.554 14.2346 115.34 14.99C116.141 15.7597 117.149 16.2807 118.24 16.49C119.343 16.7053 120.484 16.6013 121.53 16.19C122.558 15.7877 123.444 15.0922 124.08 14.19C124.809 13.1555 125.142 11.893 125.017 10.6334C124.892 9.37378 124.318 8.20118 123.4 7.33C122.327 6.30765 120.902 5.73512 119.42 5.73V5.72Z" fill="#AC162C"/>
</g>
<g opacity="0.4">
<g opacity="0.4">
<path opacity="0.4" d="M166.93 59.5C161.785 59.5087 156.747 58.033 152.42 55.25L154.1 52.87C156.836 54.5986 159.9 55.7425 163.1 56.23C166.302 56.7281 169.572 56.5682 172.71 55.76C175.824 54.9601 178.739 53.5232 181.27 51.54C183.764 49.5903 185.81 47.1282 187.27 44.32C188.706 41.5566 189.513 38.5094 189.632 35.3973C189.752 32.2852 189.181 29.1853 187.96 26.32C186.72 23.4186 184.868 20.8194 182.53 18.7C180.156 16.5474 177.36 14.9127 174.32 13.9C169.814 12.4402 164.974 12.3567 160.42 13.66C155.91 14.9462 151.903 17.5849 148.94 21.22C146.033 24.7671 144.355 29.1615 144.159 33.7433C143.962 38.3251 145.258 42.847 147.85 46.63L145.35 48.2C142.231 43.6194 140.793 38.1004 141.28 32.58C141.794 27.0364 144.194 21.8369 148.08 17.85C152.055 13.7704 157.25 11.0957 162.88 10.23C168.54 9.34225 174.336 10.2884 179.42 12.93C184.42 15.5138 188.411 19.6957 190.76 24.81C193.052 29.8437 193.522 35.5177 192.09 40.86C190.619 46.259 187.362 51.0001 182.85 54.31C178.242 57.7025 172.662 59.519 166.94 59.49L166.93 59.5Z" fill="#AC162C"/>
</g>
<g opacity="0.4">
<path opacity="0.4" d="M166.31 36.62L158.15 20.81L160.83 19.54L167.66 32.78L182.85 25.57L184.19 28.14L166.31 36.62Z" fill="#AC162C"/>
</g>
</g>
<g opacity="0.4">
<path opacity="0.4" d="M202.74 171.37C202.547 171.381 202.353 171.381 202.16 171.37C201.373 171.283 200.621 171.001 199.97 170.55C199.331 170.105 198.818 169.502 198.48 168.8L192.48 156.3C192.146 155.608 192.001 154.84 192.061 154.074C192.12 153.308 192.382 152.572 192.82 151.94C193.266 151.297 193.868 150.777 194.57 150.43C195.283 150.074 196.073 149.898 196.87 149.92L212.97 150.37C213.835 150.394 214.678 150.649 215.41 151.11C216.129 151.562 216.707 152.207 217.08 152.97C217.444 153.721 217.583 154.562 217.48 155.39C217.37 156.224 217.023 157.008 216.48 157.65L206.36 169.65C205.919 170.179 205.366 170.603 204.74 170.89C204.116 171.192 203.433 171.356 202.74 171.37V171.37ZM196.74 152.76C196.458 152.761 196.18 152.829 195.93 152.96C195.684 153.09 195.474 153.279 195.32 153.51C195.169 153.737 195.08 153.999 195.06 154.27C195.04 154.542 195.092 154.814 195.21 155.06L201.21 167.56C201.334 167.812 201.52 168.029 201.75 168.19C201.986 168.352 202.257 168.453 202.542 168.487C202.826 168.52 203.113 168.483 203.38 168.38C203.643 168.279 203.877 168.114 204.06 167.9L214.13 155.85C214.306 155.6 214.407 155.305 214.42 155C214.459 154.699 214.411 154.394 214.28 154.12C214.146 153.845 213.938 153.613 213.68 153.45C213.416 153.283 213.112 153.189 212.8 153.18L196.7 152.73L196.74 152.76Z" fill="#AC162C"/>
</g>
<path d="M89.99 71.79L68.88 80.72L59.42 104.38L89.04 168.68L151.04 142.44L113.86 61.7L101.86 66.79" stroke="white" stroke-width="3" stroke-miterlimit="10"/>
<path d="M68.88 80.72L59.3 104.43L76.42 97.17L68.88 80.72Z" stroke="white" stroke-width="3" stroke-linecap="round" stroke-linejoin="round"/>
<path d="M76.42 112.95L117.03 95.77" stroke="white" stroke-width="3" stroke-miterlimit="10"/>
<path d="M84.06 129.44L124.68 112.26" stroke="white" stroke-width="3" stroke-miterlimit="10"/>
<path d="M91.66 145.94L132.27 128.75" stroke="white" stroke-width="3" stroke-miterlimit="10"/>
<path d="M152.37 77.42L121.75 78.82L151.05 142.44L89.05 168.68L156.76 165.59L152.37 77.42Z" stroke="white" stroke-width="3" stroke-linejoin="round"/>
<path d="M57.3 2.31L50.14 9.16" stroke="white" stroke-width="3" stroke-miterlimit="10"/>
<path d="M40.36 18.53L33.21 25.38" stroke="white" stroke-width="3" stroke-miterlimit="10"/>
<path d="M33.21 2.31L40.36 9.16" stroke="white" stroke-width="3" stroke-miterlimit="10"/>
<path d="M50.14 18.53L57.3 25.38" stroke="white" stroke-width="3" stroke-miterlimit="10"/>
<path d="M207.92 89.07L200.76 95.92" stroke="white" stroke-width="3" stroke-miterlimit="10"/>
<path d="M190.99 105.29L183.84 112.15" stroke="white" stroke-width="3" stroke-miterlimit="10"/>
<path d="M183.83 89.07L190.98 95.92" stroke="white" stroke-width="3" stroke-miterlimit="10"/>
<path d="M200.76 105.29L207.92 112.15" stroke="white" stroke-width="3" stroke-miterlimit="10"/>
<path d="M20.15 68.29L11.15 59.67L2.14999 68.29L11.15 76.91L20.15 68.29Z" stroke="white" stroke-width="3" stroke-miterlimit="10"/>
<path d="M108.8 197.09L99.8 188.47L90.8 197.09L99.8 205.71L108.8 197.09Z" stroke="white" stroke-width="3" stroke-miterlimit="10"/>
<path d="M222.22 80.66C223.567 80.6032 224.868 80.1516 225.961 79.3615C227.054 78.5713 227.89 77.4775 228.367 76.2158C228.843 74.9541 228.938 73.5803 228.64 72.2652C228.342 70.95 227.664 69.7514 226.69 68.8184C225.716 67.8854 224.49 67.2592 223.163 67.0175C221.836 66.7758 220.468 66.9294 219.228 67.4591C217.987 67.9888 216.93 68.8713 216.188 69.9968C215.445 71.1224 215.049 72.4415 215.05 73.79C215.067 74.7128 215.266 75.6231 215.636 76.4685C216.006 77.314 216.54 78.078 217.206 78.7165C217.872 79.355 218.658 79.8554 219.519 80.1889C220.379 80.5225 221.297 80.6826 222.22 80.66V80.66Z" stroke="white" stroke-width="3" stroke-miterlimit="10"/>
<path d="M117.1 15.25C118.447 15.1931 119.748 14.7416 120.841 13.9514C121.934 13.1613 122.77 12.0674 123.247 10.8058C123.723 9.54411 123.818 8.1703 123.52 6.85512C123.222 5.53994 122.544 4.34137 121.57 3.40838C120.596 2.4754 119.37 1.84916 118.043 1.60748C116.716 1.3658 115.348 1.51936 114.108 2.04906C112.867 2.57875 111.81 3.46123 111.068 4.58681C110.325 5.71239 109.929 7.03143 109.93 8.37998C109.947 9.30272 110.146 10.213 110.516 11.0585C110.886 11.904 111.42 12.6679 112.086 13.3064C112.752 13.9449 113.538 14.4454 114.399 14.7789C115.259 15.1125 116.177 15.2726 117.1 15.25V15.25Z" stroke="white" stroke-width="3" stroke-miterlimit="10"/>
<path d="M144.25 44.67C140.984 39.8855 139.69 34.0248 140.64 28.31C141.631 22.5525 144.769 17.385 149.42 13.85C154.17 10.2344 160.055 8.43306 166.015 8.77038C171.975 9.1077 177.618 11.5615 181.93 15.69C186.133 19.712 188.62 25.202 188.871 31.0138C189.123 36.8256 187.12 42.5099 183.28 46.88C179.348 51.3443 173.929 54.2296 168.03 55C162.097 55.8172 156.068 54.4872 151.03 51.25" stroke="white" stroke-width="3" stroke-miterlimit="10"/>
<path d="M157.18 17.39L164.68 31.91L181.22 24.07" stroke="white" stroke-width="3" stroke-miterlimit="10"/>
<path d="M210.57 149L194.47 148.55C193.927 148.533 193.387 148.649 192.9 148.89C192.426 149.119 192.017 149.463 191.71 149.89C191.412 150.323 191.232 150.826 191.19 151.35C191.154 151.87 191.254 152.39 191.48 152.86L197.48 165.36C197.706 165.835 198.051 166.245 198.48 166.55C198.925 166.857 199.438 167.05 199.975 167.113C200.512 167.176 201.056 167.106 201.56 166.91C202.061 166.717 202.504 166.4 202.85 165.99L212.93 154C213.297 153.565 213.533 153.034 213.61 152.47C213.681 151.906 213.591 151.334 213.35 150.82C213.102 150.301 212.714 149.861 212.23 149.55C211.736 149.233 211.167 149.053 210.58 149.03L210.57 149Z" stroke="white" stroke-width="3" stroke-miterlimit="10"/>
</g>
<defs>
<clipPath id="clip0">
<rect width="233.84" height="210.52" fill="white"/>
</clipPath>
</defs>
</svg>
