<svg width="25" height="25" viewBox="0 0 25 25" fill="none" xmlns="http://www.w3.org/2000/svg">
<path fill-rule="evenodd" clip-rule="evenodd" d="M11.0662 10.147C8.83883 9.07925 6.08819 9.46816 4.24264 11.3137C1.90212 13.6542 1.90212 17.4585 4.24264 19.799C6.58316 22.1395 10.3874 22.1395 12.7279 19.799C14.5735 17.9534 14.9624 15.2028 13.8946 12.9754L16.9706 9.8995L19.799 12.7279L22.6274 9.8995L19.799 7.07107L21.2132 5.65686L18.3848 2.82843L11.0662 10.147V10.147ZM9.89949 16.9706C9.12168 17.7484 7.84889 17.7484 7.07107 16.9706C6.29325 16.1927 6.29325 14.92 7.07107 14.1421C7.84889 13.3643 9.12168 13.3643 9.89949 14.1421C10.6773 14.92 10.6773 16.1927 9.89949 16.9706V16.9706Z" fill="#B3B3B3"/>
<mask id="mask0" mask-type="alpha" maskUnits="userSpaceOnUse" x="0" y="0" width="25" height="25">
<path fill-rule="evenodd" clip-rule="evenodd" d="M11.0662 10.147C8.83883 9.07925 6.08819 9.46816 4.24264 11.3137C1.90212 13.6542 1.90212 17.4585 4.24264 19.799C6.58316 22.1395 10.3874 22.1395 12.7279 19.799C14.5735 17.9534 14.9624 15.2028 13.8946 12.9754L16.9706 9.8995L19.799 12.7279L22.6274 9.8995L19.799 7.07107L21.2132 5.65686L18.3848 2.82843L11.0662 10.147V10.147ZM9.89949 16.9706C9.12168 17.7484 7.84889 17.7484 7.07107 16.9706C6.29325 16.1927 6.29325 14.92 7.07107 14.1421C7.84889 13.3643 9.12168 13.3643 9.89949 14.1421C10.6773 14.92 10.6773 16.1927 9.89949 16.9706V16.9706Z" fill="white"/>
</mask>
<g mask="url(#mask0)">
</g>
</svg>
