<svg width="24" height="24" viewBox="0 0 24 24" fill="none" xmlns="http://www.w3.org/2000/svg">
<mask id="mask0" mask-type="alpha" maskUnits="userSpaceOnUse" x="0" y="4" width="24" height="16">
<path d="M1 19H0.625V19.375H1V19ZM15 19V19.375H15.375V19H15ZM15.03 13.05L14.998 12.6764L13.9935 12.7625L14.8101 13.3537L15.03 13.05ZM23 19V19.375H23.375V19H23ZM17 19H16.625V19.375H17V19ZM8 11.375C9.86874 11.375 11.365 9.86547 11.365 8H10.615C10.615 9.45453 9.45126 10.625 8 10.625V11.375ZM4.625 8C4.625 9.86711 6.13289 11.375 8 11.375V10.625C6.54711 10.625 5.375 9.45289 5.375 8H4.625ZM8 4.625C6.13289 4.625 4.625 6.13289 4.625 8H5.375C5.375 6.54711 6.54711 5.375 8 5.375V4.625ZM11.365 8C11.365 6.13453 9.86874 4.625 8 4.625V5.375C9.45126 5.375 10.615 6.54547 10.615 8H11.365ZM16 11.375C17.8687 11.375 19.365 9.86547 19.365 8H18.615C18.615 9.45453 17.4513 10.625 16 10.625V11.375ZM12.625 8C12.625 9.86711 14.1329 11.375 16 11.375V10.625C14.5471 10.625 13.375 9.45289 13.375 8H12.625ZM16 4.625C14.1329 4.625 12.625 6.13289 12.625 8H13.375C13.375 6.54711 14.5471 5.375 16 5.375V4.625ZM19.365 8C19.365 6.13453 17.8687 4.625 16 4.625V5.375C17.4513 5.375 18.615 6.54547 18.615 8H19.365ZM1.375 16.5C1.375 16.0553 1.59484 15.6382 2.02032 15.2458C2.44837 14.8511 3.05907 14.5071 3.76557 14.2244C5.17919 13.6587 6.88184 13.375 8 13.375V12.625C6.78816 12.625 4.99081 12.9263 3.48693 13.5281C2.73468 13.8291 2.03225 14.2146 1.51186 14.6945C0.988912 15.1768 0.625 15.7797 0.625 16.5H1.375ZM1.375 19V16.5H0.625V19H1.375ZM15 18.625H1V19.375H15V18.625ZM14.625 16.5V19H15.375V16.5H14.625ZM8 13.375C9.11816 13.375 10.8208 13.6587 12.2344 14.2244C12.9409 14.5071 13.5516 14.8511 13.9797 15.2458C14.4052 15.6382 14.625 16.0553 14.625 16.5H15.375C15.375 15.7797 15.0111 15.1768 14.4881 14.6945C13.9677 14.2146 13.2653 13.8291 12.5131 13.5281C11.0092 12.9263 9.21184 12.625 8 12.625V13.375ZM16 12.625C15.6945 12.625 15.3524 12.646 14.998 12.6764L15.062 13.4236C15.4076 13.394 15.7255 13.375 16 13.375V12.625ZM23.375 16.5C23.375 15.7797 23.0111 15.1768 22.4881 14.6945C21.9677 14.2146 21.2653 13.8291 20.5131 13.5281C19.0092 12.9263 17.2118 12.625 16 12.625V13.375C17.1182 13.375 18.8208 13.6587 20.2344 14.2244C20.9409 14.5071 21.5516 14.8511 21.9797 15.2458C22.4052 15.6382 22.625 16.0553 22.625 16.5H23.375ZM23.375 19V16.5H22.625V19H23.375ZM17 19.375H23V18.625H17V19.375ZM16.625 16.5V19H17.375V16.5H16.625ZM14.8101 13.3537C15.9085 14.1491 16.625 15.1785 16.625 16.5H17.375C17.375 14.8615 16.4715 13.6309 15.2499 12.7463L14.8101 13.3537Z" fill="white"/>
</mask>
<g mask="url(#mask0)">
<rect width="24" height="24" fill="#4D4D4D"/>
</g>
</svg>
