<svg width="20" height="21" viewBox="0 0 20 21" fill="none" xmlns="http://www.w3.org/2000/svg">
<mask id="mask0" mask-type="alpha" maskUnits="userSpaceOnUse" x="0" y="0" width="20" height="21">
<path d="M19.0909 20V20.375H19.4659V20H19.0909ZM0.909088 20H0.534088V20.375H0.909088V20ZM10 10.8512C12.7347 10.8512 14.9205 8.53571 14.9205 5.71429H14.1705C14.1705 8.15476 12.288 10.1012 10 10.1012V10.8512ZM5.07954 5.71429C5.07954 8.53571 7.26528 10.8512 10 10.8512V10.1012C7.71199 10.1012 5.82954 8.15476 5.82954 5.71429H5.07954ZM10 0.577381C7.26528 0.577381 5.07954 2.89286 5.07954 5.71429H5.82954C5.82954 3.27381 7.71199 1.32738 10 1.32738V0.577381ZM14.9205 5.71429C14.9205 2.89286 12.7347 0.577381 10 0.577381V1.32738C12.288 1.32738 14.1705 3.27381 14.1705 5.71429H14.9205ZM10 12.4821C8.43371 12.4821 6.1116 12.8907 4.17164 13.7048C3.20099 14.1122 2.30306 14.6305 1.64221 15.2695C0.978249 15.9115 0.534088 16.6962 0.534088 17.619H1.28409C1.28409 16.9585 1.59703 16.3564 2.16354 15.8087C2.73316 15.2579 3.53906 14.7837 4.46188 14.3964C6.30885 13.6212 8.5322 13.2321 10 13.2321V12.4821ZM19.4659 17.619C19.4659 16.6962 19.0217 15.9115 18.3578 15.2695C17.6969 14.6305 16.799 14.1122 15.8284 13.7048C13.8884 12.8907 11.5663 12.4821 10 12.4821V13.2321C11.4678 13.2321 13.6911 13.6212 15.5381 14.3964C16.4609 14.7837 17.2668 15.2579 17.8365 15.8087C18.403 16.3564 18.7159 16.9585 18.7159 17.619H19.4659ZM19.4659 20V17.619H18.7159V20H19.4659ZM0.909088 20.375H19.0909V19.625H0.909088V20.375ZM0.534088 17.619V20H1.28409V17.619H0.534088Z" fill="white"/>
</mask>
<g mask="url(#mask0)">
<rect width="20" height="20.9524" fill="#4D4D4D"/>
</g>
</svg>
