<svg width="32" height="32" viewBox="0 0 32 32" fill="none" xmlns="http://www.w3.org/2000/svg">
<mask id="mask0" mask-type="alpha" maskUnits="userSpaceOnUse" x="3" y="3" width="26" height="26">
<path d="M12 22.6667V23.0417H12.375V22.6667H12ZM9.33333 22.6667H8.95833V23.0417H9.33333V22.6667ZM12 13.3333H12.375V12.9583H12V13.3333ZM9.33333 13.3333V12.9583H8.95833V13.3333H9.33333ZM14.6667 22.6667H14.2917V23.0417H14.6667V22.6667ZM17.3333 22.6667V23.0417H17.7083V22.6667H17.3333ZM14.6667 9.33333V8.95833H14.2917V9.33333H14.6667ZM17.3333 9.33333H17.7083V8.95833H17.3333V9.33333ZM22.6667 22.6667V23.0417H23.0417V22.6667H22.6667ZM20 22.6667H19.625V23.0417H20V22.6667ZM22.6667 17.3333H23.0417V16.9583H22.6667V17.3333ZM20 17.3333V16.9583H19.625V17.3333H20ZM25.3333 3.625H6.66667V4.375H25.3333V3.625ZM28.375 6.66667C28.375 4.99289 27.0071 3.625 25.3333 3.625V4.375C26.5929 4.375 27.625 5.40711 27.625 6.66667H28.375ZM28.375 25.3333V6.66667H27.625V25.3333H28.375ZM25.3333 28.375C27.0071 28.375 28.375 27.0071 28.375 25.3333H27.625C27.625 26.5929 26.5929 27.625 25.3333 27.625V28.375ZM6.66667 28.375H25.3333V27.625H6.66667V28.375ZM3.625 25.3333C3.625 27.0071 4.99289 28.375 6.66667 28.375V27.625C5.40711 27.625 4.375 26.5929 4.375 25.3333H3.625ZM3.625 6.66667V25.3333H4.375V6.66667H3.625ZM6.66667 3.625C4.99289 3.625 3.625 4.99289 3.625 6.66667H4.375C4.375 5.40711 5.40711 4.375 6.66667 4.375V3.625ZM12 22.2917H9.33333V23.0417H12V22.2917ZM11.625 13.3333V22.6667H12.375V13.3333H11.625ZM9.33333 13.7083H12V12.9583H9.33333V13.7083ZM9.70833 22.6667V13.3333H8.95833V22.6667H9.70833ZM14.6667 23.0417H17.3333V22.2917H14.6667V23.0417ZM14.2917 9.33333V22.6667H15.0417V9.33333H14.2917ZM17.3333 8.95833H14.6667V9.70833H17.3333V8.95833ZM17.7083 22.6667V9.33333H16.9583V22.6667H17.7083ZM22.6667 22.2917H20V23.0417H22.6667V22.2917ZM22.2917 17.3333V22.6667H23.0417V17.3333H22.2917ZM20 17.7083H22.6667V16.9583H20V17.7083ZM20.375 22.6667V17.3333H19.625V22.6667H20.375Z" fill="white"/>
</mask>
<g mask="url(#mask0)">
<rect width="32" height="32" fill="white"/>
</g>
</svg>
