<svg width="24" height="24" viewBox="0 0 24 24" fill="none" xmlns="http://www.w3.org/2000/svg">
<mask id="mask0" mask-type="alpha" maskUnits="userSpaceOnUse" x="2" y="2" width="20" height="20">
<path d="M9 17V17.375H9.375V17H9ZM7 17H6.625V17.375H7V17ZM9 10H9.375V9.625H9V10ZM7 10V9.625H6.625V10H7ZM11 17H10.625V17.375H11V17ZM13 17V17.375H13.375V17H13ZM11 7V6.625H10.625V7H11ZM13 7H13.375V6.625H13V7ZM17 17V17.375H17.375V17H17ZM15 17H14.625V17.375H15V17ZM17 13H17.375V12.625H17V13ZM15 13V12.625H14.625V13H15ZM19 2.625H5V3.375H19V2.625ZM21.375 5C21.375 3.69289 20.3071 2.625 19 2.625V3.375C19.8929 3.375 20.625 4.10711 20.625 5H21.375ZM21.375 19V5H20.625V19H21.375ZM19 21.375C20.3071 21.375 21.375 20.3071 21.375 19H20.625C20.625 19.8929 19.8929 20.625 19 20.625V21.375ZM5 21.375H19V20.625H5V21.375ZM2.625 19C2.625 20.3071 3.69289 21.375 5 21.375V20.625C4.10711 20.625 3.375 19.8929 3.375 19H2.625ZM2.625 5V19H3.375V5H2.625ZM5 2.625C3.69289 2.625 2.625 3.69289 2.625 5H3.375C3.375 4.10711 4.10711 3.375 5 3.375V2.625ZM9 16.625H7V17.375H9V16.625ZM8.625 10V17H9.375V10H8.625ZM7 10.375H9V9.625H7V10.375ZM7.375 17V10H6.625V17H7.375ZM11 17.375H13V16.625H11V17.375ZM10.625 7V17H11.375V7H10.625ZM13 6.625H11V7.375H13V6.625ZM13.375 17V7H12.625V17H13.375ZM17 16.625H15V17.375H17V16.625ZM16.625 13V17H17.375V13H16.625ZM15 13.375H17V12.625H15V13.375ZM15.375 17V13H14.625V17H15.375Z" fill="white"/>
</mask>
<g mask="url(#mask0)">
<rect width="24" height="24" fill="#4D4D4D"/>
</g>
</svg>
