<svg width="231" height="152" viewBox="0 0 231 152" fill="none" xmlns="http://www.w3.org/2000/svg">
<g clip-path="url(#clip0)">
<g opacity="0.4">
<g opacity="0.4">
<path opacity="0.4" d="M141.8 148.45L78.43 149.45V146.61L138.87 145.61L139.25 105.18L62.95 106.4L62.58 146.83L68.72 146.74V149.59L59.65 149.73L60.07 103.6L142.23 102.29L141.8 148.45Z" fill="#EA7A2F"/>
</g>
<g opacity="0.4">
<path opacity="0.4" d="M106.49 141.13C103.395 142.336 100.002 142.55 96.78 141.74C93.6076 140.944 90.7771 139.145 88.71 136.61C86.6694 134.092 85.5165 130.97 85.43 127.73C85.3474 124.457 86.3223 121.245 88.21 118.57C90.122 115.851 92.8336 113.794 95.968 112.687C99.1024 111.579 102.504 111.476 105.7 112.39C108.843 113.288 111.611 115.179 113.59 117.78C115.555 120.367 116.61 123.531 116.59 126.78V126.78C116.557 129.884 115.58 132.904 113.79 135.44C111.979 138.019 109.446 140.005 106.51 141.15L106.49 141.13ZM96.49 115.46C94.3524 116.289 92.4721 117.669 91.04 119.46C89.6315 121.243 88.7361 123.376 88.45 125.63C88.1687 127.86 88.5192 130.123 89.4615 132.164C90.4038 134.204 91.9001 135.939 93.78 137.17C95.6878 138.423 97.8996 139.135 100.18 139.23C102.48 139.333 104.765 138.823 106.803 137.753C108.841 136.683 110.559 135.091 111.78 133.14C112.981 131.219 113.631 129.005 113.66 126.74V126.74C113.681 124.729 113.196 122.745 112.25 120.97C111.303 119.193 109.929 117.681 108.25 116.57C106.54 115.451 104.584 114.764 102.55 114.57C100.494 114.369 98.4205 114.66 96.5 115.42L96.49 115.46Z" fill="#EA7A2F"/>
</g>
<g opacity="0.4">
<path opacity="0.4" d="M112.9 105.39L88.67 105.79L88.78 93.69L113.01 93.29L112.9 105.39ZM91.63 102.89L110 102.59L110.06 96.19L91.7 96.45L91.63 102.89Z" fill="#EA7A2F"/>
</g>
<g opacity="0.4">
<path opacity="0.4" d="M122.61 104.07L122.73 147.74H125.61L125.49 104.07H122.61Z" fill="#EA7A2F"/>
</g>
<g opacity="0.4">
<path opacity="0.4" d="M82.15 104.14H79.22V99.65L68.71 99.82V104.31H65.78L65.86 96.98L82.22 96.71L82.15 104.14Z" fill="#EA7A2F"/>
</g>
</g>
<g opacity="0.4">
<g opacity="0.4">
<path opacity="0.4" d="M209.9 146.52C203.274 149.108 195.979 149.431 189.15 147.44L190.05 144.71C196.239 146.549 202.867 146.257 208.87 143.88C214.818 141.574 219.846 137.379 223.18 131.94C226.463 126.592 227.828 120.287 227.05 114.06C226.279 107.894 223.4 102.185 218.9 97.9C214.308 93.576 208.393 90.9236 202.11 90.37C195.73 89.7879 189.335 91.3086 183.9 94.7C178.498 98.0481 174.356 103.09 172.12 109.04C169.909 114.881 169.788 121.307 171.777 127.228C173.765 133.148 177.741 138.198 183.03 141.52L181.41 143.93C175.572 140.271 171.18 134.704 168.98 128.175C166.78 121.646 166.907 114.556 169.34 108.11C171.807 101.545 176.378 95.9824 182.34 92.29C188.309 88.5624 195.33 86.8809 202.34 87.5C209.283 88.0988 215.821 91.0192 220.9 95.79C225.893 100.506 229.099 106.807 229.97 113.62C230.826 120.487 229.32 127.442 225.7 133.34C222.019 139.345 216.468 143.976 209.9 146.52V146.52Z" fill="#EA7A2F"/>
</g>
<g opacity="0.4">
<path opacity="0.4" d="M221.81 109.09L219.08 110.16C218.058 107.569 216.526 105.209 214.574 103.222C212.623 101.234 210.292 99.6591 207.72 98.59C202.429 96.3852 196.488 96.3207 191.15 98.41L190.15 95.76C196.206 93.3885 202.946 93.4602 208.95 95.96C211.869 97.1733 214.514 98.9609 216.728 101.216C218.942 103.472 220.681 106.149 221.84 109.09H221.81Z" fill="#EA7A2F"/>
</g>
<g opacity="0.4">
<path opacity="0.4" d="M202.9 128.51C200.778 129.338 198.462 129.536 196.23 129.08C194.027 128.634 192.008 127.541 190.43 125.94C188.862 124.362 187.815 122.341 187.43 120.15C187.056 117.946 187.356 115.681 188.29 113.65C189.24 111.592 190.769 109.854 192.69 108.65C194.623 107.433 196.866 106.797 199.15 106.82C201.414 106.847 203.62 107.543 205.49 108.82C207.652 110.278 209.223 112.46 209.92 114.974C210.616 117.487 210.393 120.167 209.29 122.53C208.006 125.284 205.705 127.435 202.87 128.53L202.9 128.51ZM195.78 110.27C194.178 110.88 192.788 111.943 191.78 113.33C190.796 114.687 190.239 116.305 190.18 117.98C190.126 119.636 190.58 121.269 191.48 122.66C192.39 124.058 193.7 125.149 195.24 125.79C196.803 126.444 198.524 126.629 200.19 126.32C201.866 126.011 203.418 125.227 204.66 124.06C205.893 122.909 206.759 121.42 207.15 119.78C207.601 117.886 207.362 115.894 206.474 114.162C205.587 112.429 204.11 111.07 202.31 110.33C200.212 109.457 197.857 109.432 195.74 110.26L195.78 110.27Z" fill="#EA7A2F"/>
</g>
</g>
<g opacity="0.4">
<g opacity="0.4">
<path opacity="0.4" d="M159.05 91.21C157.699 91.7354 156.231 91.8907 154.8 91.66C153.387 91.4325 152.063 90.824 150.97 89.9C149.89 88.9818 149.088 87.7798 148.655 86.4297C148.222 85.0795 148.175 83.6352 148.52 82.26L153.9 60.7L169.36 64.14L164.01 85.67C163.755 86.6755 163.303 87.6203 162.68 88.45C162.059 89.2885 161.282 89.9983 160.39 90.54C159.967 90.7994 159.522 91.0203 159.06 91.2L159.05 91.21ZM156.05 64.14L151.42 82.88C151.181 83.8264 151.236 84.8231 151.577 85.7376C151.918 86.6521 152.53 87.4412 153.33 88C153.867 88.3739 154.471 88.6389 155.11 88.78C155.77 88.9112 156.45 88.9112 157.11 88.78C157.765 88.6703 158.393 88.4361 158.96 88.09C159.524 87.7442 160.017 87.2926 160.41 86.76C160.799 86.2334 161.081 85.6354 161.24 85L165.9 66.25L156.05 64.14Z" fill="#EA7A2F"/>
</g>
<g opacity="0.4">
<path opacity="0.4" d="M150.74 78.77L150.03 81.63L162.95 84.52L163.66 81.66L150.74 78.77Z" fill="#EA7A2F"/>
</g>
<g opacity="0.4">
<path opacity="0.4" d="M166.8 66.51L154.9 63.89L157.29 54.36L169.21 56.98L166.8 66.51ZM158.42 61.73L164.65 63.06L165.65 59.06L159.4 57.68L158.42 61.73Z" fill="#EA7A2F"/>
</g>
</g>
<path d="M65.51 146.36L57.9 146.45L58.31 103.17L137.55 101.9L137.14 145.18L75.23 146.18" stroke="white" stroke-width="3" stroke-miterlimit="10"/>
<path d="M112.01 125.01C112.004 123.154 111.629 121.319 110.906 119.609C110.184 117.9 109.13 116.352 107.804 115.053C106.478 113.755 104.907 112.734 103.183 112.048C101.459 111.363 99.6152 111.027 97.76 111.06C93.984 111.081 90.3673 112.584 87.6888 115.245C85.0104 117.907 83.4845 121.514 83.44 125.29C83.4463 127.145 83.8215 128.981 84.5436 130.69C85.2657 132.4 86.3204 133.948 87.6463 135.246C88.9722 136.544 90.543 137.566 92.2672 138.252C93.9914 138.937 95.8348 139.273 97.69 139.24C101.466 139.219 105.083 137.716 107.761 135.055C110.44 132.393 111.965 128.786 112.01 125.01V125.01Z" stroke="white" stroke-width="3" stroke-miterlimit="10"/>
<path d="M108.4 92.89L86.82 93.09V102.62L108.4 102.42V92.89Z" stroke="white" stroke-width="3" stroke-miterlimit="10"/>
<path d="M120.8 102.31L120.99 145.91" stroke="white" stroke-width="3" stroke-miterlimit="10"/>
<path d="M64.04 102.6L64.09 96.69L77.53 96.47L77.47 102.38" stroke="white" stroke-width="3" stroke-miterlimit="10"/>
<path d="M179.03 140.97C172.752 137.038 168.254 130.814 166.49 123.62C164.753 116.382 165.874 108.753 169.62 102.32C173.425 95.7824 179.508 90.8781 186.704 88.5459C193.9 86.2136 201.703 86.6175 208.62 89.68C215.409 92.6941 220.752 98.2404 223.511 105.137C226.27 112.034 226.227 119.735 223.39 126.6C220.489 133.592 215.107 139.267 208.279 142.535C201.451 145.804 193.656 146.436 186.39 144.31" stroke="white" stroke-width="3" stroke-miterlimit="10"/>
<path d="M187.42 95.29C193.115 93.0487 199.459 93.1097 205.11 95.46C207.856 96.602 210.344 98.2848 212.426 100.408C214.508 102.532 216.142 105.052 217.23 107.82" stroke="white" stroke-width="3" stroke-miterlimit="10"/>
<path d="M199.17 125.39C200.934 124.63 202.436 123.368 203.488 121.761C204.54 120.153 205.096 118.272 205.087 116.351C205.078 114.43 204.503 112.554 203.436 110.957C202.368 109.36 200.854 108.113 199.082 107.37C197.311 106.627 195.36 106.422 193.472 106.78C191.585 107.138 189.844 108.044 188.468 109.384C187.092 110.724 186.14 112.439 185.731 114.316C185.322 116.193 185.475 118.149 186.17 119.94C186.664 121.153 187.392 122.256 188.314 123.187C189.235 124.118 190.331 124.858 191.538 125.364C192.746 125.87 194.042 126.133 195.352 126.138C196.661 126.142 197.959 125.888 199.17 125.39V125.39Z" stroke="white" stroke-width="3" stroke-miterlimit="10"/>
<path d="M151.73 60.62L146.73 80.77C146.515 81.5854 146.468 82.4357 146.59 83.27C146.71 84.103 147 84.9027 147.44 85.62C147.88 86.3393 148.462 86.9618 149.15 87.45C149.846 87.9325 150.632 88.2724 151.46 88.45C152.298 88.6354 153.164 88.6557 154.01 88.51C154.861 88.3647 155.676 88.0556 156.41 87.6C157.141 87.1473 157.776 86.5562 158.28 85.86C158.779 85.1705 159.136 84.3887 159.33 83.56L164.33 63.42L151.73 60.62Z" stroke="white" stroke-width="3" stroke-miterlimit="10"/>
<path d="M147.29 78.45L159.96 81.18" stroke="white" stroke-width="3" stroke-miterlimit="10"/>
<path d="M164.28 56.23L155.07 54.18L153.37 61.04L162.58 63.09L164.28 56.23Z" stroke="white" stroke-width="3" stroke-miterlimit="10"/>
<path opacity="0.4" d="M24.72 120.04L20.63 128.98L23.31 130.11L27.4 121.17L24.72 120.04Z" fill="#EA7A2F"/>
<path opacity="0.4" d="M15.11 141.05L11.02 149.99L13.7 151.12L17.79 142.17L15.11 141.05Z" fill="#EA7A2F"/>
<path opacity="0.4" d="M4.23999 127.71L3.00999 130.39L12.22 134.26L13.45 131.58L4.23999 127.71Z" fill="#EA7A2F"/>
<path opacity="0.4" d="M26.19 136.92L24.96 139.61L34.17 143.45L35.4 140.77L26.19 136.92Z" fill="#EA7A2F"/>
<path opacity="0.4" d="M185.76 3.21002C184.202 3.81458 182.851 4.85631 181.87 6.21002C180.903 7.54645 180.356 9.14114 180.3 10.79C180.236 12.4382 180.683 14.0658 181.58 15.45C182.476 16.8254 183.765 17.8988 185.28 18.53C186.818 19.1728 188.511 19.3535 190.15 19.05C191.799 18.7474 193.327 17.9768 194.55 16.83C195.762 15.6976 196.614 14.2334 197 12.62C197.452 10.7555 197.219 8.79051 196.344 7.08336C195.468 5.37622 194.008 4.0406 192.23 3.32002C190.169 2.44663 187.849 2.4072 185.76 3.21002V3.21002ZM190.76 15.91C189.739 16.3107 188.625 16.4079 187.55 16.19C186.491 15.9751 185.519 15.4494 184.76 14.68C184.01 13.9178 183.511 12.9442 183.33 11.89C183.149 10.8292 183.292 9.73837 183.74 8.76002C184.197 7.76768 184.934 6.93019 185.86 6.35002C186.769 5.77008 187.822 5.45813 188.9 5.45002C189.97 5.46652 191.012 5.79305 191.9 6.39002C192.939 7.09136 193.694 8.14005 194.029 9.34784C194.365 10.5556 194.259 11.8434 193.73 12.98C193.115 14.311 192.007 15.3509 190.64 15.88L190.76 15.91Z" fill="#EA7A2F"/>
<path opacity="0.4" d="M104.2 43.74L118.2 49.59L124.47 35.84L110.53 29.94L104.2 43.74ZM116.72 45.87L108.06 42.23L111.96 33.69L120.62 37.33L116.72 45.87Z" fill="#EA7A2F"/>
<path d="M22.9 120.79L18.85 129.68" stroke="white" stroke-width="3" stroke-miterlimit="10"/>
<path d="M13.28 141.8L9.22 150.69" stroke="white" stroke-width="3" stroke-miterlimit="10"/>
<path d="M0.580002 129.24L9.58 133.03" stroke="white" stroke-width="3" stroke-miterlimit="10"/>
<path d="M22.52 138.45L31.52 142.24" stroke="white" stroke-width="3" stroke-miterlimit="10"/>
<path opacity="0.4" d="M154.04 0L149.95 8.94L152.63 10.07L156.72 1.13L154.04 0Z" fill="#EA7A2F"/>
<path opacity="0.4" d="M144.43 21.01L140.34 29.95L143.02 31.08L147.11 22.14L144.43 21.01Z" fill="#EA7A2F"/>
<path opacity="0.4" d="M133.59 7.67999L132.36 10.37L141.57 14.24L142.8 11.55L133.59 7.67999Z" fill="#EA7A2F"/>
<path opacity="0.4" d="M155.51 16.87L154.28 19.56L163.49 23.45L164.72 20.76L155.51 16.87Z" fill="#EA7A2F"/>
<path d="M152.22 0.75L148.16 9.63" stroke="white" stroke-width="3" stroke-miterlimit="10"/>
<path d="M142.61 21.76L138.55 30.64" stroke="white" stroke-width="3" stroke-miterlimit="10"/>
<path d="M129.9 9.20001L138.9 12.98" stroke="white" stroke-width="3" stroke-miterlimit="10"/>
<path d="M151.85 18.45L160.85 22.23" stroke="white" stroke-width="3" stroke-miterlimit="10"/>
<path d="M188.08 17.39C189.764 16.7269 191.116 15.422 191.838 13.7623C192.56 12.1026 192.593 10.2241 191.93 8.53998C191.267 6.85586 189.962 5.5041 188.302 4.78209C186.643 4.06007 184.764 4.02694 183.08 4.68998C181.396 5.35302 180.044 6.65792 179.322 8.31762C178.6 9.97732 178.567 11.8559 179.23 13.54C179.893 15.2241 181.198 16.5759 182.858 17.2979C184.517 18.0199 186.396 18.053 188.08 17.39V17.39Z" stroke="white" stroke-width="3" stroke-miterlimit="10"/>
<path d="M119.52 36.68L108.04 31.86L102.9 43.18L114.38 48L119.52 36.68Z" stroke="white" stroke-width="3" stroke-miterlimit="10"/>
</g>
<defs>
<clipPath id="clip0">
<rect width="230.21" height="151.32" fill="white"/>
</clipPath>
</defs>
</svg>
