<svg width="20" height="20" viewBox="0 0 20 20" fill="none" xmlns="http://www.w3.org/2000/svg">
<mask id="mask0" mask-type="alpha" maskUnits="userSpaceOnUse" x="2" y="2" width="16" height="16">
<path d="M14.1667 2.5L14.4318 2.23483L14.322 2.125H14.1667V2.5ZM17.5 5.83333H17.875V5.678L17.7652 5.56817L17.5 5.83333ZM12.5 7.5V7.875H12.875V7.5H12.5ZM4.16667 7.5H3.79167V7.875H4.16667V7.5ZM12.5 4.16667H12.875V3.79167H12.5V4.16667ZM4.16667 4.16667V3.79167H3.79167V4.16667H4.16667ZM4.16667 2.875H14.1667V2.125H4.16667V2.875ZM2.875 4.16667C2.875 3.45588 3.44999 2.875 4.16667 2.875V2.125C3.03334 2.125 2.125 3.04412 2.125 4.16667H2.875ZM2.875 15.8333V4.16667H2.125V15.8333H2.875ZM4.16667 17.125C3.44999 17.125 2.875 16.5441 2.875 15.8333H2.125C2.125 16.9559 3.03334 17.875 4.16667 17.875V17.125ZM15.8333 17.125H4.16667V17.875H15.8333V17.125ZM17.125 15.8333C17.125 16.5429 16.5429 17.125 15.8333 17.125V17.875C16.9571 17.875 17.875 16.9571 17.875 15.8333H17.125ZM17.125 5.83333V15.8333H17.875V5.83333H17.125ZM13.9015 2.76517L17.2348 6.0985L17.7652 5.56817L14.4318 2.23483L13.9015 2.76517ZM7.125 13.3333C7.125 14.9238 8.40956 16.2083 10 16.2083V15.4583C8.82377 15.4583 7.875 14.5096 7.875 13.3333H7.125ZM10 10.4583C8.40956 10.4583 7.125 11.7429 7.125 13.3333H7.875C7.875 12.1571 8.82377 11.2083 10 11.2083V10.4583ZM12.875 13.3333C12.875 11.7429 11.5904 10.4583 10 10.4583V11.2083C11.1762 11.2083 12.125 12.1571 12.125 13.3333H12.875ZM10 16.2083C11.5904 16.2083 12.875 14.9238 12.875 13.3333H12.125C12.125 14.5096 11.1762 15.4583 10 15.4583V16.2083ZM12.5 7.125H4.16667V7.875H12.5V7.125ZM12.125 4.16667V7.5H12.875V4.16667H12.125ZM4.16667 4.54167H12.5V3.79167H4.16667V4.54167ZM4.54167 7.5V4.16667H3.79167V7.5H4.54167Z" fill="white"/>
</mask>
<g mask="url(#mask0)">
<rect width="20" height="20" fill="#16ab95"/>
</g>
</svg>
