<svg width="32" height="32" viewBox="0 0 32 32" fill="none" xmlns="http://www.w3.org/2000/svg">
<path d="M28.6672 7.25316L28.6671 7.25319C28.2401 7.36599 27.9062 7.69948 27.7933 8.12697L27.7933 8.12701L27.1068 10.7288L27.1068 10.7288C26.9817 11.2031 26.3084 11.2031 26.1833 10.7288L26.1833 10.7288L25.4968 8.12701L25.4968 8.12697C25.384 7.69968 25.0501 7.36567 24.6228 7.25311L22.0212 6.56665C21.5464 6.44128 21.5468 5.76798 22.0211 5.64289L22.0211 5.64288L24.6229 4.95635L24.623 4.95632C25.05 4.84352 25.3839 4.51003 25.4968 4.08254L25.4968 4.0825L26.1833 1.48069L26.1833 1.48068C26.3084 1.00644 26.9817 1.00644 27.1068 1.48068L27.1068 1.48069L27.7933 4.0825L27.7933 4.08254C27.9062 4.50992 28.2398 4.84352 28.6671 4.95634L28.6672 4.95635L31.2689 5.64286C31.7437 5.76823 31.7433 6.44153 31.269 6.56662L31.269 6.56663L28.6672 7.25316Z" stroke="white" stroke-width="0.75"/>
<path d="M21.5689 9.414L21.5689 9.414C20.7418 9.29371 20.0263 8.7742 19.6564 8.02448L17.4988 3.65247C17.4988 3.65246 17.4987 3.65245 17.4987 3.65245C16.8419 2.32178 14.9446 2.32178 14.2877 3.65245L21.5689 9.414ZM21.5689 9.414L26.3939 10.1152C27.8622 10.3285 28.4486 12.1332 27.386 13.1689L23.8948 16.572C23.2959 17.1557 23.023 17.9964 23.1642 18.8204L23.1642 18.8204L23.9884 23.6259C24.2393 25.0883 22.7042 26.2036 21.3909 25.5133L17.0753 23.2445C16.3354 22.8552 15.4511 22.8553 14.711 23.2445L10.3956 25.5133C10.3956 25.5133 10.3956 25.5133 10.3956 25.5133C9.0823 26.2036 7.54719 25.0883 7.79809 23.6259L7.79809 23.6259L8.62231 18.8204L8.62232 18.8204C8.76353 17.9963 8.49027 17.1557 7.89171 16.5721L7.89166 16.572L4.40044 13.1689L4.13937 13.4367L4.40043 13.1689C3.33785 12.1332 3.92426 10.3285 5.39256 10.1152L10.2175 9.414L10.2176 9.414C11.0447 9.29372 11.7602 8.77423 12.13 8.02453C12.13 8.02451 12.13 8.02449 12.13 8.02447L14.2877 3.65247L21.5689 9.414Z" stroke="white" stroke-width="0.75"/>
<path d="M8.82427 26.3732L8.82425 26.3732C8.33949 26.5012 7.96096 26.8797 7.83301 27.3645L7.833 27.3645L7.01341 30.4705L7.01341 30.4705C6.8451 31.1086 5.93889 31.109 5.77031 30.4704L4.95099 27.3645L4.95098 27.3645C4.82302 26.8797 4.44449 26.5012 3.95973 26.3732L3.95971 26.3732L0.853737 25.5537L0.853701 25.5536C0.215433 25.3853 0.215433 24.4792 0.853701 24.3108L0.853737 24.3108L3.95971 23.4912L3.95973 23.4912C4.44449 23.3633 4.82302 22.9847 4.95098 22.5L4.95098 22.4999L5.77057 19.394L5.77058 19.3939C5.93893 18.7557 6.84505 18.7557 7.01341 19.3939L7.01341 19.394L7.833 22.4999L7.83301 22.5C7.96096 22.9847 8.3395 23.3633 8.82425 23.4912L8.82427 23.4912L11.93 24.3108L11.9301 24.3108C12.5685 24.4792 12.5685 25.3853 11.9301 25.5536L11.93 25.5537L8.82427 26.3732Z" stroke="white" stroke-width="0.75"/>
</svg>
