<svg width="55" height="55" viewBox="0 0 55 55" fill="none" xmlns="http://www.w3.org/2000/svg">
<path d="M49.3404 12.727L49.3405 12.727L53.8123 11.547L53.8124 11.547C54.8954 11.2614 54.8958 9.72418 53.8123 9.43807L49.3405 8.25812L49.3404 8.25811C48.6997 8.08896 48.1995 7.58883 48.0304 6.94807L48.0304 6.94804L46.8504 2.47616L46.8504 2.47616C46.5647 1.39336 45.0276 1.39336 44.7419 2.47616L44.7419 2.47616L43.562 6.94804L43.562 6.94807C43.3928 7.58894 42.8922 8.08896 42.252 8.25809L42.2519 8.25812L37.78 9.43809L37.78 9.4381C36.697 9.72374 36.6966 11.2609 37.78 11.547L49.3404 12.727ZM49.3404 12.727C48.7002 12.8961 48.1996 13.3962 48.0304 14.037L48.0304 14.0371L46.8504 18.5089L47.213 18.6046L46.8504 18.5089C46.5647 19.5917 45.0276 19.5917 44.7419 18.5089L44.3821 18.6039L44.7419 18.5089L43.562 14.0371L43.562 14.037C43.3928 13.3964 42.8924 12.8957 42.2519 12.727C42.2518 12.727 42.2518 12.727 42.2518 12.727C42.2518 12.7269 42.2517 12.7269 42.2517 12.7269L37.7801 11.547L49.3404 12.727Z" fill="white" stroke="#4D4D4D" stroke-width="0.75"/>
<path d="M37.1103 15.9136L37.1104 15.9136L45.4033 17.1187C48.148 17.5176 49.2442 20.891 47.2579 22.8271L41.2574 28.6762C40.2915 29.6175 39.8513 30.9732 40.0791 32.302L40.0791 32.3021L41.4957 40.5614L41.8653 40.498L41.4957 40.5614C41.9647 43.2952 39.0951 45.38 36.6401 44.0895L29.2227 40.1901C29.2226 40.1901 29.2226 40.19 29.2226 40.19C28.0294 39.5623 26.6035 39.5624 25.41 40.19C25.41 40.19 25.41 40.19 25.41 40.1901L17.9929 44.0895C15.5379 45.38 12.6683 43.2952 13.1373 40.5614L12.7677 40.498L13.1373 40.5614L14.5539 32.3021L14.554 32.302C14.7817 30.9731 14.341 29.6175 13.3757 28.6762L13.3757 28.6762L7.37511 22.8271C5.38881 20.891 6.48499 17.5176 9.22971 17.1187L17.5226 15.9136L17.5227 15.9136C18.8565 15.7196 20.0104 14.8818 20.6068 13.6729C20.6068 13.6729 20.6068 13.6729 20.6068 13.6728L24.3153 6.1584C25.5432 3.67096 29.0898 3.67096 30.3177 6.1584L34.0262 13.6728C34.6226 14.8818 35.7765 15.7196 37.1103 15.9136Z" fill="white" stroke="#4D4D4D" stroke-width="0.75"/>
<path d="M15.2355 45.5896L15.2355 45.5896C14.4961 45.7848 13.9187 46.3621 13.7236 47.1015L13.7236 47.1015L12.3149 52.4399L12.3149 52.44C11.955 53.8045 10.0176 53.8049 9.65714 52.4399C9.65713 52.4399 9.65713 52.4399 9.65712 52.4399L8.2489 47.1016L8.24889 47.1015C8.05373 46.3621 7.47637 45.7848 6.737 45.5896L6.73698 45.5896L1.39859 44.181L1.39856 44.1809C0.0338145 43.821 0.0338145 41.8836 1.39856 41.5236L1.39859 41.5236L6.73698 40.1149L6.737 40.1149C7.47637 39.9198 8.05373 39.3424 8.24889 38.603L8.24889 38.603L9.65755 33.2646L9.65756 33.2646C10.0175 31.8998 11.9549 31.8998 12.3149 33.2646L12.3149 33.2646L13.7236 38.603L13.7236 38.603C13.9187 39.3424 14.4961 39.9198 15.2355 40.1149L15.2355 40.1149L20.5735 41.5236L20.5735 41.5236C21.9386 41.8836 21.9386 43.8209 20.5735 44.1809L20.5735 44.181L15.2355 45.5896Z" fill="white" stroke="#4D4D4D" stroke-width="0.75"/>
</svg>
