<svg width="80" height="80" viewBox="0 0 80 80" fill="none" xmlns="http://www.w3.org/2000/svg">
<path d="M71.8115 18.6768L71.8113 18.6768C70.9394 18.9071 70.2576 19.5882 70.0272 20.461L70.0272 20.461L68.3109 26.9656L68.6735 27.0612L68.3109 26.9656C67.8507 28.7098 65.3746 28.7098 64.9144 26.9656L64.5518 27.0612L64.9144 26.9656L63.198 20.461L63.198 20.461C62.9677 19.5884 62.2859 18.9065 61.4136 18.6767L54.9093 16.9605C54.9093 16.9605 54.9093 16.9605 54.9092 16.9604C53.1641 16.4996 53.1646 14.0235 54.9092 13.5633L54.9092 13.5633L61.4138 11.847L61.4139 11.847C62.2858 11.6166 62.9676 10.9356 63.198 10.0628L63.198 10.0627L64.9144 3.55819L64.9144 3.55818C65.3746 1.81392 67.8507 1.81392 68.3109 3.55818L68.3109 3.55819L70.0272 10.0627L70.0272 10.0628C70.2576 10.9355 70.9387 11.6166 71.8114 11.847L71.8115 11.847L78.3159 13.5633C78.316 13.5633 78.316 13.5633 78.316 13.5633C80.0611 14.0242 80.0606 16.5003 78.316 16.9604L78.316 16.9604L71.8115 18.6768Z" fill="white" stroke="#16AC96" stroke-width="0.75"/>
<path d="M54.0033 22.9784L54.0032 22.9784C52.1185 22.7043 50.4882 21.5205 49.6456 19.8124L54.0033 22.9784ZM54.0033 22.9784L66.0657 24.7313C70.1978 25.3318 71.8481 30.4103 68.8577 33.3251L60.1297 41.8328C58.765 43.1629 58.1431 45.0784 58.4648 46.956L58.4648 46.956L60.5254 58.9696L60.895 58.9062L60.5254 58.9696C61.2315 63.0853 56.9113 66.2239 53.2154 64.2811L42.4263 58.6091C42.4263 58.6091 42.4263 58.6091 42.4262 58.6091C40.7404 57.7222 38.7257 57.7222 37.0394 58.6091C37.0393 58.6091 37.0393 58.6091 37.0393 58.6091L26.2507 64.2811C22.5549 66.2239 18.2347 63.0853 18.9408 58.9696L18.5712 58.9062L18.9408 58.9696L21.0014 46.956L21.0014 46.956C21.3231 45.0783 20.7005 43.1629 19.3366 41.8329L19.3365 41.8328L10.6085 33.3251C7.61813 30.4103 9.26839 25.3318 13.4005 24.7313L13.3466 24.3602L13.4005 24.7313L25.4629 22.9784L25.463 22.9784C27.3477 22.7043 28.978 21.5204 29.8207 19.8123L35.2149 8.88222C37.0634 5.13746 42.4027 5.13745 44.2513 8.88219C44.2513 8.8822 44.2513 8.88221 44.2513 8.88222L49.6455 19.8123L54.0033 22.9784Z" fill="white" stroke="#16AC96" stroke-width="0.75"/>
<path d="M22.2042 66.477L22.2042 66.477C21.1881 66.7452 20.3946 67.5387 20.1264 68.5548L20.1264 68.5548L18.0774 76.3198L18.0774 76.3198C17.5092 78.474 14.4508 78.4744 13.8819 76.3198C13.8819 76.3198 13.8819 76.3197 13.8819 76.3197L11.8336 68.5549L11.8336 68.5548C11.5654 67.5387 10.7719 66.7452 9.75578 66.477L9.75575 66.477L1.99083 64.428L1.99079 64.428C-0.163597 63.8598 -0.163596 60.8014 1.99079 60.2332L1.99083 60.2332L9.75575 58.1842L9.75578 58.1842C10.7719 57.916 11.5654 57.1225 11.8336 56.1064L11.8336 56.1064L13.8825 48.3414L13.8825 48.3414C14.4508 46.187 17.5092 46.187 18.0774 48.3414L18.0774 48.3414L20.1264 56.1064L20.1264 56.1064C20.3946 57.1225 21.1881 57.916 22.2042 58.1842L22.2042 58.1842L29.9685 60.2332L29.9686 60.2332C32.1235 60.8014 32.1235 63.8598 29.9686 64.428L29.9685 64.428L22.2042 66.477Z" fill="white" stroke="#16AC96" stroke-width="0.75"/>
</svg>
