<svg width="48" height="48" viewBox="0 0 48 48" fill="none" xmlns="http://www.w3.org/2000/svg">
<path d="M40.0593 3.45211L40.0466 3.83938H40.4341H46.5938C47.1631 3.83938 47.625 4.30107 47.625 4.87064C47.625 11.1104 45.9935 16.98 43.0508 21.4025C40.1422 25.7738 36.302 28.2351 32.1952 28.4745L32.0437 28.4833L31.9409 28.5951C30.9969 29.6223 30.004 30.4545 28.9756 31.0867L28.797 31.1965V31.4061V37.6563V38.0313H29.172H31.5311C34.1757 38.0313 36.3281 40.1837 36.3281 42.8283V45.1875V45.5625H36.7031H36.8031C37.3727 45.5625 37.8344 46.0244 37.8344 46.5937C37.8344 47.1634 37.3727 47.625 36.8031 47.625H11.1969C10.6273 47.625 10.1656 47.1634 10.1656 46.5937C10.1656 46.0244 10.6273 45.5625 11.1969 45.5625H11.2969H11.6719V45.1875V42.8283C11.6719 40.1837 13.8239 38.0313 16.4689 38.0313H18.828H19.203V37.6563V31.4061V31.1965L19.0244 31.0867C17.996 30.4545 17.0027 29.6223 16.0587 28.5951L15.956 28.4833L15.8044 28.4745C11.698 28.2351 7.85743 25.7738 4.94918 21.4026L4.94917 21.4025C2.00649 16.98 0.375 11.1104 0.375 4.87064C0.375 4.30101 0.836626 3.83938 1.40625 3.83938H7.56592H7.9534L7.94072 3.45211C7.9185 2.77365 7.90649 2.09146 7.90649 1.40626C7.90649 0.836626 8.36812 0.375 8.93774 0.375H39.0626C39.6319 0.375 40.0939 0.836689 40.0939 1.40626C40.0939 2.09134 40.0815 2.77351 40.0593 3.45211ZM2.84216 5.9019H2.45097L2.4675 6.29275C2.69069 11.5697 4.15549 16.4866 6.6663 20.2601C8.48181 22.989 10.7036 24.8961 13.1331 25.8137L14.1534 26.1989L13.5858 25.2677C13.1846 24.6093 12.7974 23.9102 12.427 23.1693C10.0983 18.512 8.60115 12.6288 8.09686 6.24736L8.06956 5.9019H7.72302H2.84216ZM34.4142 25.2676L33.846 26.1992L34.8669 25.8137C37.2964 24.8961 39.5182 22.989 41.3337 20.2601C43.8445 16.4866 45.3093 11.5697 45.5325 6.29275L45.549 5.9019H45.1578H40.277H39.9305L39.9031 6.24734C39.3985 12.6288 37.9016 18.512 35.573 23.1693C35.2025 23.9103 34.8158 24.6093 34.4142 25.2676Z" fill="white" stroke="#808080" stroke-width="0.75"/>
</svg>
