<svg width="32" height="32" viewBox="0 0 32 32" fill="none" xmlns="http://www.w3.org/2000/svg">
<mask id="mask0" mask-type="alpha" maskUnits="userSpaceOnUse" x="3" y="3" width="26" height="26">
<path d="M20 12H19.625V12.375H20V12ZM22.6667 12V12.375H23.0417V12H22.6667ZM20 4V3.625H19.625V4H20ZM22.6667 4H23.0417V3.625H22.6667V4ZM22.6667 6.66667H22.2917V7.04167H22.6667V6.66667ZM28 6.66667H28.375V6.29167H28V6.66667ZM28 9.33333V9.70833H28.375V9.33333H28ZM22.6667 9.33333V8.95833H22.2917V9.33333H22.6667ZM4 6.66667V6.29167H3.625V6.66667H4ZM4 9.33333H3.625V9.70833H4V9.33333ZM17.3333 6.66667H17.7083V6.29167H17.3333V6.66667ZM17.3333 9.33333V9.70833H17.7083V9.33333H17.3333ZM4 22.6667V22.2917H3.625V22.6667H4ZM4 25.3333H3.625V25.7083H4V25.3333ZM12 22.6667H12.375V22.2917H12V22.6667ZM12 25.3333V25.7083H12.375V25.3333H12ZM17.3333 25.3333V24.9583H16.9583V25.3333H17.3333ZM17.3333 28V28.375H17.7083V28H17.3333ZM28 25.3333V25.7083H28.375V25.3333H28ZM28 22.6667H28.375V22.2917H28V22.6667ZM17.3333 22.6667H16.9583V23.0417H17.3333V22.6667ZM17.3333 20H17.7083V19.625H17.3333V20ZM14.6667 20V19.625H14.2917V20H14.6667ZM14.6667 28H14.2917V28.375H14.6667V28ZM9.33333 12V11.625H8.95833V12H9.33333ZM9.33333 14.6667V15.0417H9.70833V14.6667H9.33333ZM12 12H12.375V11.625H12V12ZM12 20V20.375H12.375V20H12ZM9.33333 20H8.95833V20.375H9.33333V20ZM9.33333 17.3333H9.70833V16.9583H9.33333V17.3333ZM4 17.3333H3.625V17.7083H4V17.3333ZM4 14.6667V14.2917H3.625V14.6667H4ZM28 14.6667H28.375V14.2917H28V14.6667ZM28 17.3333V17.7083H28.375V17.3333H28ZM14.6667 14.6667V14.2917H14.2917V14.6667H14.6667ZM14.6667 17.3333H14.2917V17.7083H14.6667V17.3333ZM20 12.375H22.6667V11.625H20V12.375ZM19.625 4V12H20.375V4H19.625ZM22.6667 3.625H20V4.375H22.6667V3.625ZM23.0417 6.66667V4H22.2917V6.66667H23.0417ZM28 6.29167H22.6667V7.04167H28V6.29167ZM28.375 9.33333V6.66667H27.625V9.33333H28.375ZM22.6667 9.70833H28V8.95833H22.6667V9.70833ZM23.0417 12V9.33333H22.2917V12H23.0417ZM3.625 6.66667V9.33333H4.375V6.66667H3.625ZM17.3333 6.29167H4V7.04167H17.3333V6.29167ZM17.7083 9.33333V6.66667H16.9583V9.33333H17.7083ZM4 9.70833H17.3333V8.95833H4V9.70833ZM3.625 22.6667V25.3333H4.375V22.6667H3.625ZM12 22.2917H4V23.0417H12V22.2917ZM12.375 25.3333V22.6667H11.625V25.3333H12.375ZM4 25.7083H12V24.9583H4V25.7083ZM16.9583 25.3333V28H17.7083V25.3333H16.9583ZM28 24.9583H17.3333V25.7083H28V24.9583ZM27.625 22.6667V25.3333H28.375V22.6667H27.625ZM17.3333 23.0417H28V22.2917H17.3333V23.0417ZM16.9583 20V22.6667H17.7083V20H16.9583ZM14.6667 20.375H17.3333V19.625H14.6667V20.375ZM15.0417 28V20H14.2917V28H15.0417ZM17.3333 27.625H14.6667V28.375H17.3333V27.625ZM8.95833 12V14.6667H9.70833V12H8.95833ZM12 11.625H9.33333V12.375H12V11.625ZM12.375 20V12H11.625V20H12.375ZM9.33333 20.375H12V19.625H9.33333V20.375ZM8.95833 17.3333V20H9.70833V17.3333H8.95833ZM4 17.7083H9.33333V16.9583H4V17.7083ZM3.625 14.6667V17.3333H4.375V14.6667H3.625ZM9.33333 14.2917H4V15.0417H9.33333V14.2917ZM27.625 14.6667V17.3333H28.375V14.6667H27.625ZM14.6667 15.0417H28V14.2917H14.6667V15.0417ZM15.0417 17.3333V14.6667H14.2917V17.3333H15.0417ZM28 16.9583H14.6667V17.7083H28V16.9583Z" fill="white"/>
</mask>
<g mask="url(#mask0)">
<rect width="32" height="32" fill="#808080"/>
</g>
</svg>
